<?xml version="1.0" encoding="UTF-8"?>
<svg width="15px" height="12px" viewBox="0 0 15 12" version="1.1" xmlns="http://www.w3.org/2000/svg" xmlns:xlink="http://www.w3.org/1999/xlink">
    <title>Group</title>
    <g id="04-BLOG" stroke="none" stroke-width="1" fill="none" fill-rule="evenodd">
        <g id="AETERNUM-BLOG-ENTRADA-1" transform="translate(-1093.000000, -225.000000)" fill="#6039E4" fill-rule="nonzero">
            <g id="Group" transform="translate(1100.500000, 231.000000) scale(-1, 1) translate(-1100.500000, -231.000000) translate(1094.000000, 226.000000)">
                <path d="M12.6285714,4.5 C12.9047138,4.5 13.1285714,4.72385763 13.1285714,5 C13.1285714,5.24545989 12.9516963,5.44960837 12.7184471,5.49194433 L12.6285714,5.5 L0,5.5 C-0.276142375,5.5 -0.5,5.27614237 -0.5,5 C-0.5,4.75454011 -0.323124839,4.55039163 -0.0898756324,4.50805567 L0,4.5 L12.6285714,4.5 Z" id="Path-3"></path>
                <path d="M7.69576133,-0.355240967 C7.87015614,-0.527974881 8.13966973,-0.545970713 8.33388974,-0.410043834 L8.40286001,-0.35185772 L13.355241,4.64814228 C13.5268072,4.82135822 13.5458701,5.08868707 13.4124297,5.28281698 L13.355241,5.35185772 L8.40286001,10.3518577 C8.20853436,10.5480519 7.8919555,10.5495666 7.69576133,10.355241 C7.52136651,10.1825071 7.50079248,9.91317801 7.63485462,9.71766619 L7.69237808,9.64814228 L12.296,4.99999996 L7.69237808,0.35185772 C7.51964417,0.177462903 7.50164833,-0.0920506862 7.63757521,-0.28627069 L7.69576133,-0.355240967 Z" id="Path-4"></path>
            </g>
        </g>
    </g>
</svg>