<?xml version="1.0" encoding="UTF-8"?>
<svg width="85px" height="133px" viewBox="0 0 85 133" version="1.1" xmlns="http://www.w3.org/2000/svg" xmlns:xlink="http://www.w3.org/1999/xlink">
    <title>Imagotipo ColorCryptoContador</title>
    <defs>
        <radialGradient cx="-23.4629532%" cy="-99.6273493%" fx="-23.4629532%" fy="-99.6273493%" r="540.311082%" gradientTransform="translate(-0.234630,-0.996273),scale(0.810825,1.000000),translate(0.234630,0.996273)" id="radialGradient-1">
            <stop stop-color="#4E82E7" offset="0%"></stop>
            <stop stop-color="#6039E4" offset="52%"></stop>
        </radialGradient>
        <radialGradient cx="-75.7194245%" cy="-4.26823299%" fx="-75.7194245%" fy="-4.26823299%" r="749.730216%" gradientTransform="translate(-0.757194,-0.042682),scale(1.000000,0.435438),translate(0.757194,0.042682)" id="radialGradient-2">
            <stop stop-color="#4E82E7" offset="0%"></stop>
            <stop stop-color="#6039E4" offset="52%"></stop>
        </radialGradient>
        <radialGradient cx="-508.083832%" cy="-64.3011918%" fx="-508.083832%" fy="-64.3011918%" r="3328.14371%" gradientTransform="translate(-5.080838,-0.643012),scale(1.000000,0.180932),translate(5.080838,0.643012)" id="radialGradient-3">
            <stop stop-color="#4E82E7" offset="0%"></stop>
            <stop stop-color="#6039E4" offset="52%"></stop>
        </radialGradient>
    </defs>
    <g id="02-CRYPTOCONTADOR" stroke="none" stroke-width="1" fill="none" fill-rule="evenodd">
        <g id="INTERNA-CRYPTO-CONTADOR-Copy" transform="translate(-177.000000, -543.000000)" fill-rule="nonzero">
            <g id="Imagotipo-ColorCryptoContador" transform="translate(177.000000, 543.000000)">
                <path d="M42.5,132.714792 C19.0725171,132.714792 0,113.642275 0,90.2036259 L0,69.3891224 C0,66.29598 2.50131372,63.7946663 5.59445612,63.7946663 C8.68759853,63.7946663 11.1889122,66.29598 11.1889122,69.3891224 L11.1889122,90.2036259 C11.1889122,107.467157 25.2364687,121.514714 42.5,121.514714 C59.7635313,121.514714 73.8110878,107.467157 73.8110878,90.2036259 L73.8110878,69.3891224 C73.8110878,66.29598 76.3124015,63.7946663 79.4055439,63.7946663 C82.4986863,63.7946663 85,66.29598 85,69.3891224 L85,90.2036259 C85,113.642275 65.9274829,132.714792 42.4888334,132.714792 L42.5,132.714792 Z" id="Path" fill="url(#radialGradient-1)"></path>
                <path d="M42.5,114.066605 C28.809774,114.066605 17.6655281,102.922359 17.6655281,89.2321335 L17.6655281,5.59445612 C17.6655281,2.50131372 20.1780084,0 23.2599842,0 C26.3531266,0 28.8544404,2.50131372 28.8544404,5.59445612 L28.8544404,89.2209669 C28.8544404,96.7472412 34.9737257,102.866527 42.5,102.866527 C50.0262743,102.866527 56.1455596,96.7472412 56.1455596,89.2209669 L56.1455596,55.0624015 C56.1455596,51.9692591 58.6468734,49.4679453 61.7400158,49.4679453 C64.8331582,49.4679453 67.3344719,51.9692591 67.3344719,55.0624015 L67.3344719,89.2209669 C67.3344719,102.911193 56.190226,114.055439 42.5,114.055439 L42.5,114.066605 Z" id="Path" fill="url(#radialGradient-2)"></path>
                <path d="M42.5,96.7360746 C39.4068576,96.7360746 36.9055439,94.2347609 36.9055439,91.1416185 L36.9055439,40.4900158 C36.9055439,37.3968734 39.4068576,34.8955596 42.5,34.8955596 C45.5931424,34.8955596 48.0944561,37.3968734 48.0944561,40.4900158 L48.0944561,91.1416185 C48.0944561,94.2347609 45.5931424,96.7360746 42.5,96.7360746 L42.5,96.7360746 Z" id="Path" fill="url(#radialGradient-3)"></path>
            </g>
        </g>
    </g>
</svg>