<?xml version="1.0" encoding="UTF-8"?>
<svg width="300px" height="52px" viewBox="0 0 300 52" version="1.1" xmlns="http://www.w3.org/2000/svg" xmlns:xlink="http://www.w3.org/1999/xlink">
    <title>LogoHBlancoCryptoContador</title>
    <defs>
        <radialGradient cx="-23.4730849%" cy="-99.7127354%" fx="-23.4730849%" fy="-99.7127354%" r="545.144285%" gradientTransform="translate(-0.234731,-0.997127),scale(0.803964,1.000000),translate(0.234731,0.997127)" id="radialGradient-1">
            <stop stop-color="#4E82E7" offset="0%"></stop>
            <stop stop-color="#6039E4" offset="52%"></stop>
        </radialGradient>
        <radialGradient cx="-75.7750221%" cy="-4.2799306%" fx="-75.7750221%" fy="-4.2799306%" r="750%" gradientTransform="translate(-0.757750,-0.042799),scale(1.000000,0.439030),translate(0.757750,0.042799)" id="radialGradient-2">
            <stop stop-color="#4E82E7" offset="0%"></stop>
            <stop stop-color="#6039E4" offset="52%"></stop>
        </radialGradient>
        <radialGradient cx="-509.055118%" cy="-64.3314367%" fx="-509.055118%" fy="-64.3314367%" r="3333.66142%" gradientTransform="translate(-5.090551,-0.643314),scale(1.000000,0.182194),translate(5.090551,0.643314)" id="radialGradient-3">
            <stop stop-color="#4E82E7" offset="0%"></stop>
            <stop stop-color="#6039E4" offset="52%"></stop>
        </radialGradient>
    </defs>
    <g id="02-CRYPTOCONTADOR" stroke="none" stroke-width="1" fill="none" fill-rule="evenodd">
        <g id="INTERNA-CRYPTO-CONTADOR" transform="translate(-570.000000, -54.000000)" fill-rule="nonzero">
            <g id="LogoHBlancoCryptoContador" transform="translate(570.000000, 54.000000)">
                <g id="Group" transform="translate(51.018162, 17.767026)" fill="#FFFFFF">
                    <path d="M5.10094719,23.9880696 C3.45856386,22.9541011 2.20722417,21.4720795 1.32085856,19.5333886 C0.443182806,17.603314 -1.23490323e-14,15.3458161 -1.23490323e-14,12.7522784 C-1.23490323e-14,10.1587407 0.443182806,7.90985915 1.32085856,5.98840099 C2.19853431,4.06694283 3.449874,2.5935377 5.08356748,1.55095278 C6.7085711,0.516984258 8.60296035,6.12232349e-15 10.7667352,6.12232349e-15 C13.4953509,6.12232349e-15 15.6851954,0.741010771 17.3188889,2.22303231 C18.9612722,3.70505385 20.0127451,5.62651201 20.4906874,7.97879039 L19.4913536,8.22866611 C19.1089998,6.06594863 18.170495,4.29958575 16.6584596,2.94681027 C15.1464241,1.5940348 13.182516,0.913338857 10.7580454,0.913338857 C8.81151696,0.913338857 7.09961475,1.3958575 5.63102859,2.36089478 C4.16244243,3.32593206 3.02407091,4.69594035 2.22460389,6.47953604 C1.42513687,8.25451533 1.03409321,10.3483016 1.03409321,12.7522784 C1.03409321,15.1562552 1.43382672,17.2500414 2.22460389,19.0422535 C3.02407091,20.8344656 4.16244243,22.2130903 5.64840831,23.1781276 C7.13437419,24.1431649 8.86365611,24.6256835 10.8275642,24.6256835 C13.3476233,24.6256835 15.337601,23.910522 16.814877,22.4888152 C18.2834632,21.0671085 19.2132781,19.1025684 19.5956319,16.6038111 L20.5949657,16.8536868 C20.1170234,19.542005 19.0742404,21.6616404 17.4579266,23.2125932 C15.8416128,24.763546 13.6430785,25.5476388 10.8710135,25.5476388 C8.66378936,25.5476388 6.73464067,25.0306545 5.10094719,23.996686 L5.10094719,23.9880696 Z" id="Path"></path>
                    <path d="M24.0100802,16.2160729 L23.9753208,6.64324772 L24.9746546,6.64324772 L24.9051357,11.0203811 L24.9746546,11.0203811 C25.4699765,9.6072908 26.2868233,8.43545982 27.4165049,7.50488815 C28.5461866,6.57431649 29.8583553,6.10903065 31.353011,6.10903065 C31.848333,6.10903065 32.3610347,6.16934548 32.8824262,6.28997514 L32.7433885,7.24639602 C32.2480665,7.15161558 31.7701243,7.10853355 31.3182516,7.10853355 C30.1972598,7.10853355 29.1544767,7.44457332 28.1638328,8.11665286 C27.1818787,8.78873239 26.3911016,9.69345485 25.808881,10.8394366 C25.2266605,11.9854184 24.9398951,13.234797 24.9398951,14.6048053 L24.9398951,16.1557581 L24.9746546,25.0220381 L23.9753208,25.0220381 L24.0100802,16.2246893 L24.0100802,16.2160729 Z" id="Path"></path>
                    <path d="M34.7333662,30.8725766 L34.9506126,29.9937034 C35.4980737,30.1315659 36.1150537,30.2091135 36.8015526,30.2091135 C37.4185326,30.2091135 37.9573038,30.0454018 38.4265562,29.7179785 C38.8871187,29.3905551 39.3389914,28.8391052 39.7821742,28.0550124 C40.225357,27.279536 40.7380587,26.1594035 41.3289691,24.6946147 L33.4211975,6.64324772 L34.559569,6.64324772 L41.7547722,23.634797 L41.8242911,23.634797 L49.2019813,6.64324772 L50.2360745,6.64324772 L41.9024998,25.6510356 C41.2333806,27.1589064 40.6511601,28.3048882 40.1384584,29.0975973 C39.6257567,29.8903065 39.1217449,30.4245236 38.626423,30.7260978 C38.131101,31.0190555 37.5315007,31.1655344 36.8450019,31.1655344 C36.2019523,31.1655344 35.5067636,31.0707539 34.742056,30.881193 L34.7333662,30.8725766 Z" id="Path"></path>
                    <path d="M52.9386206,15.8628003 L52.9038612,6.64324772 L53.8336761,6.64324772 L53.8336761,11.16686 L53.903195,11.16686 C54.3811372,9.75376968 55.2414332,8.55608948 56.5014628,7.58243579 C57.7614923,6.6087821 59.3169771,6.11764706 61.167917,6.11764706 C62.8103004,6.11764706 64.2354372,6.51400166 65.4607074,7.29809445 C66.6859775,8.09080365 67.6244822,9.21955261 68.2936014,10.6929577 C68.9540306,12.1663629 69.2929351,13.8896437 69.2929351,15.8714167 C69.2929351,18.861309 68.5716769,21.2222038 67.1378501,22.9541011 C65.7040234,24.6859983 63.7140457,25.5476388 61.167917,25.5476388 C59.3169771,25.5476388 57.7614923,25.0565037 56.5014628,24.08285 C55.2414332,23.1091964 54.3724474,21.9201326 53.903195,20.5328915 L53.8336761,20.5328915 L53.8336761,30.6743993 L52.9038612,30.6743993 L52.9386206,15.8714167 L52.9386206,15.8628003 Z M54.8069403,20.6879867 C55.4586797,21.9976802 56.3363555,22.9713339 57.4399676,23.6175642 C58.5435796,24.2637945 59.7862295,24.5912179 61.1592272,24.5912179 C63.3925209,24.5912179 65.1391826,23.8157415 66.3992121,22.2561723 C67.6592417,20.7052196 68.2849115,18.5683513 68.2849115,15.8628003 C68.2849115,13.1572494 67.6418619,11.0117647 66.3644527,9.43496272 C65.0783536,7.85816073 63.3490716,7.06545153 61.1592272,7.06545153 C59.9687165,7.06545153 58.8216551,7.34979287 57.7006633,7.92709196 C56.5796715,8.50439105 55.6585465,9.44357912 54.9199085,10.7532726 C54.1812705,12.062966 53.8162964,13.7517813 53.8162964,15.8197183 C53.8162964,17.7497929 54.146511,19.3696769 54.7982504,20.6793703 L54.8069403,20.6879867 Z" id="Shape"></path>
                    <path d="M74.6371984,24.1948633 C73.9506995,23.2987572 73.6031052,21.9115162 73.6031052,20.0245236 L73.6031052,7.52212096 L70.3965472,7.5910522 L70.3965472,6.63463132 L73.6031052,6.63463132 L73.5683457,1.37000829 L74.4981606,1.37000829 L74.4634012,6.63463132 L80.7374794,6.63463132 L80.7374794,7.5910522 L74.5068505,7.52212096 L74.5068505,20.0245236 C74.5068505,21.6702568 74.784926,22.8420878 75.341077,23.5400166 C75.8972279,24.2379453 76.7922834,24.5826015 78.0349332,24.5826015 C79.2775831,24.5826015 80.3985749,24.358575 81.4934971,23.910522 L81.745503,24.7549296 C80.4159546,25.2719138 79.155925,25.530406 77.9654144,25.530406 C76.444689,25.530406 75.341077,25.0823529 74.6545781,24.1862469 L74.6371984,24.1948633 Z" id="Path"></path>
                    <path d="M84.8651624,22.9282519 C83.3965762,21.1877382 82.6579382,18.818227 82.6579382,15.8283347 C82.6579382,12.8384424 83.3965762,10.4689312 84.8651624,8.72841756 C86.3337485,6.98790389 88.3584856,6.11764706 90.921994,6.11764706 C93.4855024,6.11764706 95.5015497,6.98790389 96.9788257,8.72841756 C98.4474119,10.4689312 99.1860499,12.8384424 99.1860499,15.8283347 C99.1860499,18.818227 98.4474119,21.1877382 96.9788257,22.9282519 C95.5102396,24.6687655 93.4855024,25.5390224 90.921994,25.5390224 C88.3584856,25.5390224 86.3424384,24.6687655 84.8651624,22.9282519 Z M85.6124902,22.2217067 C86.9159691,23.7985087 88.6887003,24.5912179 90.921994,24.5912179 C93.1552878,24.5912179 94.9193291,23.7985087 96.2314978,22.2217067 C97.5349767,20.6449047 98.1867161,18.5166529 98.1867161,15.8283347 C98.1867161,13.1400166 97.5349767,11.0117647 96.2314978,9.43496272 C94.928019,7.85816073 93.1552878,7.06545153 90.921994,7.06545153 C88.6887003,7.06545153 86.9159691,7.85816073 85.6124902,9.43496272 C84.3090114,11.0117647 83.657272,13.1400166 83.657272,15.8283347 C83.657272,18.5166529 84.3090114,20.6449047 85.6124902,22.2217067 Z" id="Shape"></path>
                    <path d="M106.303044,24.0053024 C104.617212,22.9799503 103.322423,21.5065452 102.418677,19.5937034 C101.514932,17.6722452 101.063059,15.4061309 101.063059,12.7953604 C101.063059,10.1845899 101.514932,7.87539354 102.418677,5.96255178 C103.322423,4.04971002 104.625902,2.56768848 106.320424,1.55095278 C108.014947,0.525600663 110.022304,0.0172328086 112.325117,0.0172328086 C115.21884,0.0172328086 117.547722,0.775476388 119.311763,2.27473074 C121.075805,3.77398509 122.135967,5.8074565 122.518321,8.34929577 L118.27767,9.47804474 C118.016974,7.75476388 117.365235,6.4019884 116.339831,5.41971831 C115.314428,4.43744822 113.99357,3.93769677 112.403325,3.93769677 C110.361208,3.93769677 108.762274,4.72178956 107.615213,6.28997514 C106.459462,7.85816073 105.885931,10.0294946 105.885931,12.8039768 C105.885931,15.578459 106.459462,17.7153273 107.615213,19.26628 C108.770964,20.8172328 110.352519,21.6013256 112.368566,21.6013256 C114.080468,21.6013256 115.444776,21.0843413 116.461489,20.0503728 C117.478203,19.0164043 118.121252,17.5085336 118.381948,15.5267606 L122.622599,16.6899751 C122.240246,19.4213753 121.145323,21.5840928 119.329143,23.1695112 C117.512962,24.7549296 115.1667,25.5562552 112.290357,25.5562552 C109.987545,25.5562552 107.988877,25.0478873 106.303044,24.0225352 L106.303044,24.0053024 Z" id="Path"></path>
                    <path d="M128.088521,24.3413422 C126.698143,23.5400166 125.629291,22.3940348 124.881963,20.8947804 C124.134635,19.3955261 123.760971,17.6550124 123.760971,15.6473902 C123.760971,13.639768 124.134635,11.8992543 124.881963,10.4172328 C125.629291,8.93521127 126.689453,7.78922949 128.071141,6.98790389 C129.444139,6.18657829 131.060452,5.7902237 132.920082,5.7902237 C134.779712,5.7902237 136.430785,6.18657829 137.821163,6.98790389 C139.21154,7.78922949 140.289083,8.92659486 141.0451,10.4172328 C141.801118,11.8992543 142.183472,13.639768 142.183472,15.6473902 C142.183472,17.6550124 141.801118,19.3955261 141.0451,20.8947804 C140.280393,22.3940348 139.20285,23.5400166 137.803783,24.3413422 C136.404716,25.1426678 134.779712,25.5390224 132.920082,25.5390224 C131.060452,25.5390224 129.478898,25.1426678 128.088521,24.3413422 L128.088521,24.3413422 Z M129.444139,20.3174814 C130.287055,21.4289975 131.460186,21.9804474 132.954842,21.9804474 C134.449497,21.9804474 135.622628,21.4289975 136.482924,20.3174814 C137.334531,19.2145816 137.769024,17.6550124 137.769024,15.6560066 C137.769024,13.6570008 137.34322,12.1405137 136.482924,11.0462303 C135.622628,9.95194698 134.449497,9.4004971 132.954842,9.4004971 C131.460186,9.4004971 130.287055,9.95194698 129.444139,11.0462303 C128.601222,12.1405137 128.175419,13.6742336 128.175419,15.6560066 C128.175419,17.6377796 128.592533,19.2145816 129.444139,20.3174814 L129.444139,20.3174814 Z" id="Shape"></path>
                    <path d="M144.816499,16.0006628 L144.712221,6.28997514 L149.126669,6.28997514 L149.05715,9.01275891 L149.126669,9.01275891 C149.621991,8.04772162 150.404078,7.27224524 151.464241,6.67771334 C152.524404,6.09179785 153.740984,5.7988401 155.113982,5.7988401 C157.225618,5.7988401 158.815862,6.41922121 159.884715,7.66859983 C160.953567,8.91797846 161.483649,10.8739022 161.483649,13.5363712 L161.483649,16.0092792 L161.553167,25.0134217 L157.173479,25.0134217 L157.242997,16.0092792 L157.242997,14.0275062 C157.242997,12.5454847 156.912783,11.4167357 156.243664,10.6498757 C155.574545,9.88301574 154.662109,9.50389395 153.497668,9.50389395 C152.211569,9.50389395 151.151406,9.98641259 150.30849,10.9514499 C149.465574,11.9164872 149.039771,13.1744822 149.039771,14.7340514 L149.039771,16.0092792 L149.109289,25.0134217 L144.694841,25.0134217 L144.799119,16.0092792 L144.816499,16.0006628 Z" id="Path"></path>
                    <path d="M168.009733,24.5309031 C167.105987,23.8588235 166.523767,22.9799503 166.263071,21.9028998 C166.002375,20.8172328 165.880717,19.4041425 165.906787,17.6636288 L165.941546,9.57282519 L163.126032,9.64175642 L163.126032,6.28997514 L165.906787,6.28997514 L165.906787,0.465285833 L170.286476,0.465285833 L170.286476,6.28997514 L175.847985,6.28997514 L175.847985,9.64175642 L170.251716,9.57282519 L170.286476,18.1202983 C170.286476,19.5075394 170.486342,20.5070423 170.877386,21.118807 C171.26843,21.7305717 171.963618,22.0407622 172.962952,22.0407622 C173.797179,22.0407622 174.657475,21.9028998 175.56122,21.6185584 L176.343307,24.6946147 C174.91817,25.2632974 173.501723,25.5390224 172.102656,25.5390224 C170.277786,25.5390224 168.904788,25.2029826 168.009733,24.5309031 L168.009733,24.5309031 Z" id="Path"></path>
                    <path d="M178.733019,24.0914664 C177.664166,23.1264292 177.134085,21.8425849 177.134085,20.2399337 C177.134085,18.051367 178.00307,16.4917978 179.732352,15.578459 C181.461634,14.6565037 184.18156,14.1998343 187.89213,14.1998343 L189.282507,14.1998343 L189.282507,13.6742336 C189.282507,12.1922121 188.978362,11.0634631 188.370072,10.2966031 C187.761782,9.52974316 186.771138,9.15062138 185.39814,9.15062138 C183.946934,9.15062138 182.895461,9.590058 182.226342,10.4603148 C181.557223,11.3305717 181.244388,12.3300746 181.261768,13.4588235 L177.559888,12.6144159 C177.629406,11.296106 177.994381,10.1242751 178.64612,9.09892295 C179.297859,8.07357084 180.218984,7.27224524 181.409495,6.67771334 C182.600006,6.08318144 183.990383,5.7988401 185.580627,5.7988401 C188.239724,5.7988401 190.212322,6.43645402 191.498421,7.70306545 C192.78452,8.96967688 193.41888,10.8222038 193.41888,13.2520298 L193.41888,20.6018227 C193.41888,21.2135874 193.514469,21.653024 193.705646,21.9115162 C193.896822,22.1700083 194.253107,22.2992543 194.774498,22.2992543 C195.174232,22.2992543 195.556585,22.2130903 195.91287,22.0493786 L196.4864,24.9100249 C195.582655,25.2374482 194.63546,25.4011599 193.636127,25.4011599 C192.541204,25.4011599 191.698288,25.1340514 191.089998,24.5912179 C190.481708,24.0483844 190.142803,23.229826 190.073284,22.1183099 C190.073284,21.8339685 190.099354,21.5496272 190.142803,21.2739022 L190.073284,21.2739022 C189.482374,22.6180613 188.604698,23.6606462 187.440257,24.4188898 C186.275816,25.168517 184.876749,25.5476388 183.234365,25.5476388 C181.313907,25.5476388 179.810561,25.0651201 178.741708,24.1000829 L178.733019,24.0914664 Z M182.139443,21.6357912 C182.652145,22.0752278 183.356024,22.2906379 184.259769,22.2906379 C185.093995,22.2906379 185.902152,22.0666114 186.684239,21.6185584 C187.466327,21.1705054 188.100686,20.5501243 188.569939,19.7487987 C189.047881,18.9474731 189.282507,18.0341342 189.282507,16.9915493 L189.282507,16.707208 L188.430901,16.707208 C185.910842,16.707208 184.112041,16.9398509 183.017119,17.3965203 C181.922197,17.8531897 181.374736,18.6889809 181.374736,19.8866611 C181.374736,20.6190555 181.626742,21.1963546 182.139443,21.6357912 L182.139443,21.6357912 Z" id="Shape"></path>
                    <path d="M198.667555,23.0144159 C197.346696,21.3342171 196.686267,18.8871582 196.686267,15.6818558 C196.686267,12.4765534 197.346696,10.0036454 198.667555,8.31483016 C199.988414,6.63463132 201.839353,5.7902237 204.246444,5.7902237 C205.602062,5.7902237 206.783883,6.10041425 207.791907,6.72941176 C208.79993,7.34979287 209.555948,8.09080365 210.05127,8.93521127 L210.120789,8.93521127 L210.05127,0.491135046 L214.543927,0.491135046 L214.439649,13.9844242 L214.543927,25.0048053 L210.05127,25.0048053 L210.08603,22.3940348 L210.016511,22.3940348 C209.538568,23.2384424 208.79993,23.9794532 207.791907,24.5998343 C206.783883,25.2202154 205.602062,25.5390224 204.246444,25.5390224 C201.848043,25.5390224 199.988414,24.6946147 198.667555,23.0144159 L198.667555,23.0144159 Z M202.265157,20.3260978 C203.038554,21.3945319 204.150856,21.9373654 205.593373,21.9373654 C206.827333,21.9373654 207.887495,21.4548467 208.782551,20.4898094 C209.668916,19.5247722 210.120789,17.8962717 210.120789,15.6129246 C210.120789,13.5622204 209.694986,12.019884 208.83469,10.9686827 C207.983084,9.91748136 206.896851,9.4004971 205.593373,9.4004971 C204.142166,9.4004971 203.029864,9.94333057 202.265157,11.0289975 C201.491759,12.1146645 201.109405,13.6656172 201.109405,15.6904722 C201.109405,17.7153273 201.491759,19.26628 202.265157,20.3347142 L202.265157,20.3260978 Z" id="Shape"></path>
                    <path d="M221.391536,24.3413422 C220.001159,23.5400166 218.932306,22.3940348 218.184978,20.8947804 C217.43765,19.3955261 217.063986,17.6550124 217.063986,15.6473902 C217.063986,13.639768 217.43765,11.8992543 218.184978,10.4172328 C218.932306,8.93521127 219.992469,7.78922949 221.374156,6.98790389 C222.747154,6.18657829 224.363468,5.7902237 226.223098,5.7902237 C228.082727,5.7902237 229.733801,6.18657829 231.124178,6.98790389 C232.514556,7.78922949 233.592098,8.92659486 234.348116,10.4172328 C235.104133,11.8992543 235.486487,13.639768 235.486487,15.6473902 C235.486487,17.6550124 235.104133,19.3955261 234.348116,20.8947804 C233.583408,22.3940348 232.505866,23.5400166 231.106798,24.3413422 C229.707731,25.1426678 228.082727,25.5390224 226.223098,25.5390224 C224.363468,25.5390224 222.781914,25.1426678 221.391536,24.3413422 L221.391536,24.3413422 Z M222.747154,20.3174814 C223.59007,21.4289975 224.763201,21.9804474 226.257857,21.9804474 C227.752513,21.9804474 228.925644,21.4289975 229.78594,20.3174814 C230.637546,19.2145816 231.072039,17.6550124 231.072039,15.6560066 C231.072039,13.6570008 230.646236,12.1405137 229.78594,11.0462303 C228.925644,9.95194698 227.752513,9.4004971 226.257857,9.4004971 C224.763201,9.4004971 223.59007,9.95194698 222.747154,11.0462303 C221.904238,12.1405137 221.478435,13.6742336 221.478435,15.6560066 C221.478435,17.6377796 221.895548,19.2145816 222.747154,20.3174814 L222.747154,20.3174814 Z" id="Shape"></path>
                    <path d="M238.119515,16.0351284 L238.015236,6.28997514 L242.429685,6.28997514 L242.325406,9.18508699 L242.394925,9.18508699 C242.777279,8.22004971 243.429018,7.41010771 244.350143,6.76387738 C245.279958,6.11764706 246.43571,5.7902237 247.843467,5.7902237 C248.321409,5.7902237 248.695073,5.84192212 248.981838,5.92808616 L248.981838,10.1328915 C248.390928,9.995029 247.869536,9.91748136 247.417664,9.91748136 C245.77528,9.91748136 244.523941,10.4172328 243.654955,11.4167357 C242.785969,12.4162386 242.351476,13.9068766 242.351476,15.8886495 L242.351476,16.6296603 L242.420995,25.0048053 L238.006546,25.0048053 L238.110825,16.0351284 L238.119515,16.0351284 Z" id="Path"></path>
                </g>
                <g id="Group">
                    <path d="M16.7974973,52 C7.5341077,52 0,44.5295775 0,35.3444905 L0,27.193372 C0,25.978459 0.990643919,25.0048053 2.20722417,25.0048053 C3.43249428,25.0048053 4.41444834,25.9870754 4.41444834,27.193372 L4.41444834,35.3444905 C4.41444834,42.1083679 9.9672682,47.6142502 16.7888075,47.6142502 C23.6103467,47.6142502 29.1631666,42.1083679 29.1631666,35.3444905 L29.1631666,27.193372 C29.1631666,25.978459 30.1538105,25.0048053 31.3703908,25.0048053 C32.5956609,25.0048053 33.5776149,25.9870754 33.5776149,27.193372 L33.5776149,35.3444905 C33.5776149,44.5295775 26.0435072,52 16.7801176,52 L16.7974973,52 Z" id="Path" fill="url(#radialGradient-1)"></path>
                    <path d="M16.7974973,44.6932891 C11.3837152,44.6932891 6.98664658,40.3247722 6.98664658,34.9653687 L6.98664658,2.18856669 C6.98664658,0.982270091 7.9772905,0 9.19387075,0 C10.4191409,0 11.4010949,0.982270091 11.4010949,2.18856669 L11.4010949,34.9653687 C11.4010949,37.912179 13.8168757,40.3161558 16.7974973,40.3161558 C19.7781189,40.3161558 22.1938997,37.9207954 22.1938997,34.9653687 L22.1938997,21.5754764 C22.1938997,20.3605634 23.1845436,19.3869097 24.4011239,19.3869097 C25.626394,19.3869097 26.6083481,20.3691798 26.6083481,21.5754764 L26.6083481,34.9653687 C26.6083481,40.3333886 22.2025896,44.6932891 16.7974973,44.6932891 Z" id="Path" fill="url(#radialGradient-2)"></path>
                    <path d="M16.7974973,37.9035626 C15.5722272,37.9035626 14.5902732,36.9212925 14.5902732,35.7149959 L14.5902732,15.8628003 C14.5902732,14.6478873 15.5809171,13.6742336 16.7974973,13.6742336 C18.0140776,13.6742336 19.0047215,14.6565037 19.0047215,15.8628003 L19.0047215,35.7149959 C19.0047215,36.9299089 18.0140776,37.9035626 16.7974973,37.9035626 Z" id="Path" fill="url(#radialGradient-3)"></path>
                </g>
            </g>
        </g>
    </g>
</svg>