<?xml version="1.0" encoding="UTF-8"?>
<svg width="343px" height="60px" viewBox="0 0 343 60" version="1.1" xmlns="http://www.w3.org/2000/svg" xmlns:xlink="http://www.w3.org/1999/xlink">
    <title>LogoHGrisCryptoContador</title>
    <defs>
        <radialGradient cx="-23.4464752%" cy="-99.6457327%" fx="-23.4464752%" fy="-99.6457327%" r="540.005293%" gradientTransform="translate(-0.234465,-0.996457),scale(0.811181,1.000000),translate(0.234465,0.996457)" id="radialGradient-1">
            <stop stop-color="#4E82E7" offset="0%"></stop>
            <stop stop-color="#6039E4" offset="52%"></stop>
        </radialGradient>
        <radialGradient cx="-75.6925827%" cy="-4.28098852%" fx="-75.6925827%" fy="-4.28098852%" r="749.642538%" gradientTransform="translate(-0.756926,-0.042810),scale(1.000000,0.435238),translate(0.756926,0.042810)" id="radialGradient-2">
            <stop stop-color="#4E82E7" offset="0%"></stop>
            <stop stop-color="#6039E4" offset="52%"></stop>
        </radialGradient>
        <radialGradient cx="-508.134921%" cy="-64.321608%" fx="-508.134921%" fy="-64.321608%" r="3328.76984%" gradientTransform="translate(-5.081349,-0.643216),scale(1.000000,0.180798),translate(5.081349,0.643216)" id="radialGradient-3">
            <stop stop-color="#4E82E7" offset="0%"></stop>
            <stop stop-color="#6039E4" offset="52%"></stop>
        </radialGradient>
    </defs>
    <g id="02-CRYPTOCONTADOR" stroke="none" stroke-width="1" fill="none" fill-rule="evenodd">
        <g id="INTERNA-CRYPTO-CONTADOR" transform="translate(-549.000000, -2154.000000)" fill-rule="nonzero">
            <g id="LogoHGrisCryptoContador" transform="translate(549.000000, 2154.000000)">
                <g id="Group" transform="translate(58.330058, 20.481686)" fill="#606060">
                    <path d="M5.8269883,27.6869042 C3.95152047,26.4927245 2.51733918,24.7767185 1.50438596,22.5489212 C0.501461988,20.3211239 0,17.711992 0,14.7215253 C0,11.7310587 0.501461988,9.13196187 1.50438596,6.9141997 C2.50730994,4.69643753 3.94149123,2.99046663 5.79690058,1.796287 C7.65230994,0.602107376 9.81862573,0 12.295848,0 C15.4149415,0 17.9122222,0.852985449 19.7876901,2.56899147 C21.6631579,4.28499749 22.8666667,6.49272454 23.4082456,9.21224285 L22.2649123,9.49322629 C21.833655,6.99448068 20.7504971,4.96738585 19.0254678,3.40190667 C17.3004386,1.8364275 15.0538889,1.05368791 12.2858187,1.05368791 C10.0593275,1.05368791 8.10362573,1.61565479 6.41871345,2.72955344 C4.73380117,3.84345208 3.44002924,5.42900151 2.52736842,7.47616658 C1.6147076,9.52333166 1.16339181,11.9417963 1.16339181,14.7114902 C1.16339181,17.4811841 1.6147076,19.8996488 2.52736842,21.9668841 C3.44002924,24.0341194 4.74383041,25.6196688 6.43877193,26.7335675 C8.13371345,27.8474661 10.1094737,28.409433 12.3660526,28.409433 C15.2444444,28.409433 17.5210819,27.5865529 19.2059942,25.9407928 C20.8909064,24.2950326 21.9439766,22.03713 22.3852632,19.1570497 L23.5285965,19.4380331 C22.9870175,22.5388861 21.793538,24.977421 19.9481579,26.773708 C18.1027778,28.569995 15.5854386,29.4631209 12.4161988,29.4631209 C9.88883041,29.4631209 7.6924269,28.8610135 5.81695906,27.6668339 L5.8269883,27.6869042 Z" id="Path"></path>
                    <path d="M27.4600585,18.7255394 L27.4199415,7.67686904 L28.5632749,7.67686904 L28.4830409,12.734571 L28.5632749,12.734571 C29.1349415,11.1088811 30.0676608,9.75413949 31.3514035,8.68038133 C32.6451754,7.60662318 34.1395322,7.07476167 35.8545322,7.07476167 C36.4261988,7.07476167 37.0078947,7.14500753 37.6096491,7.27546412 L37.4491813,8.37932765 C36.8775146,8.26894129 36.3359357,8.21876568 35.8244444,8.21876568 C34.550731,8.21876568 33.3472222,8.61013547 32.2239474,9.38283994 C31.1006725,10.1555444 30.1980409,11.1991972 29.5361111,12.5238334 C28.8741813,13.8384345 28.5331871,15.2834922 28.5331871,16.8690416 L28.5331871,18.6653287 L28.5733041,28.8911189 L27.4299708,28.8911189 L27.4700877,18.7456096 L27.4600585,18.7255394 Z" id="Path"></path>
                    <path d="M39.7157895,35.6347215 L39.9564912,34.611139 C40.5783041,34.771701 41.2903801,34.8519819 42.0726608,34.8519819 C42.7747076,34.8519819 43.3965205,34.6613146 43.9280702,34.2799799 C44.4596199,33.8986453 44.9711111,33.2563974 45.4725731,32.3632715 C45.9740351,31.4701455 46.5657602,30.1756147 47.2477485,28.489714 L38.2013743,7.66683392 L39.5051754,7.66683392 L47.729152,27.265429 L47.809386,27.265429 L56.2439766,7.66683392 L57.4274269,7.66683392 L47.8996491,29.5935775 C47.1374269,31.3296538 46.4654678,32.65429 45.8837719,33.5674862 C45.302076,34.4806824 44.7203801,35.10286 44.1487135,35.4440542 C43.5770468,35.7852484 42.8950585,35.9558455 42.1127778,35.9558455 C41.3806433,35.9558455 40.5783041,35.8454591 39.7057602,35.6347215 L39.7157895,35.6347215 Z" id="Path"></path>
                    <path d="M60.526462,18.3140993 L60.486345,7.67686904 L61.5494444,7.67686904 L61.5494444,12.895133 L61.6296784,12.895133 C62.1712573,11.2694431 63.164152,9.88459609 64.5983333,8.76066232 C66.0325146,7.63672855 67.8177193,7.06472654 69.9338889,7.06472654 C71.8093567,7.06472654 73.4441228,7.51630707 74.8381871,8.42950326 C76.2322515,9.34269945 77.3154094,10.6472654 78.0776316,12.3432012 C78.8398538,14.039137 79.2209649,16.0361264 79.2209649,18.3140993 C79.2209649,21.7661816 78.3985673,24.4856999 76.7537719,26.4826894 C75.1089766,28.4796789 72.8323392,29.4831912 69.9338889,29.4831912 C67.8177193,29.4831912 66.0325146,28.9212243 64.5983333,27.7872554 C63.1541228,26.6633216 62.1712573,25.2985449 61.6296784,23.6929252 L61.5494444,23.6929252 L61.5494444,35.3938786 L60.486345,35.3938786 L60.526462,18.3140993 L60.526462,18.3140993 Z M62.6626901,23.8735575 C63.4048538,25.3788259 64.417807,26.5127948 65.6814912,27.2553939 C66.9451754,27.997993 68.3592982,28.3793276 69.9338889,28.3793276 C72.4813158,28.3793276 74.4771345,27.4862017 75.921345,25.6899147 C77.3555263,23.8936277 78.0776316,21.4350226 78.0776316,18.3140993 C78.0776316,15.1931761 77.3454971,12.7145008 75.8812281,10.8981435 C74.4169591,9.08178625 72.4311696,8.16859007 69.9338889,8.16859007 C68.5799415,8.16859007 67.2560819,8.49974912 65.9823684,9.16206724 C64.708655,9.82438535 63.6455556,10.9182137 62.8030994,12.4234822 C61.9606433,13.9287506 61.5394152,15.8855996 61.5394152,18.2739589 C61.5394152,20.5017561 61.9104971,22.368289 62.6626901,23.8735575 L62.6626901,23.8735575 Z" id="Shape"></path>
                    <path d="M85.3287719,27.9377822 C84.536462,26.9041646 84.1453216,25.2985449 84.1453216,23.1309584 L84.1453216,8.70045158 L80.4846491,8.78073256 L80.4846491,7.67686904 L84.1453216,7.67686904 L84.1052047,1.60561967 L85.1683041,1.60561967 L85.1281871,7.67686904 L92.2990936,7.67686904 L92.2990936,8.78073256 L85.1683041,8.70045158 L85.1683041,23.1309584 C85.1683041,25.0376317 85.4892398,26.3823382 86.1210819,27.185148 C86.7629532,27.9879579 87.7859357,28.3893628 89.2000585,28.3893628 C90.6141813,28.3893628 91.897924,28.1284496 93.1515789,27.6166583 L93.4323977,28.5900652 C91.9079532,29.1921726 90.4737719,29.4831912 89.1198246,29.4831912 C87.3847661,29.4831912 86.1210819,28.9713999 85.3287719,27.9377822 L85.3287719,27.9377822 Z" id="Path"></path>
                    <path d="M97.0228655,26.4726543 C95.3379532,24.4656297 94.4954971,21.7360763 94.4954971,18.283994 C94.4954971,14.8319117 95.3379532,12.1023583 97.0228655,10.0953337 C98.7077778,8.08830908 101.014503,7.07476167 103.943041,7.07476167 C106.871579,7.07476167 109.188333,8.07827396 110.863216,10.0953337 C112.548129,12.1023583 113.390585,14.8419468 113.390585,18.283994 C113.390585,21.7260411 112.548129,24.4656297 110.863216,26.4726543 C109.178304,28.4796789 106.871579,29.4932263 103.943041,29.4932263 C101.014503,29.4932263 98.6977485,28.489714 97.0228655,26.4726543 L97.0228655,26.4726543 Z M97.8753509,25.6598093 C99.3697076,27.4761666 101.395614,28.3893628 103.943041,28.3893628 C106.490468,28.3893628 108.516374,27.4761666 110.010731,25.6598093 C111.505088,23.8434521 112.247251,21.384847 112.247251,18.283994 C112.247251,15.183141 111.505088,12.7245359 110.010731,10.9081786 C108.516374,9.09182137 106.490468,8.17862519 103.943041,8.17862519 C101.395614,8.17862519 99.3697076,9.09182137 97.8753509,10.9081786 C96.3809942,12.7245359 95.6388304,15.183141 95.6388304,18.283994 C95.6388304,21.384847 96.3809942,23.8434521 97.8753509,25.6598093 Z" id="Shape"></path>
                    <path d="M121.544357,27.7069744 C119.618743,26.5228299 118.134415,24.8268941 117.101404,22.609132 C116.068392,20.3913698 115.556901,17.7822378 115.556901,14.7616658 C115.556901,11.7410938 116.068392,9.09182137 117.101404,6.87405921 C118.134415,4.65629704 119.618743,2.96036126 121.564415,1.77621676 C123.510088,0.592072253 125.796754,3.56519185e-15 128.424415,3.56519185e-15 C131.734064,3.56519185e-15 134.401842,0.873055695 136.40769,2.60913196 C138.413538,4.34520823 139.637105,6.68339187 140.068363,9.62368289 L135.22424,10.9282489 C134.923363,8.94129453 134.181199,7.38585048 133.007778,6.24184646 C131.824327,5.09784245 130.329971,4.52584044 128.504649,4.52584044 C126.167836,4.52584044 124.342515,5.42900151 123.028684,7.23532363 C121.714854,9.04164576 121.052924,11.5504265 121.052924,14.7516307 C121.052924,17.9528349 121.714854,20.4214752 123.028684,22.207727 C124.342515,24.004014 126.157807,24.89714 128.464532,24.89714 C130.420234,24.89714 131.984795,24.2950326 133.148187,23.100853 C134.311579,21.9066734 135.043713,20.1705971 135.344591,17.8825891 L140.188713,19.2272955 C139.757456,22.3783241 138.493772,24.8670346 136.417719,26.7034621 C134.341667,28.5398896 131.65383,29.4530858 128.374269,29.4530858 C125.736579,29.4530858 123.459942,28.8610135 121.534327,27.676869 L121.544357,27.7069744 Z" id="Path"></path>
                    <path d="M146.446959,28.0983442 C144.862339,27.1751129 143.638772,25.8504767 142.776257,24.1244355 C141.923772,22.3983944 141.492515,20.3813347 141.492515,18.0732564 C141.492515,15.7651781 141.923772,13.7481184 142.776257,12.0421475 C143.628743,10.3261415 144.842281,9.01154039 146.416871,8.08830908 C147.991462,7.16507777 149.836842,6.70346212 151.953012,6.70346212 C154.069181,6.70346212 155.964708,7.16507777 157.549327,8.08830908 C159.133947,9.01154039 160.367544,10.3261415 161.240088,12.0421475 C162.112632,13.7581535 162.543889,15.7651781 162.543889,18.0732564 C162.543889,20.3813347 162.112632,22.3983944 161.240088,24.1244355 C160.367544,25.8504767 159.133947,27.1751129 157.529269,28.0983442 C155.924591,29.0215755 154.069181,29.4831912 151.953012,29.4831912 C149.836842,29.4831912 148.02155,29.0215755 146.43693,28.0983442 L146.446959,28.0983442 Z M147.991462,23.4520823 C148.954269,24.7265429 150.288158,25.3687908 152.003158,25.3687908 C153.718158,25.3687908 155.062076,24.7265429 156.034912,23.4520823 C157.017778,22.1776217 157.499181,20.3813347 157.499181,18.0732564 C157.499181,15.7651781 157.007749,14.0190667 156.034912,12.7546412 C155.062076,11.4902158 153.718158,10.858003 152.003158,10.858003 C150.288158,10.858003 148.954269,11.4902158 147.991462,12.7546412 C147.028655,14.0190667 146.547251,15.7952835 146.547251,18.0732564 C146.547251,20.3512293 147.028655,22.1776217 147.991462,23.4520823 Z" id="Shape"></path>
                    <path d="M165.572719,18.4846964 L165.452368,7.27546412 L170.507105,7.27546412 L170.426871,10.4164576 L170.507105,10.4164576 C171.078772,9.30255896 171.971374,8.40943302 173.174883,7.72704466 C174.378392,7.0446563 175.772456,6.70346212 177.347047,6.70346212 C179.764094,6.70346212 181.579386,7.42599097 182.802953,8.86101355 C184.02652,10.2960361 184.638304,12.5539388 184.638304,15.6246864 L184.638304,18.4746613 L184.718538,28.8710487 L179.703918,28.8710487 L179.784152,18.4746613 L179.784152,16.1966884 C179.784152,14.4806824 179.403041,13.1861515 178.640819,12.3030607 C177.878596,11.4199699 176.835556,10.9784245 175.501667,10.9784245 C174.037398,10.9784245 172.82386,11.5403914 171.861053,12.65429 C170.898246,13.7681887 170.416842,15.2232815 170.416842,17.0195685 L170.416842,18.4846964 L170.497076,28.8810838 L165.442339,28.8810838 L165.56269,18.4846964 L165.572719,18.4846964 Z" id="Path"></path>
                    <path d="M192.090029,28.3191169 C191.057018,27.5464124 190.395088,26.532865 190.094211,25.2784747 C189.793333,24.0240843 189.662953,22.3983944 189.683012,20.3913698 L189.723129,11.0587055 L186.503743,11.1389865 L186.503743,7.265429 L189.683012,7.265429 L189.683012,0.541896638 L194.697632,0.541896638 L194.697632,7.265429 L201.05617,7.265429 L201.05617,11.1389865 L194.657515,11.0587055 L194.697632,20.9232313 C194.697632,22.528851 194.918275,23.6828901 195.369591,24.3853487 C195.820906,25.0878073 196.613216,25.4490718 197.75655,25.4490718 C198.709327,25.4490718 199.702222,25.2885098 200.725205,24.9573507 L201.617807,28.4997491 C199.99307,29.1520321 198.368333,29.4831912 196.773684,29.4831912 C194.677573,29.4831912 193.123041,29.0918214 192.090029,28.3191169 L192.090029,28.3191169 Z" id="Path"></path>
                    <path d="M204.34576,27.8173608 C203.122193,26.7034621 202.510409,25.228299 202.510409,23.3718013 C202.510409,20.8429503 203.503304,19.0466633 205.479064,17.9929754 C207.464854,16.9292524 210.573918,16.407426 214.806257,16.407426 L216.390877,16.407426 L216.390877,15.7952835 C216.390877,14.0792775 216.039854,12.7847466 215.347836,11.9016558 C214.655819,11.018565 213.522515,10.5770196 211.947924,10.5770196 C210.293099,10.5770196 209.079561,11.0787757 208.327368,12.082288 C207.565146,13.0858003 207.204094,14.2398394 207.224152,15.5444054 L202.991813,14.5709985 C203.072047,13.0456598 203.483246,11.7009533 204.235439,10.5168088 C204.977602,9.33266433 206.030673,8.40943302 207.394649,7.72704466 C208.748596,7.0446563 210.343246,6.70346212 212.158538,6.70346212 C215.197398,6.70346212 217.453977,7.43602609 218.918246,8.90115404 C220.382515,10.366282 221.114649,12.5037632 221.114649,15.3035625 L221.114649,23.7832413 C221.114649,24.4856999 221.224971,24.9974912 221.435585,25.2885098 C221.656228,25.5895635 222.057398,25.7400903 222.659152,25.7400903 C223.120497,25.7400903 223.551754,25.6497742 223.962953,25.4591069 L224.614854,28.7606623 C223.581842,29.141997 222.498684,29.3326643 221.355351,29.3326643 C220.101696,29.3326643 219.138889,29.0215755 218.446871,28.3993979 C217.754854,27.7772203 217.363713,26.8238836 217.28348,25.549423 C217.28348,25.2182639 217.313567,24.89714 217.363713,24.5760161 L217.28348,24.5760161 C216.601491,26.121425 215.598567,27.3356749 214.264678,28.1986954 C212.930789,29.061716 211.33614,29.5032614 209.460673,29.5032614 C207.264269,29.5032614 205.549269,28.9412945 204.325702,27.8273959 L204.34576,27.8173608 Z M208.237105,24.9874561 C208.818801,25.4892122 209.63117,25.7400903 210.664181,25.7400903 C211.616959,25.7400903 212.539649,25.4791771 213.432251,24.9673859 C214.324854,24.4555946 215.046959,23.7330657 215.588538,22.8098344 C216.130117,21.8866031 216.400906,20.8228801 216.400906,19.6287005 L216.400906,19.3075765 L215.42807,19.3075765 C212.549678,19.3075765 210.483655,19.5684897 209.240029,20.1003512 C207.986374,20.6322127 207.364561,21.5855494 207.364561,22.9703964 C207.364561,23.8133467 207.655409,24.4856999 208.237105,24.9874561 L208.237105,24.9874561 Z" id="Shape"></path>
                    <path d="M227.142222,26.5730055 C225.637836,24.6261917 224.885643,21.8163573 224.885643,18.1133969 C224.885643,14.4104365 225.637836,11.5604616 227.142222,9.61364777 C228.646608,7.66683392 230.772807,6.70346212 233.520819,6.70346212 C235.065322,6.70346212 236.419269,7.06472654 237.572632,7.78725539 C238.725994,8.50978424 239.588509,9.35273457 240.160175,10.3361766 L240.240409,10.3361766 L240.160175,0.592072253 L245.295146,0.592072253 L245.174795,16.1565479 L245.295146,28.8710487 L240.160175,28.8710487 L240.200292,25.8504767 L240.120058,25.8504767 C239.57848,26.8238836 238.725994,27.676869 237.572632,28.3993979 C236.419269,29.1219267 235.065322,29.4831912 233.520819,29.4831912 C230.782836,29.4831912 228.656637,28.5097842 227.142222,26.5730055 Z M231.254211,23.4721525 C232.136784,24.7064727 233.410497,25.3286503 235.065322,25.3286503 C236.479444,25.3286503 237.692982,24.7767185 238.705936,23.6527847 C239.728918,22.5388861 240.23038,20.6623181 240.23038,18.0331159 C240.23038,15.6648269 239.738947,13.878575 238.766111,12.6743603 C237.793275,11.4701455 236.549649,10.858003 235.055292,10.858003 C233.400468,10.858003 232.126754,11.4801806 231.244181,12.734571 C230.361608,13.9889614 229.920322,15.7752132 229.920322,18.1133969 C229.920322,20.4515805 230.361608,22.2378324 231.244181,23.4721525 L231.254211,23.4721525 Z" id="Shape"></path>
                    <path d="M253.127982,28.0983442 C251.543363,27.1751129 250.319795,25.8504767 249.457281,24.1244355 C248.604795,22.3983944 248.173538,20.3813347 248.173538,18.0732564 C248.173538,15.7651781 248.604795,13.7481184 249.457281,12.0421475 C250.309766,10.3261415 251.523304,9.01154039 253.097895,8.08830908 C254.672485,7.16507777 256.517865,6.70346212 258.634035,6.70346212 C260.750205,6.70346212 262.645731,7.16507777 264.230351,8.08830908 C265.814971,9.01154039 267.048567,10.3261415 267.921111,12.0421475 C268.793655,13.7581535 269.224912,15.7651781 269.224912,18.0732564 C269.224912,20.3813347 268.793655,22.3983944 267.921111,24.1244355 C267.048567,25.8504767 265.814971,27.1751129 264.210292,28.0983442 C262.605614,29.0215755 260.750205,29.4831912 258.634035,29.4831912 C256.517865,29.4831912 254.702573,29.0215755 253.117953,28.0983442 L253.127982,28.0983442 Z M254.672485,23.4520823 C255.635292,24.7265429 256.969181,25.3687908 258.684181,25.3687908 C260.399181,25.3687908 261.743099,24.7265429 262.715936,23.4520823 C263.698801,22.1776217 264.180205,20.3813347 264.180205,18.0732564 C264.180205,15.7651781 263.688772,14.0190667 262.715936,12.7546412 C261.743099,11.4902158 260.399181,10.858003 258.684181,10.858003 C256.969181,10.858003 255.635292,11.4902158 254.672485,12.7546412 C253.709678,14.0190667 253.228275,15.7952835 253.228275,18.0732564 C253.228275,20.3512293 253.709678,22.1776217 254.672485,23.4520823 Z" id="Shape"></path>
                    <path d="M272.243713,18.5248369 L272.123363,7.27546412 L277.178099,7.27546412 L277.057749,10.6171601 L277.137982,10.6171601 C277.56924,9.50326141 278.321433,8.56999498 279.374503,7.82739589 C280.437602,7.08479679 281.761462,6.70346212 283.36614,6.70346212 C283.907719,6.70346212 284.338977,6.75363773 284.669942,6.86402408 L284.669942,11.7109885 C283.987953,11.5504265 283.396228,11.4701455 282.874708,11.4701455 C280.99924,11.4701455 279.565058,12.0521826 278.582193,13.2062218 C277.589298,14.3602609 277.097865,16.0762669 277.097865,18.364275 L277.097865,19.2172604 L277.178099,28.8710487 L272.123363,28.8710487 L272.243713,18.5148018 L272.243713,18.5248369 Z" id="Path"></path>
                </g>
                <g id="Group">
                    <path d="M19.2059942,60 C8.61511696,60 0,51.3798294 0,40.7827396 L0,31.3697943 C0,29.9749122 1.13330409,28.8409433 2.52736842,28.8409433 C3.92143275,28.8409433 5.05473684,29.9749122 5.05473684,31.3697943 L5.05473684,40.7827396 C5.05473684,48.5900652 11.4032456,54.942298 19.2059942,54.942298 C27.0087427,54.942298 33.3572515,48.5900652 33.3572515,40.7827396 L33.3572515,31.3697943 C33.3572515,29.9749122 34.4905556,28.8409433 35.8846199,28.8409433 C37.2786842,28.8409433 38.4119883,29.9749122 38.4119883,31.3697943 L38.4119883,40.7827396 C38.4119883,51.3798294 29.7968713,60 19.2059942,60 L19.2059942,60 Z" id="Path" fill="url(#radialGradient-1)"></path>
                    <path d="M19.2059942,51.5704967 C13.0179532,51.5704967 7.98327485,46.532865 7.98327485,40.3411942 L7.98327485,2.52885098 C7.98327485,1.13396889 9.11657895,0 10.5106433,0 C11.9047076,0 13.0380117,1.13396889 13.0380117,2.52885098 L13.0380117,40.3411942 C13.0380117,43.7431009 15.8060819,46.5127948 19.2059942,46.5127948 C22.6059064,46.5127948 25.3739766,43.7431009 25.3739766,40.3411942 L25.3739766,24.89714 C25.3739766,23.5022579 26.5072807,22.368289 27.901345,22.368289 C29.2954094,22.368289 30.4287135,23.5022579 30.4287135,24.89714 L30.4287135,40.3411942 C30.4287135,46.532865 25.3940351,51.5704967 19.2059942,51.5704967 Z" id="Path" fill="url(#radialGradient-2)"></path>
                    <path d="M19.2059942,43.7330657 C17.8119298,43.7330657 16.6786257,42.5990968 16.6786257,41.2042148 L16.6786257,18.3040642 C16.6786257,16.9091821 17.8119298,15.7752132 19.2059942,15.7752132 C20.6000585,15.7752132 21.7333626,16.9091821 21.7333626,18.3040642 L21.7333626,41.2042148 C21.7333626,42.5990968 20.6000585,43.7330657 19.2059942,43.7330657 L19.2059942,43.7330657 Z" id="Path" fill="url(#radialGradient-3)"></path>
                </g>
            </g>
        </g>
    </g>
</svg>