<?xml version="1.0" encoding="UTF-8"?>
<svg width="50px" height="50px" viewBox="0 0 50 50" version="1.1" xmlns="http://www.w3.org/2000/svg" xmlns:xlink="http://www.w3.org/1999/xlink">
    <title>servicio-02</title>
    <defs>
        <linearGradient x1="-0.325030063%" y1="49.9300979%" x2="97.8178238%" y2="49.9300979%" id="linearGradient-1">
            <stop stop-color="#4E82E7" offset="0%"></stop>
            <stop stop-color="#6039E4" offset="48%"></stop>
            <stop stop-color="#771EE3" offset="100%"></stop>
        </linearGradient>
    </defs>
    <g id="02-CRYPTOCONTADOR" stroke="none" stroke-width="1" fill="none" fill-rule="evenodd">
        <g id="INTERNA-CRYPTO-CONTADOR" transform="translate(-550.000000, -2482.000000)" fill-rule="nonzero">
            <g id="servicio-02" transform="translate(550.000000, 2482.000000)">
                <rect id="Rectangle" x="0" y="0" width="50" height="50"></rect>
                <path d="M33.0617672,0 L34.0112967,0.159776313 C34.7351173,0.266833705 35.4525087,0.413516087 36.1602318,0.599161174 C37.0214726,0.858507036 37.8688329,1.16181471 38.6989737,1.50788896 L38.6989737,1.50788896 L39.0887805,1.65767925 C39.3248676,1.72786313 39.5229019,1.88974485 39.6385081,2.10705013 C39.6980074,2.24401089 39.6980074,2.39948821 39.6385081,2.53644897 C39.5862581,2.68497284 39.4737673,2.80461297 39.3286616,2.86598762 C39.0815923,2.92669801 38.8206493,2.89098468 38.5990232,2.76612742 C36.640027,1.7949914 34.4887547,1.27301142 32.3021437,1.23826643 L32.3021437,1.23826643 L31.9016341,1.24258282 C25.5278498,1.37091288 20.8037602,4.34351092 17.7293653,10.0758937 C15.3909877,14.3886147 15.2903951,19.5663126 17.4594991,23.966447 C17.5956531,24.4440455 18.0870269,24.7271042 18.5689493,24.6055522 C20.4815557,24.347185 22.4277507,24.5177497 24.266126,25.1048532 C24.5259972,25.1947274 24.7958635,25.3045736 25.0757248,25.4244058 C26.0618502,25.7780551 26.677362,26.7603336 26.5649868,27.8010785 L26.5649868,27.8010785 L26.5649868,31.7255842 C26.5392337,31.8938461 26.5817281,32.0654204 26.6830482,32.2022665 C26.7843683,32.3391126 26.9361422,32.429923 27.1047193,32.4545636 C31.3205271,33.8121769 35.9136303,33.3337077 39.7584486,31.136409 C43.6554822,28.8314266 46.4179926,25.0115363 47.3846694,20.5911724 C48.7040156,14.8991412 47.084818,9.83622928 42.7069875,5.55222688 L42.7069875,5.55222688 L42.5270766,5.38246455 L42.3171806,5.18274416 C42.1520883,5.07744029 42.0443827,4.90237289 42.0248931,4.70765253 C42.0054034,4.51293217 42.0762781,4.32002288 42.2172302,4.1841422 C42.3275526,4.06934329 42.4778847,4.00139731 42.6370221,3.99440783 L42.6370221,3.99440783 L42.7467572,4.01651826 C42.8894882,4.05756676 43.016212,4.14392373 43.1067893,4.26403036 L43.1067893,4.26403036 L43.8464228,5.04293988 C44.5965214,5.78411795 45.2882344,6.58204118 45.9153975,7.42959856 C50.4330001,13.8592539 49.9451534,22.5458218 44.735982,28.4301977 C40.1882357,33.6329139 34.3711184,35.4403835 27.4445509,33.7926902 L27.4445509,33.7926902 L26.8648382,33.652886 L26.5849769,33.5829838 L26.5849769,38.7157979 L26.7448976,38.7157979 L27.6244617,38.4761334 C28.2550724,38.2900095 28.8957961,38.1399755 29.5435107,38.0267625 C31.7957879,37.6237494 34.1149931,37.8306343 36.2601822,38.6259237 C36.6604568,38.7882065 37.0423995,38.9923947 37.3996176,39.2350709 C37.9113573,39.5653452 38.2054391,40.145346 38.1692362,40.7529459 L38.1692362,40.7529459 L38.1692362,47.0241662 C38.1814917,47.7700045 37.7551907,48.4538146 37.0797761,48.7717196 C35.9368163,49.3715105 34.6871343,49.7413265 33.4015988,49.8601957 L33.4015988,49.8601957 L33.0717623,49.9300979 L30.5330204,49.9300979 L30.2231739,49.8302377 C28.7511893,49.7530958 27.3203742,49.3177256 26.0552394,48.5620132 L26.0552394,48.5620132 L25.9452939,48.5620132 L25.0457397,48.8915518 C24.4060567,49.1312163 23.8063538,49.3509087 23.196656,49.5406431 C22.749955,49.6602004 22.2958658,49.7502691 21.8373296,49.8102656 L21.8373296,49.8102656 L21.2276317,49.9201118 L18.9087809,49.9201118 L18.8138279,49.9124241 L18.8138279,49.9124241 L18.718875,49.9201118 C17.2087384,49.8478082 15.7396009,49.4054074 14.4409949,48.6319153 L14.4409949,48.6319153 L14.3810246,48.6319153 C14.1111584,48.7317755 13.8512872,48.8316357 13.601411,48.9414819 C13.0861388,49.1635943 12.5589218,49.3569549 12.0221936,49.5206711 C11.4924561,49.6704614 10.9327335,49.7703215 10.3930009,49.8701817 L10.3930009,49.8701817 L9.68335262,50 L7.28454137,50 L6.52491781,49.8601957 C5.94933069,49.7701392 5.37883778,49.6501439 4.81576479,49.500699 C4.11888294,49.2784269 3.44853095,48.9803896 2.81675542,48.6119433 C2.26276848,48.283172 1.9476601,47.6651845 2.00715662,47.0241662 L2.00715662,47.0241662 L2.00715662,34.2820052 C1.97275284,33.5499037 2.36126416,32.8628598 3.00666131,32.5144797 C3.4082208,32.2813276 3.82965917,32.0841656 4.26603721,31.9253046 C4.39900374,31.8690412 4.54146265,31.8385418 4.68582918,31.8354304 C4.77922742,31.8341322 4.87163794,31.8546494 4.95569545,31.8953465 C5.09270475,31.961561 5.19204618,32.0865447 5.22556171,32.2348712 C5.31551713,32.4945077 5.30552209,32.7940883 4.66583909,33.0637108 C4.34599759,33.2035151 4.03615113,33.3732774 3.72630468,33.5330537 L3.72630468,33.5330537 L3.30651271,33.7527462 L3.22655234,33.7527462 L3.22655234,34.1022568 L3.28652262,34.1022568 C3.37700735,34.1563999 3.46381948,34.2164463 3.54639384,34.2820052 C3.76168205,34.4226443 3.99326193,34.5366531 4.23605207,34.6215299 C6.98520501,35.6849943 10.0326642,35.6849943 12.7818171,34.6215299 C13.0179799,34.5256473 13.2399234,34.3979771 13.4414902,34.2420611 C13.569965,34.1452894 13.7034143,34.0552925 13.8412921,33.9724386 L13.8412921,33.9724386 L14.0112079,33.8526064 L13.8312971,33.7527462 L13.38152,33.4731376 C13.1439751,33.2863136 12.8724307,33.1472728 12.5819162,33.0637108 C11.682362,32.8639904 10.7628177,32.7042141 9.87325851,32.5644098 L9.87325851,32.5644098 L9.13362504,32.4345916 C9.0138915,32.4246344 8.89353688,32.4246344 8.77380335,32.4345916 L8.77380335,32.4345916 L8.49394204,32.4345916 C8.33271534,32.4299064 8.18073148,32.3583231 8.07451806,32.237046 C7.96830463,32.1157689 7.91746555,31.9557638 7.93421941,31.7954863 C7.92693335,31.6360537 7.99070951,31.4815865 8.10838461,31.3736544 C8.22605971,31.2657224 8.38554393,31.2154144 8.54391727,31.2362692 L8.54391727,31.2362692 L8.55391232,31.2362692 C10.0983164,31.1910092 11.636609,31.4488561 13.0816686,31.9952067 L13.0816686,31.9952067 L13.3615299,32.0950669 L13.6713763,32.1949271 L13.6713763,28.5100859 C13.6666446,28.4435963 13.6666446,28.376855 13.6713763,28.3103655 C13.6813677,28.1607415 13.6813677,28.0106186 13.6713763,27.8609946 C13.4698902,26.6945352 14.2087522,25.5719551 15.3605392,25.2945876 L15.3605392,25.2945876 L16.0302074,25.0349511 L16.4400043,24.8851608 L16.4400043,24.7753146 C16.3300588,24.4557619 16.2101182,24.1362093 16.0801826,23.8266427 C15.8153262,23.1745385 15.5883939,22.5076932 15.4005194,21.8294388 C13.6413912,14.9790294 15.4804798,9.03734771 20.8278299,4.15418414 C23.4470723,1.79218621 26.7676289,0.35083718 30.2831442,0.0499300979 L30.2831442,0.0499300979 L30.5330204,0 L33.0617672,0 Z M25.325601,45.5861793 L25.1556852,45.6460955 C21.9383305,46.9694156 18.3280177,46.9694156 15.1106631,45.6460955 L15.1106631,45.6460955 L14.9507423,45.5861793 L14.9507423,46.3251448 C14.890772,47.5234671 14.9407473,47.5833833 16.3600439,48.1026563 C17.5263041,48.5245109 18.7579131,48.7374815 19.998241,48.7317755 C20.667996,48.7275128 21.3363838,48.6707511 21.9972504,48.5620132 C22.8086419,48.4060245 23.6046706,48.1787932 24.3760715,47.8829639 L24.3760715,47.8829639 L24.6759229,47.7831037 C24.9761927,47.6741575 25.2112295,47.4356639 25.3156059,47.1340124 C25.3529653,46.8190607 25.3563162,46.5010082 25.325601,46.1853405 L25.325601,46.1853405 L25.325601,45.5861793 Z M36.9698306,45.5861793 L36.7999148,45.6560815 C33.5967479,46.9635976 30.0080347,46.9635976 26.8048679,45.6560815 L26.8048679,45.6560815 L26.6449472,45.5861793 L26.6449472,46.2252846 C26.5449967,47.473537 26.5749818,47.5733972 28.0342587,48.1026563 C29.2009984,48.5227025 30.4322845,48.7356172 31.6724557,48.7317755 C32.3422296,48.7279264 33.0106498,48.671162 33.6714651,48.5620132 C34.4917767,48.3979882 35.29737,48.1675494 36.0802714,47.8729778 L36.0802714,47.8729778 L36.3501377,47.7831037 C36.6516448,47.6794724 36.8855711,47.4383378 36.9798256,47.1340124 L36.9798256,47.1340124 L36.9398454,47.1340124 C36.9931871,46.8240026 37.0032781,46.5081037 36.9698306,46.1953265 L36.9698306,46.1953265 L36.9698306,45.5861793 Z M13.7113565,45.5662073 L13.5414407,45.6361094 C10.3186822,46.9670991 6.699187,46.9670991 3.47642851,45.6361094 L3.47642851,45.6361094 L3.30651271,45.5761933 L3.30651271,45.7459557 C3.20656224,47.443579 3.33649785,47.6632714 4.72580937,48.1226283 C5.91506864,48.5187293 7.16038013,48.7210361 8.41398166,48.7218029 C9.05703322,48.7227767 9.69901233,48.6693267 10.3330307,48.5620132 C11.2072715,48.3918884 12.0638465,48.1411653 12.8917627,47.8130617 L12.8917627,47.8130617 L13.0916636,47.7431596 C13.3854133,47.6080544 13.6022016,47.3474092 13.6813714,47.0341522 C13.7316352,46.7406271 13.7417226,46.441637 13.7113565,46.1453964 L13.7113565,46.1453964 L13.7113565,45.5662073 Z M36.9098603,42.2708209 L36.7399445,42.340723 C35.1592158,43.0090511 33.4588369,43.3488197 31.7424211,43.3393249 L31.7424211,43.3393249 L31.3136749,43.3347544 C29.7432631,43.2912929 28.1935184,42.9545902 26.7448976,42.340723 L26.7448976,42.340723 L26.5849769,42.2708209 L26.5849769,42.840024 C26.5350016,44.1481925 26.5350016,44.2580387 27.9742884,44.8172558 C29.1573915,45.2408518 30.4057045,45.4537859 31.6624607,45.4463751 C32.3687264,45.4430434 33.0737261,45.3862938 33.7714156,45.2766127 C34.5588435,45.1157987 35.3312229,44.8886369 36.0802714,44.5975634 L36.0802714,44.5975634 L36.3501377,44.5076892 C36.6516448,44.404058 36.8855711,44.1629234 36.9798256,43.858598 C37.0295322,43.5275829 37.0295322,43.191011 36.9798256,42.859996 C36.9798256,42.7201917 36.9698306,42.5803875 36.9098603,42.4605552 L36.9098603,42.4605552 L36.9098603,42.2708209 Z M25.3056109,42.2907929 L25.1356951,42.350709 C21.9105595,43.634123 18.3158086,43.634123 15.090673,42.350709 L15.090673,42.350709 L14.9307522,42.2907929 L14.9307522,43.0297583 C14.8707819,44.1981226 14.9307522,44.2780108 16.3100687,44.7773118 C17.4894057,45.2031584 18.7342523,45.419458 19.9882459,45.416417 C20.732747,45.4145615 21.4755027,45.3443642 22.2071463,45.2067106 C23.0597074,45.0361577 23.8933374,44.7819462 24.695913,44.4477731 C25.0018269,44.3053062 25.2287812,44.03467 25.3156059,43.7088077 C25.3554506,43.4303481 25.3520793,43.147415 25.3056109,42.869982 L25.3056109,42.869982 L25.3056109,42.2907929 Z M3.44644337,42.3207509 L3.29651767,42.3207509 L3.29651767,42.9898143 C3.21655729,44.1581786 3.24654243,44.2580387 4.64584899,44.7673257 C5.83044736,45.2005036 7.08257238,45.4202728 8.34401634,45.416417 C9.06429001,45.4114431 9.78296761,45.3479894 10.4929514,45.2266826 C11.3755988,45.0505122 12.2391739,44.7896671 13.0716735,44.4477731 C13.3765695,44.2964894 13.599513,44.0189747 13.6813714,43.6888356 C13.7204255,43.4170092 13.7170537,43.1407761 13.6713763,42.869982 L13.6713763,42.869982 L13.6713763,42.3207509 L13.5114556,42.3207509 C9.22358046,43.5889754 8.09414016,43.5889754 3.44644337,42.3207509 L3.44644337,42.3207509 Z M35.990316,39.784302 C33.2889098,38.7607123 30.3058778,38.7607123 27.6044717,39.784302 C27.3636443,39.8868945 27.1435023,40.0323954 26.9547936,40.2137008 L26.9547936,40.2137008 L26.6849273,40.4333932 L26.4650363,40.5332534 L26.604967,40.6331136 L26.8748332,40.8528061 C27.0683925,41.0432488 27.291072,41.2016804 27.5345063,41.322149 C28.8542336,41.8555948 30.2691808,42.1138613 31.6924458,42.0810865 C33.1705862,42.1218199 34.6419831,41.8671891 36.0203011,41.332135 C36.2493141,41.2100509 36.4638854,41.0626663 36.6599841,40.8927501 C36.7455459,40.81738 36.8356719,40.7473453 36.9298504,40.6830437 L36.9298504,40.6830437 L37.059786,40.5831835 L36.9298504,40.4833233 L36.6599841,40.2536449 C36.4673567,40.057611 36.2403799,39.8985323 35.990316,39.784302 Z M3.30651271,38.9454763 L3.30651271,39.8342321 C3.30651271,40.7829039 3.43644832,40.9626523 4.3060174,41.322149 L4.3060174,41.322149 L4.63585395,41.4519672 C5.85818331,41.8707774 7.14176319,42.0833892 8.43397176,42.081105 C9.19835803,42.079717 9.96106586,42.0095311 10.7128424,41.8713801 C11.5448267,41.6918944 12.358023,41.4344476 13.1416388,41.1024566 C13.4312001,40.9595 13.6431986,40.6965671 13.7213516,40.3834632 C13.7565856,40.0982795 13.7565856,39.8098492 13.7213516,39.5246655 C13.7213516,39.3948472 13.7113565,39.265029 13.7313466,39.1352107 L13.7313466,39.1352107 L13.7313466,38.9554624 L13.5614308,39.0153785 C10.3223735,40.2982349 6.71548586,40.2982349 3.47642851,39.0153785 L3.47642851,39.0153785 L3.30651271,38.9454763 Z M25.2656307,38.9354903 L25.0957149,39.0053925 C21.8843613,40.270577 18.3120217,40.270577 15.100668,39.0053925 L15.100668,39.0053925 L14.9407473,38.9454763 L14.9407473,39.5745956 C14.8607869,40.7629319 14.890772,40.8927501 16.2500984,41.3920511 C17.4482881,41.8262051 18.7137004,42.0459311 19.9882459,42.0411424 C20.7592425,42.0395208 21.5285647,41.9693418 22.2871067,41.831436 C23.0765285,41.6650607 23.8492889,41.4277601 24.5959625,41.1224286 L24.5959625,41.1224286 L24.7159031,41.1224286 C25.010571,41.0068714 25.2330296,40.7586836 25.3156059,40.4533653 C25.3561218,40.1518084 25.3561218,39.8461944 25.3156059,39.5446375 L25.3156059,39.5446375 L25.3555861,39.5446375 C25.3555861,39.4148193 25.3455911,39.275015 25.2656307,39.1152387 L25.2656307,39.1152387 L25.2656307,38.9354903 Z M13.7013615,35.6500899 L13.5314457,35.719992 C10.3057517,37.0184158 6.70212245,37.0184158 3.47642851,35.719992 L3.47642851,35.719992 L3.31650776,35.6600759 L3.31650776,35.8298382 C3.18657215,37.4675454 3.35648795,37.737168 4.86574002,38.246455 C6.00133785,38.6182998 7.1889655,38.8070699 8.38399652,38.8056798 C8.9222116,38.8038922 9.45974315,38.7671996 9.99319907,38.6958258 C10.903334,38.5301088 11.7989936,38.2930402 12.6718716,37.9868185 L12.6718716,37.9868185 L13.0616785,37.8570002 C13.3699849,37.7383675 13.6061049,37.4840305 13.7013615,37.1679648 C13.7418773,36.8664079 13.7418773,36.560794 13.7013615,36.2592371 L13.7013615,36.2592371 L13.7013615,35.6500899 Z M25.3056109,35.6201318 L25.1356951,35.690034 C21.9256814,36.9622434 18.3506619,36.9622434 15.1406482,35.690034 L15.1406482,35.690034 L14.9807275,35.6301178 L14.9807275,36.3191532 C14.9007671,37.5674056 14.9507423,37.6373078 16.4599944,38.2164969 L16.4599944,38.2164969 L16.8895336,38.3470903 C17.8970302,38.6318009 18.9397883,38.7762373 19.9882459,38.775714 C20.5233079,38.7788959 21.0578615,38.7421785 21.5874534,38.6658678 C22.5268845,38.49612 23.4498661,38.2455363 24.3460864,37.9169163 L24.3460864,37.9169163 L24.7358932,37.7870981 C25.0277458,37.6419882 25.2400956,37.3749617 25.3156059,37.0581186 L25.3156059,37.0581186 L25.325601,37.0581186 C25.3557125,36.7755085 25.348993,36.4901894 25.3056109,36.209307 L25.3056109,36.209307 L25.3056109,35.6201318 Z M25.2956158,32.1949271 L25.1257,32.2648292 C21.8974761,33.5680249 18.2889118,33.5680249 15.0606878,32.2648292 L15.0606878,32.2648292 L14.890772,32.2049131 L14.890772,33.0637108 C14.890772,34.1322149 14.9907225,34.2720192 15.9902272,34.67146 L15.9902272,34.67146 L16.2800835,34.7713202 C17.4820232,35.186748 18.746461,35.3927936 20.0182311,35.3804673 C20.3980429,35.3804673 20.7978447,35.3305372 21.1976466,35.3305372 C22.3728615,35.2712489 23.5245853,34.9793351 24.5859675,34.4717396 C24.7758734,34.3818654 25.1956654,34.1322149 25.2656307,33.8226483 C25.3212446,33.4928709 25.3380172,33.1577215 25.3156059,32.8240463 L25.3156059,32.8240463 L25.3555861,32.8240463 C25.3455911,32.6842421 25.335596,32.5344518 25.2956158,32.3846615 L25.2956158,32.3846615 L25.2956158,32.1949271 Z M25.2656307,28.9494707 L25.0957149,29.0193729 C21.8857012,30.2915823 18.3106817,30.2915823 15.100668,29.0193729 L15.100668,29.0193729 L14.9407473,28.9594568 L14.9407473,29.6185341 C14.8607869,30.8068704 14.890772,30.9067306 16.380034,31.4359896 C17.5319401,31.8455906 18.7455687,32.0549973 19.9682558,32.055123 C20.5980157,32.0552434 21.2266424,32.0017916 21.8473247,31.8953465 C22.7465094,31.7207163 23.6292404,31.470167 24.486017,31.146395 L24.486017,31.146395 L24.7059081,31.0764929 C25.005536,30.9438117 25.2294595,30.6834148 25.3156059,30.3674855 C25.3612182,30.0729861 25.3612182,29.7732292 25.3156059,29.4787298 L25.3156059,29.4787298 L25.3555861,29.4787298 C25.3555861,29.3489115 25.3455911,29.2190933 25.2656307,29.1292191 L25.2656307,29.1292191 L25.2656307,28.9494707 Z M24.256131,26.4230078 C21.5449071,25.4133681 18.5568031,25.4346924 15.8602916,26.4829239 C15.6286413,26.5816528 15.4103632,26.7091462 15.2106135,26.8623927 C15.090673,26.9422808 14.9707324,27.032155 14.8308018,27.1120431 L14.8308018,27.1120431 L14.660886,27.2218894 L14.8308018,27.3317356 L15.2106135,27.5813861 C15.4103632,27.7346325 15.6286413,27.8621259 15.8602916,27.9608548 C17.2238567,28.4758666 18.670445,28.7364912 20.1281766,28.7297783 C21.6019688,28.7202589 23.0617175,28.4427849 24.4360418,27.9109247 C24.6626367,27.8144195 24.8745905,27.6866899 25.0657297,27.531456 L25.0657297,27.531456 L25.4455415,27.2718195 L25.6154573,27.2019173 L25.4455415,27.0920711 C25.2856208,27.0021969 25.1356951,26.9123227 25.0057595,26.8224486 C24.7711544,26.6624807 24.5197933,26.5285426 24.256131,26.4230078 Z M36.7299494,17.835031 C37.5468496,17.8496159 38.3001482,18.2786084 38.7289588,18.9734372 C39.1328507,19.6371149 39.3343083,20.4040446 39.3086715,21.1803475 C39.3173304,22.0073985 39.018108,22.8081632 38.4690876,23.4272019 C38.0299516,23.9740812 37.3715357,24.2993372 36.6699792,24.3159577 L36.6699792,24.3159577 L36.4877586,24.3076536 C35.8237784,24.251861 35.2102371,23.919594 34.8009054,23.3872578 C33.7961445,22.0447572 33.7639358,20.2105195 34.720945,18.8336329 C35.1739517,18.2144053 35.8923495,17.8444316 36.6599841,17.835031 L36.6599841,17.835031 Z M36.2901674,10.1058518 C36.3671606,10.1082688 36.4424976,10.1287967 36.5100584,10.1657679 C36.6611664,10.2604342 36.7933467,10.3823367 36.8998652,10.5252646 L36.8998652,10.5252646 L37.0198058,10.6750549 C36.9898207,10.7449571 36.9198553,10.8048732 36.9198553,10.8647893 C36.8658249,10.9975161 36.7988695,11.1246165 36.7199544,11.244258 C33.8680344,15.4583583 31.0127826,19.6691299 28.1541992,23.8765728 C28.0378249,24.0871181 27.8384134,24.2392585 27.6044717,24.2959856 C27.4472149,24.3378534 27.2794024,24.3005954 27.1546945,24.1961254 C26.7848778,23.9065309 26.9447986,23.4971041 27.1546945,23.1975235 L27.1546945,23.1975235 L35.7404398,10.5252646 C35.9303457,10.2456561 36.1102565,10.1058518 36.2901674,10.1058518 Z M36.7099593,18.9734372 L36.5715635,18.9882751 C36.2982969,19.0342892 36.0488074,19.1770204 35.8703754,19.39285 C35.1477399,20.3732805 35.1848127,21.7190443 35.9603308,22.6582784 C36.179049,22.9198795 36.4989245,23.0760411 36.839895,23.0876773 L36.839895,23.0876773 L36.957003,23.0712854 C37.2260759,23.0172447 37.4631047,22.8543538 37.6095136,22.6183343 C37.8159981,22.3084268 37.9806705,21.9726643 38.0992709,21.6197324 C38.1592411,21.4699421 38.2192114,21.3101658 38.2891768,21.1603755 L38.2891768,21.1603755 L38.2891768,21.0405432 L38.119261,20.9706411 C38.136054,20.3868392 37.9286363,19.8187424 37.5395482,19.382864 C37.335895,19.1321942 37.032973,18.9826932 36.7099593,18.9734372 L36.7099593,18.9734372 Z M27.0847292,10.1258238 C27.8151591,10.1395586 28.4995138,10.4851029 28.9438079,11.0645097 C29.9834907,12.426951 29.9834907,14.3156094 28.9438079,15.6780507 L28.9438079,15.6780507 L28.8281352,15.8190508 C28.386471,16.3179737 27.7564129,16.615754 27.0847292,16.6367086 L27.0847292,16.6367086 L27.0247589,16.6367086 C26.2482807,16.5997665 25.5373725,16.1907127 25.115705,15.5382465 C24.6862443,14.9017497 24.4629372,14.1487691 24.476022,13.3812662 C24.4613935,12.5750699 24.7028348,11.7849764 25.1656802,11.1244258 C25.5997456,10.5196997 26.2903438,10.1507294 27.034754,10.1258238 L27.034754,10.1258238 Z M27.1546945,11.3241462 C26.8039694,11.3140075 26.4669358,11.4604115 26.2351502,11.723587 C25.4472069,12.6922601 25.4472069,14.0802584 26.2351502,15.0489315 C26.4521375,15.2894239 26.7606562,15.4272253 27.0847292,15.4284002 L27.0847292,15.4284002 L27.1546945,15.4284002 C27.4567423,15.3985802 27.7288637,15.2332504 27.894328,14.9790294 C28.107763,14.6402841 28.2821211,14.2784828 28.4140704,13.9005392 C28.4840358,13.7307769 28.5440061,13.5610146 28.6239664,13.3912522 L28.6239664,13.3912522 L28.6239664,13.281406 C28.5440061,13.1116437 28.4740407,12.9418814 28.4040754,12.772119 C28.2734034,12.4224889 28.1058768,12.0877383 27.9043231,11.7735171 C27.7367363,11.5167024 27.4603649,11.3510294 27.1546945,11.3241462 Z" id="Combined-Shape" fill="url(#linearGradient-1)"></path>
            </g>
        </g>
    </g>
</svg>