<?xml version="1.0" encoding="UTF-8"?>
<svg width="51px" height="51px" viewBox="0 0 51 51" version="1.1" xmlns="http://www.w3.org/2000/svg" xmlns:xlink="http://www.w3.org/1999/xlink">
    <title>servicio-01</title>
    <defs>
        <linearGradient x1="-363.062816%" y1="50.3270375%" x2="466.280133%" y2="50.3270375%" id="linearGradient-1">
            <stop stop-color="#4E82E7" offset="0%"></stop>
            <stop stop-color="#6039E4" offset="48%"></stop>
            <stop stop-color="#771EE3" offset="100%"></stop>
        </linearGradient>
        <linearGradient x1="-129.753324%" y1="50.0288196%" x2="230.785922%" y2="50.0288196%" id="linearGradient-2">
            <stop stop-color="#4E82E7" offset="0%"></stop>
            <stop stop-color="#6039E4" offset="48%"></stop>
            <stop stop-color="#771EE3" offset="100%"></stop>
        </linearGradient>
        <linearGradient x1="-258.594005%" y1="49.991907%" x2="103.004798%" y2="49.991907%" id="linearGradient-3">
            <stop stop-color="#4E82E7" offset="0%"></stop>
            <stop stop-color="#6039E4" offset="48%"></stop>
            <stop stop-color="#771EE3" offset="100%"></stop>
        </linearGradient>
        <linearGradient x1="-866.573058%" y1="49.5307789%" x2="206.577516%" y2="49.5307789%" id="linearGradient-4">
            <stop stop-color="#4E82E7" offset="0%"></stop>
            <stop stop-color="#6039E4" offset="48%"></stop>
            <stop stop-color="#771EE3" offset="100%"></stop>
        </linearGradient>
        <linearGradient x1="-1.35414719%" y1="49.973581%" x2="359.807749%" y2="49.973581%" id="linearGradient-5">
            <stop stop-color="#4E82E7" offset="0%"></stop>
            <stop stop-color="#6039E4" offset="48%"></stop>
            <stop stop-color="#771EE3" offset="100%"></stop>
        </linearGradient>
        <linearGradient x1="-53.612352%" y1="49.8895285%" x2="708.707102%" y2="49.8895285%" id="linearGradient-6">
            <stop stop-color="#4E82E7" offset="0%"></stop>
            <stop stop-color="#6039E4" offset="48%"></stop>
            <stop stop-color="#771EE3" offset="100%"></stop>
        </linearGradient>
    </defs>
    <g id="02-CRYPTOCONTADOR" stroke="none" stroke-width="1" fill="none" fill-rule="evenodd">
        <g id="INTERNA-CRYPTO-CONTADOR" transform="translate(-134.000000, -2480.000000)" fill-rule="nonzero">
            <g id="servicio-01" transform="translate(134.000000, 2480.000000)">
                <rect id="Rectangle" x="0.0202044231" y="0" width="50" height="50"></rect>
                <path d="M27.4902044,14.08 L27.6002044,13.9 L27.6802044,13.77 C28.1087016,13.2541698 28.1799873,12.5294315 27.8602044,11.94 C27.5667751,11.3264356 26.9287614,10.9539308 26.2502044,11 L25.3802044,11 L25.3802044,10.1 C25.4003959,9.90438705 25.2717923,9.72434196 25.0802044,9.68 L25.0202044,9.68 C24.7202044,9.68 24.6502044,9.92 24.6402044,10.12 L24.6402044,11 L22.5302044,11 C22.0402044,11 21.9702044,11.07 21.9702044,11.56 L21.9702044,16.46 C21.9702044,16.99 22.0402044,17.06 22.6002044,17.06 L24.6502044,17.06 L24.6502044,17.73 C24.6261607,17.9338455 24.675818,18.1395687 24.7902044,18.31 C24.8524427,18.366735 24.936912,18.392443 25.0202044,18.38 C25.1502044,18.38 25.3902044,18.38 25.3902044,17.74 L25.3902044,17.02 L25.7202044,17.02 C26.7702044,17.1 27.3802044,16.88 27.7802044,16.26 C28.2251628,15.6124369 28.1585484,14.7422864 27.6202044,14.17 L27.4902044,14.08 Z M22.7102044,11.8 L23.0402044,11.75 L26.4402044,11.75 C26.9093423,11.8506417 27.2408781,12.2703072 27.2302044,12.75 C27.1718634,13.2364453 26.7696851,13.6089895 26.2802044,13.63 L22.7102044,13.63 L22.7102044,11.8 Z M27.0202044,16.1 C26.8160418,16.2766003 26.5491537,16.3631586 26.2802044,16.34 L22.7402044,16.34 L22.7402044,14.44 L23.1402044,14.44 L26.2502044,14.44 C26.5489291,14.4309497 26.8394437,14.5385477 27.0602044,14.74 C27.233149,14.9194708 27.3268184,15.1608497 27.3202044,15.41 C27.3138424,15.6702842 27.2062162,15.9178244 27.0202044,16.1 Z" id="Shape" fill="url(#linearGradient-1)"></path>
                <path d="M24.0202044,7 C21.6356765,7.34681211 19.5971519,8.89567875 18.6239835,11.1000371 C17.6508152,13.3043954 17.8798266,15.8543217 19.2302044,17.85 C19.4221132,18.1485538 19.5260803,18.4951108 19.5302044,18.85 C19.5302044,21.15 19.5302044,23.45 19.5302044,25.75 L19.5302044,49.11 C19.5302044,49.92 19.6102044,50 20.4402044,50 L29.6002044,50 C30.4402044,50 30.5102044,49.93 30.5102044,49.11 C30.5102044,44.52 30.5102044,23.52 30.5102044,18.93 C30.5063535,18.5321534 30.6212508,18.1421989 30.8402044,17.81 C32.4509506,15.5296573 32.4788418,12.4895114 30.9102044,10.18 C29.5092588,7.77824076 26.7567908,6.50787091 24.0202044,7 Z M29.4502044,48.92 L20.5702044,48.92 L20.5702044,19.4 C23.1676,21.4289756 26.8128089,21.4289756 29.4102044,19.4 L29.4502044,48.92 Z M25.0202044,19.9 C21.7064959,19.9 19.0202044,17.2137085 19.0202044,13.9 C19.0202044,10.5862915 21.7064959,7.9 25.0202044,7.9 C28.3339129,7.9 31.0202044,10.5862915 31.0202044,13.9 C31.0202044,15.4912989 30.3880634,17.0174224 29.2628451,18.1426407 C28.1376268,19.267859 26.6115034,19.9 25.0202044,19.9 L25.0202044,19.9 Z" id="Shape" fill="url(#linearGradient-2)"></path>
                <path d="M49.9002044,5.77 C49.3938591,2.95311427 47.2237022,0.728202392 44.4203051,0.151838184 C41.616908,-0.424526025 38.7450137,0.763765692 37.1684372,3.15241327 C35.5918607,5.54106084 35.6282025,8.64887253 37.2602044,11 C37.4130467,11.247115 37.4991843,11.5296466 37.5102044,11.82 C37.5102044,15.2866667 37.5102044,18.7566667 37.5102044,22.23 L37.5102044,49.15 C37.5102044,49.9 37.6102044,50 38.3602044,50 L47.5602044,50 C48.4402044,50 48.4802044,50 48.4802044,49.08 C48.4802044,42.17 48.4802044,18.86 48.4802044,11.95 C48.4894271,11.5944711 48.5967079,11.248404 48.7902044,10.95 C49.8245165,9.4354218 50.2230912,7.57540653 49.9002044,5.77 L49.9002044,5.77 Z M47.4402044,48.92 L38.5802044,48.92 L38.5802044,12.48 C41.1764185,14.5339643 44.8439904,14.5339643 47.4402044,12.48 L47.4402044,48.92 Z M43.0202044,13 C39.7064959,13 37.0202044,10.3137085 37.0202044,7 C37.0202044,3.6862915 39.7064959,1 43.0202044,1 C46.3339129,1 49.0202044,3.6862915 49.0202044,7 C49.0202044,8.59129894 48.3880634,10.1174224 47.2628451,11.2426407 C46.1376268,12.367859 44.6115034,13 43.0202044,13 Z" id="Shape" fill="url(#linearGradient-3)"></path>
                <path d="M44.3402044,5.06 C44.3402044,5.45 44.5402044,5.72 44.9602044,5.65 C45.3802044,5.58 45.4102044,5.23 45.3502044,4.86 C45.2058846,3.88216992 44.4814026,3.0903863 43.5202044,2.86 C43.560663,2.63513874 43.560663,2.40486126 43.5202044,2.18 C43.4302044,1.98 43.2002044,1.7 43.0302044,1.7 C42.8602044,1.7 42.6602044,1.97 42.5202044,2.16 C42.3802044,2.35 42.5202044,2.45 42.5202044,2.57 C42.5202044,2.69 42.3702044,2.92 42.2302044,2.97 C41.2913401,3.30966203 40.6750799,4.21189919 40.7002044,5.21 C40.6804315,6.20793424 41.3065648,7.10471866 42.2502044,7.43 C42.3826816,7.49203481 42.481348,7.60897276 42.5202044,7.75 C42.5202044,8.51 42.5202044,9.27 42.5202044,10.06 C41.9602044,9.8 41.8402044,9.65 41.7102044,8.96 C41.6502044,8.62 41.5102044,8.37 41.1502044,8.41 C40.7902044,8.45 40.6602044,8.75 40.6902044,9.1 C40.7273794,9.99453711 41.2936462,10.7810188 42.1302044,11.1 C42.4083963,11.164515 42.5825055,11.4413039 42.5202044,11.72 C42.5202044,12.1 42.5902044,12.46 43.0602044,12.44 C43.5302044,12.42 43.6002044,12.09 43.5502044,11.73 C43.5002044,11.37 43.6702044,11.23 43.9902044,11.09 C44.9973946,10.6653546 45.5690902,9.59290379 45.3602044,8.52 C45.1981112,7.58810793 44.5058652,6.83719699 43.5902044,6.6 L43.5902044,4 C44.0114014,4.19423667 44.2972042,4.59817124 44.3402044,5.06 Z M42.4702044,6.32 C42.0305672,6.17921136 41.7239587,5.78101853 41.7002044,5.32 C41.6303101,4.75680203 41.9455556,4.21638115 42.4702044,4 L42.4702044,6.32 Z M43.5702044,7.67 C44.0407581,7.88134603 44.3434782,8.34916287 44.3434782,8.865 C44.3434782,9.38083713 44.0407581,9.84865397 43.5702044,10.06 L43.5702044,7.67 Z" id="Shape" fill="url(#linearGradient-4)"></path>
                <path d="M8.66020442,12.57 C5.85615704,11.8854262 2.91941937,12.9921724 1.26462132,15.3571177 C-0.390176724,17.7220631 -0.423698123,20.8602459 1.18020442,23.26 C1.38691019,23.5940913 1.50082086,23.9772454 1.51020442,24.37 C1.51020442,27.13 1.51020442,46.28 1.51020442,49.03 C1.51020442,49.94 1.57020442,50.03 2.45020442,50.03 L11.7102044,50.03 C12.3702044,50.03 12.5002044,49.9 12.5002044,49.22 C12.5002044,46.36 12.5002044,27.11 12.5002044,24.22 C12.5086399,23.9138299 12.6021288,23.6160506 12.7702044,23.36 C14.084463,21.4626201 14.3789354,19.0393279 13.5573457,16.882405 C12.7357559,14.725482 10.9037174,13.1121954 8.66020442,12.57 L8.66020442,12.57 Z M11.4502044,48.93 L2.57020442,48.93 L2.57020442,24.85 C5.1753042,26.8998826 8.84510464,26.8998826 11.4502044,24.85 L11.4502044,48.93 Z M7.02020442,25.36 C4.74442615,25.5884354 2.53672739,24.5031327 1.32771454,22.5615773 C0.118701678,20.6200219 0.118701678,18.1599781 1.32771454,16.2184227 C2.53672739,14.2768673 4.74442615,13.1915646 7.02020442,13.42 C10.086448,13.7277797 12.4209549,16.3083482 12.4209549,19.39 C12.4209549,22.4716518 10.086448,25.0522203 7.02020442,25.36 Z" id="Shape" fill="url(#linearGradient-5)"></path>
                <path d="M9.59020442,22.22 C9.00425908,22.5799059 8.33702769,22.7862661 7.65020442,22.82 C6.46458755,22.8555003 5.46050423,21.952706 5.37020442,20.77 L8.73020442,20.77 C8.90020442,20.77 8.97020442,20.66 8.97020442,20.41 L8.97020442,20.32 C8.97020442,20.07 8.90020442,19.96 8.73020442,19.96 L5.28020442,19.96 C5.26984366,19.776813 5.26984366,19.593187 5.28020442,19.41 C5.2698628,19.2201407 5.2698628,19.0298593 5.28020442,18.84 L8.73020442,18.84 C8.90020442,18.84 8.97020442,18.73 8.97020442,18.48 L8.97020442,18.39 C8.97020442,18.14 8.90020442,18.03 8.73020442,18.03 L5.37020442,18.03 C5.4081552,17.4418947 5.68259482,16.8942094 6.13097598,16.5117666 C6.57935713,16.1293239 7.16347525,15.9447099 7.75020442,16 C8.34840619,16.0181156 8.92990151,16.2015635 9.43020442,16.53 C9.59020442,16.53 9.84020442,16.07 9.84020442,15.88 C9.84020442,15.69 8.84020442,15.13 7.78020442,15.13 C6.03367593,14.9841007 4.48945859,16.2576363 4.30020442,18 L3.61020442,18 C3.44020442,18 3.37020442,18.11 3.37020442,18.36 L3.37020442,18.45 C3.37020442,18.7 3.44020442,18.81 3.61020442,18.81 L4.20020442,18.81 C4.20020442,18.99 4.20020442,19.17 4.20020442,19.36 C4.20020442,19.55 4.20020442,19.75 4.20020442,19.93 L3.61020442,19.93 C3.44020442,19.93 3.37020442,20.04 3.37020442,20.29 L3.37020442,20.38 C3.37020442,20.63 3.44020442,20.74 3.61020442,20.74 L4.27020442,20.74 C4.32227335,21.5974681 4.72447645,22.3958472 5.3825513,22.948025 C6.04062615,23.5002027 6.89672368,23.7576391 7.75020442,23.66 C9.02020442,23.66 10.0102044,23.12 10.0102044,22.79 C10.0202044,22.69 9.74020442,22.22 9.59020442,22.22 Z" id="Path" fill="url(#linearGradient-6)"></path>
            </g>
        </g>
    </g>
</svg>