<?xml version="1.0" encoding="UTF-8"?>
<svg width="51px" height="51px" viewBox="0 0 51 51" version="1.1" xmlns="http://www.w3.org/2000/svg" xmlns:xlink="http://www.w3.org/1999/xlink">
    <title>servicio-05</title>
    <defs>
        <linearGradient x1="0%" y1="49.9903096%" x2="99.5404595%" y2="49.9903096%" id="linearGradient-1">
            <stop stop-color="#4E82E7" offset="0%"></stop>
            <stop stop-color="#6039E4" offset="48%"></stop>
            <stop stop-color="#771EE3" offset="100%"></stop>
        </linearGradient>
        <linearGradient x1="-66.8106649%" y1="50.4463994%" x2="173.516325%" y2="50.4463994%" id="linearGradient-2">
            <stop stop-color="#4E82E7" offset="0%"></stop>
            <stop stop-color="#6039E4" offset="48%"></stop>
            <stop stop-color="#771EE3" offset="100%"></stop>
        </linearGradient>
        <linearGradient x1="-66.8125703%" y1="51.7098937%" x2="173.536196%" y2="51.7098937%" id="linearGradient-3">
            <stop stop-color="#4E82E7" offset="0%"></stop>
            <stop stop-color="#6039E4" offset="48%"></stop>
            <stop stop-color="#771EE3" offset="100%"></stop>
        </linearGradient>
        <linearGradient x1="-168.474253%" y1="49.9547092%" x2="280.70037%" y2="49.9547092%" id="linearGradient-4">
            <stop stop-color="#4E82E7" offset="0%"></stop>
            <stop stop-color="#6039E4" offset="48%"></stop>
            <stop stop-color="#771EE3" offset="100%"></stop>
        </linearGradient>
    </defs>
    <g id="02-CRYPTOCONTADOR" stroke="none" stroke-width="1" fill="none" fill-rule="evenodd">
        <g id="INTERNA-CRYPTO-CONTADOR" transform="translate(-550.000000, -2648.000000)" fill-rule="nonzero">
            <g id="servicio-05" transform="translate(550.000000, 2648.000000)">
                <rect id="Rectangle" x="0" y="0.00453785525" width="50" height="50"></rect>
                <path d="M50,5.29453786 C50.0600445,3.87398504 49.5220138,2.49328291 48.5166344,1.48790347 C47.5112549,0.482524025 46.1305528,-0.0555066462 44.71,0.00453785525 L12.46,0.00453785525 C11.9890636,-0.000581254562 11.5191623,0.0497653193 11.06,0.154537855 C8.84458878,0.701304903 7.314077,2.72391584 7.39,5.00453786 C7.33,12.4845379 7.28,22.3745379 7.22,29.8545379 L7.22,38.7245379 L0.9,38.7245379 C0.42,38.7245379 0.17,38.8345379 0,39.1345379 L0,44.0545379 C0.0414231984,44.1297761 0.0717375059,44.2106143 0.09,44.2945379 C0.551038511,47.5854143 3.37705927,50.0266516 6.7,50.0045379 C12.49,50.0045379 18.37,50.0045379 24.04,50.0045379 L33.46,50.0045379 C34.6722798,50.0781045 35.884881,49.865728 37,49.3845379 C39.4839311,48.255907 41.031858,45.7301335 40.91,43.0045379 L40.91,13.0045379 L49.05,13.0045379 C49.85,13.0045379 50.05,12.8545379 50.05,12.0045379 L50.05,5.29453786 L50,5.29453786 Z M29.61,48.8345379 L29.32,48.8345379 L6.83,48.8345379 C4.05389067,48.9357165 1.64592967,46.932672 1.24,44.1845379 C1.13510664,43.2583037 1.11502323,42.3244252 1.18,41.3945379 C1.18,40.9745379 1.18,40.5545379 1.18,40.1245379 L1.18,39.9045379 L27.61,39.9045379 L27.61,41.0845379 C27.61,41.7445379 27.61,42.3845379 27.61,43.0245379 C27.520416,44.9900148 28.3123998,46.8929757 29.77,48.2145379 C29.8152227,48.2576622 29.8524627,48.3084442 29.88,48.3645379 L30.15,48.7745379 L29.61,48.8345379 Z M40.61,2.50453786 C40.0591678,3.40627706 39.7813061,4.44825837 39.81,5.50453786 L39.81,43.0045379 C39.9393939,45.2570077 38.6725458,47.3578312 36.62,48.2945379 C35.9064179,48.6416813 35.1235397,48.8228715 34.33,48.8245379 C33.3691049,48.8207475 32.4254105,48.5693252 31.59,48.0945379 C30.0248244,47.2203516 28.9920051,45.6299595 28.83,43.8445379 C28.75,42.8445379 28.76,41.8445379 28.76,40.8445379 C28.76,40.4245379 28.76,40.0045379 28.76,39.5845379 C28.76,38.7745379 28.62,38.5845379 27.81,38.5845379 L8.3,38.5845379 L8.3,38.0045379 L8.3,29.3845379 C8.35,22.1545379 8.41,12.5045379 8.46,5.27453786 C8.36620626,3.95385756 8.9454206,2.67507266 10,1.87453786 C10.7190801,1.36199114 11.5875554,1.10180016 12.47,1.13453786 L40.86,1.13453786 L41.48,1.13453786 L41,1.91453786 C40.82,2.12453786 40.68,2.31453786 40.56,2.50453786 L40.61,2.50453786 Z M48.88,9.43453786 C48.88,10.1545379 48.88,10.8845379 48.88,11.6145379 L48.88,11.8645379 L41,11.8645379 L40.95,11.5445379 C40.9401724,11.4548061 40.9401724,11.3642696 40.95,11.2745379 L40.95,9.84453786 C40.95,8.31453786 40.95,6.77453786 40.95,5.24453786 C40.9083044,3.72554965 41.7309027,2.31411229 43.0730974,1.60166774 C44.415292,0.889223195 46.0452649,0.99882179 47.28,1.88453786 C48.1585957,2.47972912 48.7238275,3.4376869 48.82,4.49453786 C48.88,6.13453786 48.86,7.81453786 48.83,9.43453786 L48.88,9.43453786 Z" id="Shape" fill="url(#linearGradient-1)"></path>
                <path d="M33.88,29.7045379 L14.66,29.7045379 L14.46,29.7045379 C14.3053514,29.7018001 14.1562301,29.7620275 14.0468598,29.8713977 C13.9374896,29.9807679 13.8772622,30.1298892 13.8799106,30.2845379 C13.8957442,30.5892654 14.1449046,30.8296834 14.45,30.8345379 L33.89,30.8345379 C34.16,30.8345379 34.61,30.7545379 34.61,30.2645379 C34.61,29.7745379 34.36,29.7245379 33.88,29.7045379 Z" id="Path" fill="url(#linearGradient-2)"></path>
                <path d="M14.37,27.0045379 L14.37,27.0045379 C14.5198354,27.0144752 14.6701646,27.0144752 14.82,27.0045379 L33.65,27.0045379 C33.8262858,27.0209426 34.0037142,27.0209426 34.18,27.0045379 C34.3125914,26.9874197 34.432431,26.9168681 34.5117368,26.8092387 C34.5910427,26.7016093 34.6229277,26.566249 34.6,26.4345379 C34.6,26.3045379 34.6,25.9145379 33.85,25.9145379 L14.41,25.9145379 C14.1216664,25.9248452 13.8903074,26.1562043 13.88,26.4445379 C13.862812,26.7337586 14.0810571,26.9831816 14.37,27.0045379 Z" id="Path" fill="url(#linearGradient-3)"></path>
                <path d="M19.84,19.9045379 L23.56,19.9045379 L23.56,21.1145379 C23.5218041,21.4886836 23.617469,21.8642565 23.83,22.1745379 C23.9445763,22.2766343 24.0977815,22.3240549 24.25,22.3045379 C24.48,22.3045379 24.92,22.3045379 24.92,21.1445379 L24.92,19.8345379 L25.51,19.8845379 C27.42,20.0345379 28.51,19.6245379 29.25,18.5145379 C30.0788391,17.352582 29.9742858,15.7675541 29,14.7245379 L28.75,14.4445379 L28.95,14.1245379 L29.1,13.8845379 C29.8914974,12.9580164 30.0193519,11.635522 29.42,10.5745379 C28.8769044,9.46602829 27.7102455,8.80333428 26.48,8.90453786 L24.9,8.90453786 L24.9,7.28453786 C24.9498827,6.92595056 24.7141332,6.58978932 24.36,6.51453786 L24.24,6.51453786 C23.7,6.51453786 23.57,6.94453786 23.56,7.30453786 L23.56,8.92453786 L19.72,8.92453786 C18.83,8.92453786 18.72,9.05453786 18.72,9.92453786 L18.72,18.8045379 C18.69,19.7745379 18.82,19.9045379 19.84,19.9045379 Z M27.84,18.1145379 C27.4750923,18.442405 26.9875491,18.5988555 26.5,18.5445379 L20.09,18.5445379 L20.09,15.1045379 L20.82,15.1045379 L26.49,15.1045379 C27.0295943,15.0914948 27.5531286,15.2887166 27.95,15.6545379 C28.2669567,15.9797909 28.4368153,16.4207005 28.42,16.8745379 C28.407766,17.3506016 28.1975638,17.7999993 27.84,18.1145379 L27.84,18.1145379 Z M20,10.3145379 L20.59,10.2345379 L26.79,10.2345379 C27.7003689,10.3725941 28.3480362,11.1924885 28.2715698,12.1100853 C28.1951034,13.0276821 27.4206628,13.7290676 26.5,13.7145379 L20,13.7145379 L20,10.3145379 Z" id="Shape" fill="url(#linearGradient-4)"></path>
            </g>
        </g>
    </g>
</svg>