<?xml version="1.0" encoding="UTF-8"?>
<svg width="51px" height="50px" viewBox="0 0 51 50" version="1.1" xmlns="http://www.w3.org/2000/svg" xmlns:xlink="http://www.w3.org/1999/xlink">
    <title>servicio-07</title>
    <defs>
        <linearGradient x1="-121.605613%" y1="50.5690693%" x2="99.0252832%" y2="50.5690693%" id="linearGradient-1">
            <stop stop-color="#4E82E7" offset="0%"></stop>
            <stop stop-color="#6039E4" offset="48%"></stop>
            <stop stop-color="#771EE3" offset="100%"></stop>
        </linearGradient>
        <linearGradient x1="-1.17240005%" y1="50.0286397%" x2="219.399282%" y2="50.0286397%" id="linearGradient-2">
            <stop stop-color="#4E82E7" offset="0%"></stop>
            <stop stop-color="#6039E4" offset="48%"></stop>
            <stop stop-color="#771EE3" offset="100%"></stop>
        </linearGradient>
        <linearGradient x1="-128.207632%" y1="49.8720628%" x2="153.884704%" y2="49.8720628%" id="linearGradient-3">
            <stop stop-color="#4E82E7" offset="0%"></stop>
            <stop stop-color="#6039E4" offset="48%"></stop>
            <stop stop-color="#771EE3" offset="100%"></stop>
        </linearGradient>
        <linearGradient x1="-68.7420647%" y1="50.075035%" x2="271.235965%" y2="50.075035%" id="linearGradient-4">
            <stop stop-color="#4E82E7" offset="0%"></stop>
            <stop stop-color="#6039E4" offset="48%"></stop>
            <stop stop-color="#771EE3" offset="100%"></stop>
        </linearGradient>
    </defs>
    <g id="02-CRYPTOCONTADOR" stroke="none" stroke-width="1" fill="none" fill-rule="evenodd">
        <g id="INTERNA-CRYPTO-CONTADOR" transform="translate(-134.000000, -2816.000000)" fill-rule="nonzero">
            <g id="servicio-07" transform="translate(134.000000, 2816.000000)">
                <rect id="Rectangle" x="0.0337045169" y="0" width="50" height="50"></rect>
                <path d="M50.0137045,45.67 L50.0137045,45.67 C49.9901155,42.9058543 48.5670503,40.3420781 46.2337045,38.86 C45.5969959,38.4698438 44.9278546,38.1352732 44.2337045,37.86 L43.2337045,37.44 L42.6937045,37.17 L43.1637045,36.79 C45.5205825,35.2516095 46.8093106,32.5163149 46.4950022,29.7194006 C46.1806938,26.9224864 44.3170084,24.5414501 41.677469,23.5645413 C39.0379296,22.5876325 36.0731663,23.1816319 34.0137045,25.1 C32.4885855,26.2973803 31.5230611,28.0693165 31.3437045,30 C31.021797,32.6648947 32.1702247,35.2947941 34.3437045,36.87 L34.8437045,37.29 L34.1037045,37.58 L33.8837045,37.66 C31.2049275,38.2863982 29.0081713,40.1949938 28.0137045,42.76 C27.3877426,44.532151 27.1990597,46.4292715 27.4637045,48.29 C27.5737161,49.2975635 28.451579,50.043747 29.4637045,49.99 L48.0137045,49.99 C49.118274,49.99 50.0137045,49.0945695 50.0137045,47.99 C50.0637045,47.28 50.0737045,46.47 50.0137045,45.67 Z M34.3037045,35.26 C32.5235934,33.4780344 31.9893533,30.8005812 32.9492539,28.4718931 C33.9091544,26.1432051 36.1749552,24.619947 38.6937045,24.6099977 L38.6937045,24.6099977 C41.2179114,24.6078516 43.494788,26.1266737 44.462372,28.4580695 C45.429956,30.7894653 44.8976408,33.4741678 43.1137045,35.26 C41.9449709,36.4312447 40.35832,37.0894546 38.7037045,37.0894546 C37.049089,37.0894546 35.4624382,36.4312447 34.2937045,35.26 L34.3037045,35.26 Z M48.8637045,47.51 C48.8637045,48.56 48.6237045,48.81 47.5837045,48.81 L29.8237045,48.81 C28.8237045,48.81 28.5737045,48.55 28.5737045,47.55 L28.5737045,47 C28.4943122,45.841781 28.6299286,44.6788699 28.9737045,43.57 C29.8488475,40.8240088 32.3175797,38.8950638 35.1937045,38.71 C37.4830464,38.518649 39.7843627,38.518649 42.0737045,38.71 C45.970697,38.9664394 48.9688283,42.2559943 48.8637045,46.16 L48.8637045,47.51 Z" id="Shape" fill="url(#linearGradient-1)"></path>
                <path d="M22.7137045,24.53 L22.7137045,24.53 C22.7137045,23.67 22.7137045,22.96 22.7137045,22.29 C22.7038095,19.4649841 21.2369346,16.8450246 18.8337045,15.36 C18.21469,14.9897351 17.5657559,14.6719581 16.8937045,14.41 L16.0137045,14 L15.4537045,13.75 L15.9337045,13.36 C17.6371184,12.0402599 18.6886314,10.0500151 18.8188729,7.89911527 C18.9491144,5.74821546 18.1454305,3.64563461 16.6137045,2.13 C14.4288468,-0.00844923235 11.1560459,-0.587937161 8.36976254,0.670313019 C5.58347919,1.9285632 3.85414744,4.76695071 4.01370452,7.82 C4.15760789,10.0435153 5.25036017,12.0978895 7.01370452,13.46 L7.52370452,13.87 L6.79370452,14.16 L6.57370452,14.24 C3.9110073,14.8434986 1.71153224,16.7106251 0.683704517,19.24 C0.0459700363,21.0301649 -0.149583295,22.9479598 0.113704517,24.83 C0.228442654,25.83505 1.10329826,26.5786772 2.11370452,26.53 C8.31370452,26.53 14.5137045,26.53 20.7137045,26.53 C21.818274,26.53 22.7137045,25.6345695 22.7137045,24.53 Z M5.14370452,7.41 C5.1546828,3.97382364 7.93752815,1.19097828 11.3737045,1.18 L11.3737045,1.18 C13.8994415,1.18591141 16.1725222,2.71382214 17.131665,5.05036394 C18.0908077,7.38690574 17.5468277,10.0712106 15.7537045,11.85 C14.5928738,13.012356 13.0164415,13.663804 11.3737045,13.6600166 L11.3737045,13.6600166 C7.93429552,13.6380748 5.15460586,10.8494616 5.14370452,7.41 Z M20.3537045,25.41 L2.50370452,25.41 C1.50370452,25.41 1.23370452,25.15 1.23370452,24.16 L1.23370452,23.61 C1.1512531,22.4272744 1.29376932,21.2396392 1.65370452,20.11 C2.53690568,17.3926145 4.98304036,15.4847878 7.83370452,15.29 C10.1430767,15.0985473 12.4643324,15.0985473 14.7737045,15.29 C18.6406658,15.5461444 21.6179421,18.8057106 21.5237045,22.68 L21.5237045,23.22 C21.5237045,23.56 21.5237045,23.91 21.5237045,24.22 C21.5643148,24.5415597 21.4661305,24.8652042 21.2537045,25.11 C21.0113291,25.3288417 20.6891021,25.4374575 20.3637045,25.41 L20.3537045,25.41 Z" id="Shape" fill="url(#linearGradient-2)"></path>
                <path d="M33.8737045,9 C34.2979485,9.01406791 34.7028152,9.18098667 35.0137045,9.47 C36.1737045,10.59 37.3637045,11.77 38.6537045,13.1 C38.9046999,13.3759538 39.0560786,13.7279973 39.0837045,14.1 C39.0837045,15.19 39.0837045,16.28 39.0837045,17.37 L39.0837045,18.9 C39.065436,19.148115 39.1403102,19.3941302 39.2937045,19.59 C39.4004818,19.6857254 39.5404243,19.7359612 39.6837045,19.73 C40.0737045,19.73 40.2637045,19.44 40.2637045,18.88 L40.2637045,17.68 C40.2637045,16.34 40.2637045,14.95 40.2637045,13.59 C40.2429985,13.2514146 40.1131879,12.9286423 39.8937045,12.67 C38.4537045,11.16 36.9537045,9.67 35.4237045,8.2 C35.167156,7.97563159 34.8438089,7.8420752 34.5037045,7.82 C33.1537045,7.82 31.7937045,7.82 30.4337045,7.82 L23.2437045,7.82 C22.9737045,7.82 22.5137045,7.9 22.5035623,8.39 C22.4937045,8.88 23.0137045,9 23.2637045,9 L27.9437045,9 C29.9237045,9 31.8937045,9 33.8737045,9 Z" id="Path" fill="url(#linearGradient-3)"></path>
                <path d="M23.8337045,41 C21.2937045,41 18.7537045,41 16.2137045,41 C15.7854472,40.9820284 15.3776594,40.8118213 15.0637045,40.52 C13.8437045,39.35 12.6337045,38.14 11.4837045,36.93 C11.1917797,36.6129784 11.0247818,36.2008133 11.0137045,35.77 C11.0137045,34.71 11.0137045,33.64 11.0137045,32.58 L11.0137045,31.07 C11.0361524,30.8275665 10.9605152,30.586248 10.8037045,30.4 C10.7030629,30.3073282 10.5704844,30.2571634 10.4337045,30.2598859 L10.4337045,30.2598859 C9.96370452,30.2598859 9.86370452,30.71 9.86370452,31.06 L9.86370452,32.12 C9.86370452,33.55 9.86370452,35.03 9.86370452,36.48 C9.88151412,36.778971 9.99751567,37.0637021 10.1937045,37.29 C11.7837045,38.94 13.2637045,40.41 14.7137045,41.8 C14.9751947,42.0198289 15.302356,42.146472 15.6437045,42.16 C16.6437045,42.21 17.6437045,42.16 18.5637045,42.16 L20.8137045,42.16 C21.8137045,42.16 22.9337045,42.16 23.9937045,42.16 C24.2380431,42.1034109 24.4521964,41.9570728 24.5937045,41.75 C24.6178087,41.5570049 24.5716646,41.36178 24.4637045,41.2 C24.2824449,41.0638509 24.0603036,40.9933299 23.8337045,41 L23.8337045,41 Z" id="Path" fill="url(#linearGradient-4)"></path>
            </g>
        </g>
    </g>
</svg>