<?xml version="1.0" encoding="UTF-8"?>
<svg width="50px" height="51px" viewBox="0 0 50 51" version="1.1" xmlns="http://www.w3.org/2000/svg" xmlns:xlink="http://www.w3.org/1999/xlink">
    <title>servicio-06</title>
    <defs>
        <linearGradient x1="-0.0273013906%" y1="49.990002%" x2="99.9503909%" y2="49.990002%" id="linearGradient-1">
            <stop stop-color="#4E82E7" offset="0%"></stop>
            <stop stop-color="#6039E4" offset="48%"></stop>
            <stop stop-color="#771EE3" offset="100%"></stop>
        </linearGradient>
        <linearGradient x1="-32.9497992%" y1="51.5030375%" x2="132.128726%" y2="51.5030375%" id="linearGradient-2">
            <stop stop-color="#4E82E7" offset="0%"></stop>
            <stop stop-color="#6039E4" offset="48%"></stop>
            <stop stop-color="#771EE3" offset="100%"></stop>
        </linearGradient>
        <linearGradient x1="-32.9826093%" y1="46.0381606%" x2="132.197329%" y2="46.0381606%" id="linearGradient-3">
            <stop stop-color="#4E82E7" offset="0%"></stop>
            <stop stop-color="#6039E4" offset="48%"></stop>
            <stop stop-color="#771EE3" offset="100%"></stop>
        </linearGradient>
        <linearGradient x1="-33.0276604%" y1="49.5708914%" x2="132.263649%" y2="49.5708914%" id="linearGradient-4">
            <stop stop-color="#4E82E7" offset="0%"></stop>
            <stop stop-color="#6039E4" offset="48%"></stop>
            <stop stop-color="#771EE3" offset="100%"></stop>
        </linearGradient>
        <linearGradient x1="-108.928992%" y1="49.9642123%" x2="436.772743%" y2="49.9642123%" id="linearGradient-5">
            <stop stop-color="#4E82E7" offset="0%"></stop>
            <stop stop-color="#6039E4" offset="48%"></stop>
            <stop stop-color="#771EE3" offset="100%"></stop>
        </linearGradient>
    </defs>
    <g id="02-CRYPTOCONTADOR" stroke="none" stroke-width="1" fill="none" fill-rule="evenodd">
        <g id="INTERNA-CRYPTO-CONTADOR" transform="translate(-966.000000, -2648.000000)" fill-rule="nonzero">
            <g id="servicio-06" transform="translate(966.000000, 2648.000000)">
                <rect id="Rectangle" x="0" y="0" width="50" height="50"></rect>
                <path d="M43.24,2.91 L43.24,2.91 C43.2119217,2.44272302 43.0966015,1.98483412 42.9,1.56 C42.4734362,0.743663739 41.6955178,0.168520239 40.79,0 L9.22,0 C7.22,0.78 6.77,1.47 6.77,3.68 L6.77,33.21 L6.65,33.21 L6.77,33.21 L6.77,35.12 C6.77,37.03 6.77,39 6.77,40.94 C6.77800714,41.4131274 6.88354014,41.8795152 7.08,42.31 C7.59881005,43.4334173 8.7674511,44.1097883 10,44 L25.8,44 L25.8,44.13 C25.8,44.55 25.8,44.96 25.8,45.37 C25.8,46.37 25.8,47.27 25.8,48.21 C25.6759773,48.969231 26.0898484,49.7141991 26.8,50.01 L27.42,50.01 L28.42,49.32 C29.42,48.64 30.42,47.93 31.49,47.21 C31.7372508,46.987314 32.1127492,46.987314 32.36,47.21 C33.2,47.83 34.08,48.43 34.93,49.02 L35.28,49.26 L36.08,49.79 L36.42,50.01 L37.05,50.01 C37.7589095,49.7465557 38.1792578,49.0151496 38.05,48.27 C38.05,47.61 38.05,46.94 38.05,46.27 C38.05,45.98 38.05,45.69 38.05,45.4 L38.05,44 L40.14,44 C40.9880149,44.0635351 41.8215952,43.7542306 42.4229129,43.1529129 C43.0242306,42.5515952 43.3335351,41.7180149 43.27,40.87 C43.27,33.29 43.27,25.71 43.27,18.13 L43.27,11.91 C43.26,9.23 43.27,4.51 43.24,2.91 Z M36.76,48.79 L33,46.15 C32.7269679,45.8689682 32.3518232,45.710396 31.96,45.710396 C31.5681768,45.710396 31.1930321,45.8689682 30.92,46.15 L29.68,47 L27.68,48.37 L27.38,48.56 L27.03,48.78 L27.03,36.56 L27.25,36.81 L27.48,37.08 C27.63,37.25 27.76,37.41 27.91,37.55 C28.6415574,38.2994956 29.7395063,38.5603558 30.73,38.22 C31.4795765,37.9691925 32.2904235,37.9691925 33.04,38.22 C34.29,38.66 35.48,38.22 36.49,36.81 L36.72,36.51 L36.76,48.79 Z M37.27,33.79 C36.4269934,34.2874516 35.7915015,35.0720534 35.48,36 C35.2882089,36.6621914 34.689211,37.1235817 34,37.14 C33.7472974,37.1344925 33.4972499,37.0871862 33.26,37 C32.4263861,36.679639 31.5036139,36.679639 30.67,37 C30.2137245,37.215875 29.6851122,37.2178231 29.227258,37.005317 C28.7694038,36.7928108 28.4296618,36.387829 28.3,35.9 C28.0006644,34.9780512 27.3603204,34.2053456 26.51,33.74 C26.1570187,33.5413715 25.9032036,33.2041601 25.81,32.81 C25.6875559,32.3561368 25.7562114,31.8719347 26,31.47 C26.5659775,30.6387045 26.7980519,29.6247177 26.65,28.63 C26.5902095,28.1860536 26.7169117,27.7371661 27,27.39 C27.3113487,27.0143734 27.7632313,26.7830096 28.25,26.75 C29.1582561,26.6982441 30.0112033,26.2968571 30.63,25.63 C30.9524931,25.2482194 31.4206261,25.0195963 31.92,25 L31.92,25 C32.4194768,25.0129863 32.8907935,25.2341426 33.22,25.61 C33.8400394,26.2751554 34.6922631,26.6762019 35.6,26.73 C36.09155,26.7706166 36.5435012,27.0156288 36.8457855,27.4053664 C37.1480697,27.795104 37.2729453,28.2937992 37.19,28.78 C37.0189805,29.7234023 37.2591332,30.6949291 37.85,31.45 C38.0912722,31.8265943 38.1672012,32.2857841 38.06,32.72 C37.9536841,33.1669585 37.6679294,33.5503762 37.27,33.78 L37.27,33.79 Z M42,40.54 L42,40.64 C42.010001,40.8065166 42.010001,40.9734834 42,41.14 C42.0052825,41.9413956 41.4061305,42.6181357 40.61,42.71 C40.0404014,42.7402539 39.4695986,42.7402539 38.9,42.71 L38,42.71 L38,40.38 C38,38.7 38,37.02 38,35.38 C37.9807421,35.03739 38.1210275,34.7051349 38.38,34.48 C39.3666134,33.5844951 39.5918205,32.1206486 38.92,30.97 C38.4768362,30.3086596 38.2852626,29.5104367 38.38,28.72 C38.5273335,27.1916529 37.4332599,25.8229536 35.91,25.63 C35.1236468,25.5512641 34.3904472,25.1970614 33.84,24.63 C32.7502844,23.6429559 31.0897156,23.6429559 30,24.63 C29.4198107,25.221982 28.6535759,25.5962718 27.83,25.69 C26.317816,25.9170798 25.2569007,27.3006902 25.43,28.82 C25.5291439,29.5134074 25.3765948,30.2193904 25,30.81 C24.2963691,31.9980262 24.4944991,33.5128956 25.48,34.48 C25.6833028,34.6917386 25.8069812,34.9673647 25.83,35.26 C25.83,37.14 25.83,39.05 25.83,40.9 L25.83,42.13 C25.83,42.25 25.83,42.36 25.83,42.48 L25.83,42.75 L9.88,42.75 C9.36081912,42.7986231 8.8474035,42.6104717 8.48258221,42.2378882 C8.11776092,41.8653048 7.94045873,41.3480423 8,40.83 L8,33.4 C8,33.29 8,33.2 8,33.1 L8,3.3 C8,1.84 8.62,1.22 10.09,1.22 L40,1.22 C41.47,1.22 42.07,1.83 42.07,3.31 C42.07,4.49 42.07,7.95 42.07,10.31 L42.07,12.62 C42.0233333,21.9466667 42,31.2533333 42,40.54 Z" id="Shape" fill="url(#linearGradient-1)"></path>
                <path d="M35.62,18.07 C35.4163281,18.0251804 35.2085379,18.0017203 35,18 L14.75,18 C14.5064454,17.9825323 14.2657915,18.061553 14.08,18.22 C13.9771427,18.3270464 13.9228915,18.4717164 13.93,18.62 C13.93,19.1 14.37,19.21 14.73,19.23 L35.08,19.23 C35.2661387,19.249854 35.4538613,19.249854 35.64,19.23 C35.9141605,19.1784203 36.1127619,18.9389703 36.1127619,18.66 C36.1127619,18.3810297 35.9141605,18.1415797 35.64,18.09 L35.62,18.07 Z" id="Path" fill="url(#linearGradient-2)"></path>
                <path d="M14.89,15 L35.14,15 C35.339016,15.0052992 35.5377491,14.9817207 35.73,14.93 C35.9758774,14.8321838 36.126553,14.5826243 36.0986089,14.319484 C36.0706648,14.0563437 35.870937,13.8439952 35.61,13.8 C35.4735237,13.7897979 35.3364763,13.7897979 35.2,13.8 L14.51,13.8 C14.2044973,13.7943506 13.9508604,14.0346381 13.94,14.34 C13.9142857,14.490752 13.9524988,14.6454038 14.0454662,14.7668306 C14.1384336,14.8882573 14.2777601,14.9654942 14.43,14.98 C14.5822908,15.0019033 14.7363828,15.008603 14.89,15 L14.89,15 Z" id="Path" fill="url(#linearGradient-3)"></path>
                <path d="M35.61,9.47 L35.61,9.47 C35.4771049,9.45471182 35.3428951,9.45471182 35.21,9.47 L14.83,9.47 C14.7002117,9.45950773 14.5697883,9.45950773 14.44,9.47 C14.1565821,9.50505673 13.9428502,9.74443647 13.94,10.03 C13.9102765,10.3292268 14.1221758,10.5985156 14.42,10.64 C14.5495315,10.6556082 14.6804685,10.6556082 14.81,10.64 L35.2,10.64 C35.3429168,10.6554531 35.4870832,10.6554531 35.63,10.64 C35.9140753,10.5939649 36.1146354,10.3367248 36.09,10.05 C36.1081215,9.76029337 35.8979844,9.50637761 35.61,9.47 Z" id="Path" fill="url(#linearGradient-4)"></path>
                <path d="M19.88,36.53 L14.68,36.53 C14.22,36.53 13.94,36.76 13.93,37.14 C13.9262552,37.2877371 13.9800364,37.4311536 14.08,37.54 C14.257,37.6851462 14.4813123,37.7599169 14.71,37.75 L19.86,37.75 C20.0904325,37.7601049 20.3159496,37.6813529 20.49,37.53 C20.5918546,37.4223248 20.6459396,37.2780981 20.64,37.13 C20.63,36.76 20.34,36.53 19.88,36.53 Z" id="Path" fill="url(#linearGradient-5)"></path>
            </g>
        </g>
    </g>
</svg>