<?xml version="1.0" encoding="UTF-8"?>
<svg width="51px" height="51px" viewBox="0 0 51 51" version="1.1" xmlns="http://www.w3.org/2000/svg" xmlns:xlink="http://www.w3.org/1999/xlink">
    <title>servicio-03</title>
    <defs>
        <linearGradient x1="-0.214871327%" y1="50.0082476%" x2="98.3323671%" y2="50.0082476%" id="linearGradient-1">
            <stop stop-color="#4E82E7" offset="0%"></stop>
            <stop stop-color="#6039E4" offset="48%"></stop>
            <stop stop-color="#771EE3" offset="100%"></stop>
        </linearGradient>
        <linearGradient x1="-22.7824275%" y1="50.162946%" x2="143.56709%" y2="50.162946%" id="linearGradient-2">
            <stop stop-color="#4E82E7" offset="0%"></stop>
            <stop stop-color="#6039E4" offset="48%"></stop>
            <stop stop-color="#771EE3" offset="100%"></stop>
        </linearGradient>
        <linearGradient x1="-225.274404%" y1="49.9858637%" x2="404.962665%" y2="49.9858637%" id="linearGradient-3">
            <stop stop-color="#4E82E7" offset="0%"></stop>
            <stop stop-color="#6039E4" offset="48%"></stop>
            <stop stop-color="#771EE3" offset="100%"></stop>
        </linearGradient>
    </defs>
    <g id="02-CRYPTOCONTADOR" stroke="none" stroke-width="1" fill="none" fill-rule="evenodd">
        <g id="INTERNA-CRYPTO-CONTADOR" transform="translate(-966.000000, -2480.000000)" fill-rule="nonzero">
            <g id="servicio-03" transform="translate(966.017654, 2480.000000)">
                <rect id="Rectangle" x="0.00255042365" y="0.008281573" width="50" height="50"></rect>
                <path d="M50.0025504,8.18828157 C49.870896,7.96536911 49.6477648,7.81173779 49.3925504,7.76828157 C48.7025504,7.65828157 47.9825504,7.58828157 47.2825504,7.52828157 L46.4725504,7.44828157 L43.0025504,7.09828157 L43.0025504,6.87828157 C43.0025504,6.80828157 43.0025504,6.75828157 43.0025504,6.69828157 L42.8625504,5.26828157 C42.7125504,3.77828157 42.5525504,2.26828157 42.3725504,0.728281573 C42.3143232,0.452702661 42.1488101,0.21162929 41.9125504,0.058281573 C41.6525504,-0.091718427 41.4325504,0.058281573 41.1525504,0.388281573 L36.3425504,5.18828157 L33.6425504,7.80828157 C32.6425504,8.80828157 32.6425504,8.80828157 32.7125504,10.1282816 L32.7125504,10.4082816 L32.4725504,10.2682816 C29.1386523,8.30610714 25.3410128,7.27038728 21.4725504,7.26828157 C12.5523111,7.22587821 4.54412626,12.7287094 1.38551111,21.0711083 C-1.77310405,29.4135071 0.58241178,38.8402627 7.29388362,44.716368 C14.0053555,50.5924733 23.6607137,51.6816168 31.5125504,47.4482816 C35.8680736,45.1922347 39.2782888,41.4594316 41.1325504,36.9182816 C43.8357503,30.5996207 43.3256484,23.3651088 39.7625504,17.4882816 L39.5925504,17.1882816 L40.2125504,17.3282816 L40.5925504,17.4182816 C40.9156716,17.5141808 41.2651826,17.4170944 41.4925504,17.1682816 L44.3925504,14.2682816 C46.1625504,12.5082816 47.9825504,10.6882816 49.7625504,8.88828157 C49.939213,8.70015046 50.0266133,8.44523283 50.0025504,8.18828157 Z M34.1525504,9.06828157 C36.1925504,7.02828157 38.2525504,4.96494824 40.3325504,2.87828157 L40.8325504,2.37828157 C40.8814421,2.33931573 40.9403969,2.31504021 41.0025504,2.30828157 L41.0825504,2.30828157 L41.2725504,2.21828157 L41.2725504,2.42828157 L41.3625504,3.42828157 C41.4052029,4.18320811 41.4953816,4.934697 41.6325504,5.67828157 C41.8939776,6.82981289 41.4555737,8.02759489 40.5125504,8.73828157 C39.3525504,9.79828157 38.2325504,10.9382816 37.1525504,12.0382816 L35.7425504,13.4682816 L35.4725504,13.7182816 L35.0825504,14.0882816 L34.7725504,12.8582816 C34.5025504,11.7682816 34.2425504,10.7282816 33.9925504,9.67828157 C33.9465375,9.46270709 34.0018098,9.23793306 34.1425504,9.06828157 L34.1525504,9.06828157 Z M39.8825504,36.7282816 C37.2408424,42.7980866 31.7668854,47.1675174 25.2625504,48.3982816 C23.9805625,48.6447744 22.6780203,48.7682825 21.3725504,48.7682825 C13.848718,48.7648939 6.95349281,44.5700742 3.49149398,37.890057 C0.0294951557,31.2100399 0.577477556,23.1576887 4.91255042,17.0082816 C7.97285034,12.6442571 12.655921,9.69032021 17.9125504,8.80828157 C18.7825504,8.65828157 19.6625504,8.57828157 20.3025504,8.51828157 L20.9025504,8.46828157 C25.1848488,8.39636801 29.3818429,9.66945621 32.9025504,12.1082816 C33.1467711,12.3008567 33.3278551,12.5620356 33.4225504,12.8582816 C33.5232289,13.1633568 33.6066937,13.4738457 33.6725504,13.7882816 C33.7425504,14.0482816 33.8025504,14.2982816 33.8725504,14.5482816 C34.0101964,14.9263277 33.8891422,15.3500177 33.5725504,15.5982816 L25.0025504,24.1382816 L22.3025504,26.8482816 L21.1325504,28.0082816 C20.6125504,28.5382816 20.7925504,28.8382816 20.9825504,29.0082816 C21.1725504,29.1782816 21.4125504,29.4382816 21.9825504,28.8482816 L23.3225504,27.5082816 C26.9525504,23.8982816 30.6925504,20.1682816 34.3225504,16.5082816 C34.6307955,16.1086101 35.1747557,15.9757343 35.6325504,16.1882816 C35.8003399,16.262027 35.9796809,16.3060163 36.1625504,16.3182816 C37.2380666,16.4200899 38.171108,17.1035523 38.5925504,18.0982816 C42.0838521,23.7112573 42.5633743,30.6905543 39.8725504,36.7282816 L39.8825504,36.7282816 Z M47.8025504,9.05828157 L47.7025504,9.18828157 C47.6472934,9.27127688 47.5836231,9.34835137 47.5125504,9.41828157 L46.9125504,10.0182816 C45.0125504,11.9182816 43.0525504,13.8782816 41.1225504,15.7882816 C40.9387437,15.9584036 40.7023855,16.0607079 40.4525504,16.0782816 L40.3425504,16.0782816 C39.3425504,15.8582816 38.3425504,15.5982816 37.2425504,15.3282816 L35.8625504,15.0082816 L36.0725504,14.8182816 L36.4825504,14.4382816 C36.7525504,14.1982816 36.9825504,13.9882816 37.2025504,13.7682816 L37.4725504,13.4982816 C39.0025504,11.9082816 40.6325504,10.3082816 42.1925504,8.72828157 C42.4460228,8.44911473 42.8176485,8.30789693 43.1925504,8.34828157 L46.4725504,8.68828157 L48.0025504,8.83828157 L47.8025504,9.05828157 Z" id="Shape" fill="url(#linearGradient-1)"></path>
                <path d="M33.7825504,20.5282816 L33.4625504,20.0082816 C33.3848273,19.8563395 33.247006,19.7439064 33.0825504,19.6982816 C32.9111647,19.6710831 32.735865,19.7104361 32.5925504,19.8082816 C32.4535575,19.9094291 32.3627971,20.0637429 32.3419422,20.2343739 C32.3210873,20.4050049 32.3720101,20.5766355 32.4825504,20.7082816 C32.5099146,20.7651211 32.5434497,20.8187773 32.5825504,20.8682816 L32.5825504,20.9282816 C35.364724,24.9834245 35.739054,30.2252537 33.5613469,34.6345922 C31.3836398,39.0439306 26.9936991,41.9327569 22.0825504,42.1882816 C18.1156041,42.3846498 14.2608085,40.8383396 11.5292752,37.9549476 C8.79774187,35.0715557 7.46204975,31.1388148 7.87255042,27.1882816 C8.3491194,22.76298 10.9578775,18.8497227 14.8594147,16.7076632 C18.7609519,14.5656037 23.4629818,14.4650219 27.4525504,16.4382816 C27.8925504,16.6582816 28.3225504,16.9282816 28.7425504,17.1882816 L29.3825504,17.5882816 C29.6134396,17.7265234 29.9016612,17.7265234 30.1325504,17.5882816 C30.2847358,17.4964392 30.3703877,17.3251353 30.3525504,17.1482816 C30.2970567,16.8662004 30.1361341,16.6158764 29.9025504,16.4482816 C27.4589885,14.696693 24.5290497,13.7526793 21.5225504,13.7482816 C20.8033006,13.7491624 20.0849546,13.7992796 19.3725504,13.8982816 C11.5453883,15.0085904 5.97021882,22.0707237 6.7070415,29.941832 C7.44386418,37.8129402 14.2328734,43.7176498 22.1301165,43.3559807 C30.0273595,42.9943115 36.2482477,36.493789 36.2625504,28.5882816 C36.3032956,26.8533464 35.9902674,25.1282887 35.3425504,23.5182816 C34.8805683,22.4924029 34.3597004,21.4940727 33.7825504,20.5282816 L33.7825504,20.5282816 Z" id="Path" fill="url(#linearGradient-2)"></path>
                <path d="M21.5225504,24.7382816 C21.4495854,24.7278878 21.3755155,24.7278878 21.3025504,24.7382816 L21.0225504,24.7382816 C18.9512478,24.9437155 17.4063202,26.7395289 17.5125504,28.8182816 C17.66036,30.8643546 19.3320626,32.4669429 21.3825504,32.5282816 L21.6625504,32.5282816 C21.8846157,32.5104019 22.1051556,32.4769867 22.3225504,32.4282816 C24.0361734,32.0155914 25.2636286,30.5099129 25.3225504,28.7482816 C25.3420906,28.5767671 25.2915168,28.4046323 25.1823074,28.2709449 C25.073098,28.1372575 24.9145149,28.0533556 24.7425504,28.0382816 L24.7425504,28.0382816 C24.4125504,28.0382816 24.1725504,28.2982816 24.1225504,28.6982816 L24.1225504,28.8182816 C24.1225504,28.8682816 24.1225504,28.9182816 24.1225504,28.9682816 C23.94624,30.3798014 22.6942526,31.4052454 21.2756602,31.3000354 C19.8570678,31.1948254 18.7700502,29.9959089 18.8038944,28.5738231 C18.8377386,27.1517372 19.9805591,26.0058886 21.4025504,25.9682816 C21.9625504,25.9182816 22.0625504,25.6182816 22.0825504,25.3882816 C22.1056252,25.2255359 22.0573197,25.0607515 21.9500317,24.9362208 C21.8427437,24.8116901 21.686919,24.7395376 21.5225504,24.7382816 Z" id="Path" fill="url(#linearGradient-3)"></path>
            </g>
        </g>
    </g>
</svg>