<?xml version="1.0" encoding="UTF-8"?>
<svg width="50px" height="50px" viewBox="0 0 50 50" version="1.1" xmlns="http://www.w3.org/2000/svg" xmlns:xlink="http://www.w3.org/1999/xlink">
    <title>servicio-04</title>
    <defs>
        <linearGradient x1="0.00392826281%" y1="50.0048482%" x2="98.1501186%" y2="50.0048482%" id="linearGradient-1">
            <stop stop-color="#4E82E7" offset="0%"></stop>
            <stop stop-color="#6039E4" offset="48%"></stop>
            <stop stop-color="#771EE3" offset="100%"></stop>
        </linearGradient>
        <linearGradient x1="-243.294329%" y1="50%" x2="198.289829%" y2="50%" id="linearGradient-2">
            <stop stop-color="#4E82E7" offset="0%"></stop>
            <stop stop-color="#6039E4" offset="48%"></stop>
            <stop stop-color="#771EE3" offset="100%"></stop>
        </linearGradient>
        <linearGradient x1="-178.598024%" y1="50.1129895%" x2="269.399733%" y2="50.1129895%" id="linearGradient-3">
            <stop stop-color="#4E82E7" offset="0%"></stop>
            <stop stop-color="#6039E4" offset="48%"></stop>
            <stop stop-color="#771EE3" offset="100%"></stop>
        </linearGradient>
    </defs>
    <g id="02-CRYPTOCONTADOR" stroke="none" stroke-width="1" fill="none" fill-rule="evenodd">
        <g id="INTERNA-CRYPTO-CONTADOR" transform="translate(-134.000000, -2648.000000)" fill-rule="nonzero">
            <g id="servicio-04" transform="translate(134.000000, 2648.000000)">
                <rect id="Rectangle" x="0.00196360727" y="0.00484863076" width="50" height="50"></rect>
                <path d="M49.5019636,25.5148486 L46.0019636,22.5948486 C43.5019636,20.5015153 40.9919636,18.418182 38.4719636,16.3448486 C37.8800864,15.9208431 37.5938907,15.1877117 37.7419636,14.4748486 C38.2229997,10.895631 37.1574862,7.28088547 34.8119636,4.53484863 C31.0931617,0.153944918 24.9178032,-1.22535265 19.6884102,1.15692641 C14.4590171,3.53920547 11.4470132,9.10385698 12.3119636,14.7848486 C12.4280606,15.2912997 12.2314415,15.8182389 11.8119636,16.1248486 C10.2619636,17.3948486 8.72196361,18.6848486 7.17196361,20.0048486 L0.331963607,25.6848486 C-0.108036393,26.0548486 0.00196360727,26.2248486 0.0419636073,26.2848486 C0.246975537,26.5185606 0.51954019,26.6827983 0.821963607,26.7548486 C1.07697148,26.7961164 1.33695573,26.7961164 1.59196361,26.7548486 L5.94196361,26.7548486 L5.94196361,49.0048486 C5.94196361,49.8748486 6.04196361,50.0048486 6.94196361,50.0048486 L43.1019636,50.0048486 C44.0019636,50.0048486 44.1019636,49.8948486 44.1019636,49.0048486 L44.1019636,26.7748486 L49.0019636,26.7748486 C49.5919636,26.7748486 49.8119636,26.7248486 49.9319636,26.3948486 C50.0519636,26.0648486 50.0019636,25.9048486 49.5019636,25.5148486 Z M16.7719636,4.51484863 C18.9584196,2.34360805 21.9206569,1.13423777 25.0019636,1.15484863 L25.0819636,1.15484863 C31.5260688,1.20962704 36.7257568,6.44053104 36.7419636,12.8848486 C36.7340173,15.9905369 35.4926613,18.9658664 33.290982,21.1562935 C31.0893027,23.3467206 28.1076518,24.5728153 25.0019636,24.5648872 L25.0019636,24.5648872 C18.5353772,24.5538252 13.2974671,19.3114421 13.2919461,12.8448486 C13.2865409,9.72236159 14.5412619,6.72977991 16.7719636,4.54484863 L16.7719636,4.51484863 Z M21.8519636,48.7948486 L13.1219636,48.7948486 L13.1219636,31.0048486 L21.8519636,31.0048486 L21.8519636,48.7948486 Z M43.9119636,25.6448486 C43.0819636,25.6448486 42.9719636,25.7548486 42.9719636,26.5748486 L42.9719636,48.8448486 L23.0019636,48.8448486 L23.0019636,30.9448486 C23.0019636,29.8848486 22.9519636,29.8348486 21.8819636,29.8348486 L12.8819636,29.8348486 C12.0719636,29.8348486 11.9419636,29.9648486 11.9419636,30.8348486 L11.9419636,48.8348486 L7.07196361,48.8348486 L7.07196361,26.7748486 C7.07196361,25.7048486 7.01196361,25.6448486 5.97196361,25.6448486 L3.53196361,25.6448486 C3.44996782,25.6398667 3.36912722,25.623025 3.29196361,25.5948486 L2.55196361,25.3148486 L12.6919636,16.8548486 L12.8919636,17.3248486 C15.2419636,22.6348486 19.0719636,25.3248486 24.6119636,25.6848486 C27.3014533,25.820374 29.960033,25.0607798 32.1719636,23.5248486 C34.4290618,22.0221497 36.1543334,19.8454378 37.1019636,17.3048486 L37.3019636,16.8148486 L47.8919636,25.6548486 L43.9119636,25.6448486 Z" id="Shape" fill="url(#linearGradient-1)"></path>
                <path d="M33.9419636,29.8348486 L27.8719636,29.8348486 C27.1619636,29.8348486 27.0019636,29.9948486 27.0019636,30.6548486 C27.0019636,33.8048486 27.0019636,36.9448486 27.0019636,40.0948486 C27.0019636,40.7048486 27.1619636,40.8748486 27.7619636,40.8748486 C30.9419636,40.8748486 34.1219636,40.8748486 37.3019636,40.8748486 C37.9519636,40.8748486 38.1019636,40.7148486 38.1119636,40.0648486 L38.1119636,30.6948486 C38.1119636,29.9848486 37.9519636,29.8348486 37.2019636,29.8348486 L33.9419636,29.8348486 Z M36.9419636,39.6948486 L28.1719636,39.6948486 L28.1719636,31.0048486 L36.9419636,31.0048486 L36.9419636,39.6948486 Z" id="Shape" fill="url(#linearGradient-2)"></path>
                <path d="M20.6519636,18.2848486 L24.3319636,18.2848486 L24.3319636,19.4848486 C24.3008842,19.8381772 24.392723,20.1914033 24.5919636,20.4848486 C24.705858,20.5881464 24.859629,20.6357422 25.0119636,20.6148486 C25.2419636,20.6148486 25.6719636,20.6148486 25.6719636,19.4748486 L25.6719636,18.1748486 L26.2519636,18.2248486 C28.1419636,18.3748486 29.2519636,17.9648486 29.9519636,16.8648486 C30.748131,15.7085706 30.6359588,14.154778 29.6819636,13.1248486 L29.4319636,12.8448486 L29.6319636,12.5348486 L29.7819636,12.2948486 C30.566185,11.3799849 30.6902992,10.0707804 30.0919636,9.02484863 C29.5513655,7.94550549 28.4164981,7.29532107 27.2119636,7.37484863 L25.6519636,7.37484863 L25.6519636,5.81484863 C25.7012861,5.45857033 25.4646321,5.12550175 25.1119636,5.05484863 L25.0019636,5.05484863 C24.4719636,5.05484863 24.3419636,5.47484863 24.3319636,5.83484863 L24.3319636,7.43484863 L20.5319636,7.43484863 C19.6519636,7.43484863 19.5319636,7.56484863 19.5319636,8.43484863 L19.5319636,17.2048486 C19.5119636,18.1548486 19.6419636,18.2848486 20.6519636,18.2848486 Z M28.5519636,16.5148486 C28.1919194,16.8372722 27.7128353,16.9933375 27.2319636,16.9448486 L20.9019636,16.9448486 L20.9019636,13.5448486 L21.6219636,13.5448486 L27.2119636,13.5448486 C27.7481702,13.5230229 28.2706527,13.7176026 28.6619636,14.0848486 C28.9728791,14.4058508 29.1421668,14.838075 29.1319636,15.2848486 C29.1169813,15.7573993 28.9070215,16.2026589 28.5519636,16.5148486 Z M20.8419636,8.80484863 L21.4319636,8.73484863 L27.5519636,8.73484863 C28.4229322,8.89798664 29.0298229,9.69285593 28.9577268,10.5760334 C28.8856307,11.4592108 28.1578594,12.1451281 27.2719636,12.1648486 L20.8419636,12.1648486 L20.8419636,8.80484863 Z" id="Shape" fill="url(#linearGradient-3)"></path>
            </g>
        </g>
    </g>
</svg>