<?xml version="1.0" encoding="UTF-8"?>
<svg width="300px" height="60px" viewBox="0 0 300 60" version="1.1" xmlns="http://www.w3.org/2000/svg" xmlns:xlink="http://www.w3.org/1999/xlink">
    <title>Recurso 11 Copy 3</title>
    <defs>
        <radialGradient cx="-20.5371317%" cy="0.765348022%" fx="-20.5371317%" fy="0.765348022%" r="306.730385%" gradientTransform="translate(-0.205371,0.007653),scale(0.928752,1.000000),translate(0.205371,-0.007653)" id="radialGradient-1">
            <stop stop-color="#4E82E7" offset="1%"></stop>
            <stop stop-color="#6039E4" offset="52%"></stop>
        </radialGradient>
        <radialGradient cx="-1043.50927%" cy="-638.659058%" fx="-1043.50927%" fy="-638.659058%" r="2690.08559%" gradientTransform="translate(-10.435093,-6.386591),scale(1.000000,0.998877),translate(10.435093,6.386591)" id="radialGradient-2">
            <stop stop-color="#4E82E7" offset="1%"></stop>
            <stop stop-color="#6039E4" offset="52%"></stop>
        </radialGradient>
        <radialGradient cx="-687.803138%" cy="2.06847361%" fx="-687.803138%" fy="2.06847361%" r="2690.08559%" gradientTransform="translate(-6.878031,0.020685),scale(1.000000,0.998877),translate(6.878031,-0.020685)" id="radialGradient-3">
            <stop stop-color="#4E82E7" offset="1%"></stop>
            <stop stop-color="#6039E4" offset="52%"></stop>
        </radialGradient>
        <radialGradient cx="-281.954351%" cy="-638.659058%" fx="-281.954351%" fy="-638.659058%" r="2690.08559%" gradientTransform="translate(-2.819544,-6.386591),scale(1.000000,0.998877),translate(2.819544,6.386591)" id="radialGradient-4">
            <stop stop-color="#4E82E7" offset="1%"></stop>
            <stop stop-color="#6039E4" offset="52%"></stop>
        </radialGradient>
    </defs>
    <g id="01-HOME" stroke="none" stroke-width="1" fill="none" fill-rule="evenodd">
        <g id="Recurso-11-Copy-3" transform="translate(0.000000, -0.000000)" fill-rule="nonzero">
            <path d="M42.5416652,60 C31.2888524,59.9856905 21.8451568,51.505417 20.6122523,40.307761 L2.3816589,40.307761 C1.53010329,40.3044099 0.744590947,39.8479046 0.319394328,39.1092632 C-0.10580229,38.3706218 -0.106507867,37.4613282 0.317541923,36.7220263 L20.8123204,1.19687353 C21.2366527,0.459059077 22.0211482,0.00309333135 22.8715576,0 L22.8715576,0 C23.7254559,0 24.5144783,0.456040165 24.9405543,1.19687353 L34.3047162,17.4303833 C41.1034222,14.6910004 48.8171519,15.5104508 54.8902041,19.6172354 C60.9632563,23.72402 64.6028303,30.5819625 64.6028303,37.9188996 C64.6028303,38.5533124 64.3507618,39.1616701 63.9022107,39.6098092 C63.4536596,40.0579483 62.8454716,40.3090583 62.2117729,40.307761 L47.4604121,40.307761 L54.9458859,53.4977929 C55.5815513,54.6155032 55.2191717,56.0364197 54.1260948,56.7122526 C50.6446747,58.8642539 46.6332406,60.0027254 42.5416652,60 Z M25.4236455,40.307761 C26.1692176,45.6966417 29.4029453,50.4207142 34.1539385,53.0616288 C38.9049316,55.7025434 44.6199358,55.9527651 49.5830856,53.7371676 L41.9609799,40.307761 L25.4236455,40.307761 Z M44.7375344,35.5251531 L59.659685,35.5251531 C58.9398853,30.370152 55.9403329,25.8134148 51.4924617,23.1180053 C47.0445906,20.4225958 41.6210068,19.8749132 36.7250519,21.6267675 L44.7375344,35.5251531 Z M25.4236455,35.5251531 L39.223463,35.5251531 L32.4894644,23.8495322 C28.6362761,26.6083015 26.0821848,30.8287042 25.4236455,35.5251531 L25.4236455,35.5251531 Z M6.51965226,35.5251531 L20.6122523,35.5251531 C21.3156218,29.1173103 24.7785468,23.336304 30.0935272,19.6971147 L22.8715576,7.1714695 L6.51965226,35.5251531 Z" id="Shape" fill="url(#radialGradient-1)"></path>
            <ellipse id="Oval" fill="url(#radialGradient-2)" cx="61.5432527" cy="47.6257861" rx="3.42067612" ry="3.42452312"></ellipse>
            <ellipse id="Oval" fill="url(#radialGradient-3)" cx="37.2081431" cy="3.74206118" rx="3.42067612" ry="3.42452312"></ellipse>
            <ellipse id="Oval" fill="url(#radialGradient-4)" cx="9.44259804" cy="47.6257861" rx="3.42067612" ry="3.42452312"></ellipse>
            <path d="M110.179314,37.3375612 L94.0274765,37.3375612 L91.5241857,43.6883173 L86.0345129,43.6883173 L99.5122696,11.3336574 L104.689641,11.3336574 L118.216195,43.6834321 L112.716763,43.6834321 L110.179314,37.3375612 Z M108.529972,33.1851437 L102.103395,17.0639935 L95.6768182,33.1851437 L108.529972,33.1851437 Z" id="Shape" fill="#606060"></path>
            <path d="M117.859976,30.9037567 C117.859976,23.0434746 123.125182,17.6355615 130.757047,17.6355615 C138.881763,17.6355615 143.790751,23.6248131 143.166148,32.2032191 L122.856798,32.2032191 C123.037347,37.1616941 126.116444,39.9755676 131.069349,39.9755676 C134.641296,39.9755676 136.959158,38.7689239 138.208363,36.3116698 L142.809929,37.0249085 C140.755571,41.7635497 136.739571,44.176837 130.981514,44.176837 C123.037347,44.176837 117.859976,38.9008242 117.859976,30.9037567 Z M138.476747,28.2706355 C138.120528,24.2012663 135.353733,21.6121119 130.844882,21.6121119 C126.560497,21.6121119 123.574115,23.844647 122.99343,28.2706355 L138.476747,28.2706355 Z" id="Shape" fill="#606060"></path>
            <path d="M147.050396,33.4977963 L147.050396,22.0126981 L143.341817,22.0126981 L143.341817,18.1045404 L147.050396,18.1045404 L147.050396,13.4342921 L152.091136,12.3644339 L152.091136,18.1289664 L159.635166,18.1289664 L159.635166,22.0371241 L152.091136,22.0371241 L152.091136,32.9164578 C152.091136,38.1875854 153.476973,40.0195343 157.356342,40.0195343 C158.045117,39.9873128 158.731226,39.9122618 159.4107,39.7948153 L160.07922,43.7029729 C158.934183,43.9372222 157.768683,44.0566852 156.599987,44.0595923 C150.036778,44.0400515 147.050396,41.3141115 147.050396,33.4977963 Z" id="Path" fill="#606060"></path>
            <path d="M160.484236,30.9037567 C160.484236,23.0434746 165.749442,17.6355615 173.381307,17.6355615 C181.520662,17.6355615 186.400371,23.6248131 185.790407,32.2032191 L165.481058,32.2032191 C165.661607,37.1616941 168.740703,39.9755676 173.693608,39.9755676 C177.265555,39.9755676 179.583417,38.7689239 180.832623,36.3116698 L185.424429,37.0249085 C183.374951,41.7635497 179.358951,44.176837 173.600894,44.176837 C165.661607,44.176837 160.484236,38.9008242 160.484236,30.9037567 Z M181.101007,28.2706355 C180.744788,24.2012663 177.977993,21.6121119 173.469142,21.6121119 C169.184757,21.6121119 166.193495,23.844647 165.61769,28.2706355 L181.101007,28.2706355 Z" id="Shape" fill="#606060"></path>
            <path d="M189.494106,18.1289664 L194.490929,18.1289664 L194.490929,22.4181694 C195.46687,19.6922295 198.150711,17.1861234 203.464714,17.9482141 L202.927946,22.7747888 C197.213806,21.7000455 194.490929,24.7826048 194.490929,31.0405422 L194.490929,43.6834321 L189.494106,43.6834321 L189.494106,18.1289664 Z" id="Path" fill="#606060"></path>
            <path d="M205.470274,18.1289664 L210.471976,18.1289664 L210.471976,22.7747888 C211.628467,19.5994107 214.531894,17.6795283 218.816279,17.6795283 C225.867459,17.6795283 229.127104,21.7440122 229.127104,29.8338985 L229.127104,43.6834321 L224.125402,43.6834321 L224.125402,30.2344847 C224.125402,24.6507045 221.98321,22.0126981 217.254772,22.0126981 C212.433619,22.0126981 210.471976,25.1880761 210.471976,30.8060527 L210.471976,43.6834321 L205.470274,43.6834321 L205.470274,18.1289664 Z" id="Path" fill="#606060"></path>
            <path d="M232.606337,32.0224668 L232.606337,18.1289664 L237.608039,18.1289664 L237.608039,31.6218806 C237.608039,37.1616941 239.613599,39.7948153 244.439632,39.7948153 C249.265664,39.7948153 251.222427,36.6243224 251.222427,31.0014606 L251.222427,18.1289664 L256.224129,18.1289664 L256.224129,43.6834321 L251.217548,43.6834321 L251.217548,39.0376097 C250.104974,42.2081026 247.15763,44.176837 242.922042,44.176837 C235.865983,44.176837 232.606337,40.0586159 232.606337,32.0224668 Z" id="Path" fill="#606060"></path>
            <path d="M260.991605,18.1289664 L265.993307,18.1289664 L265.993307,22.9604263 C266.886294,19.6531479 269.784841,17.6892987 273.756924,17.6892987 C278.041309,17.6892987 280.139584,19.2965285 281.525421,23.7664838 C282.730709,19.8583262 286.122107,17.6453319 290.894463,17.6453319 C297.32104,17.6453319 300,21.4850968 300,30.6936932 L300,43.6834321 L295.003178,43.6834321 L295.003178,31.084509 C295.003178,24.5627709 293.305039,21.9687313 289.064572,21.9687313 C284.672834,21.9687313 282.862461,24.6507045 282.862461,30.9965754 L282.862461,43.6980877 L277.865639,43.6980877 L277.865639,31.1284757 C277.865639,24.4259854 276.34805,22.0126981 272.195417,22.0126981 C267.867115,22.0126981 265.993307,24.9193903 265.993307,31.4850951 L265.993307,43.6980877 L260.991605,43.6980877 L260.991605,18.1289664 Z" id="Path" fill="#606060"></path>
        </g>
    </g>
</svg>