<?xml version="1.0" encoding="UTF-8"?>
<svg width="70px" height="11px" viewBox="0 0 70 11" version="1.1" xmlns="http://www.w3.org/2000/svg" xmlns:xlink="http://www.w3.org/1999/xlink">
    <title>Combined Shape 2</title>
    <g id="01-HOME" stroke="none" stroke-width="1" fill="none" fill-rule="evenodd">
        <g id="AETERNUM" transform="translate(-1320.000000, -3193.000000)" fill="#A4A4A4" fill-rule="nonzero">
            <g id="Combined-Shape-2" transform="translate(1320.000000, 3193.000000)">
                <path d="M14.6312261,2.11066488 C17.289272,2.11066488 18.8952746,4.11661461 18.6909323,6.98973672 L12.0466156,6.98973672 C12.1056833,8.65045367 13.1130268,9.59289008 14.7333972,9.59289008 C15.9019796,9.59289008 16.660281,9.18875502 17.0689655,8.36575933 L18.5743934,8.60464079 C17.9022989,10.1917299 16.5884419,11 14.7046616,11 C12.1056833,11 10.4118774,9.23293173 10.4118774,6.55451435 C10.4118774,3.92190986 12.1344189,2.11066488 14.6312261,2.11066488 Z M6.10312899,0 L10.5284163,10.8347464 L8.72924649,10.8347464 L7.899106,8.70935594 L2.61494253,8.70935594 L1.79597701,10.8363826 L-2.66453526e-15,10.8363826 L4.40932312,0 L6.10312899,0 Z M5.25702427,1.91923249 L3.15453384,7.31860776 L7.35951469,7.31860776 L5.25702427,1.91923249 Z M14.6599617,3.44251078 C13.2583014,3.44251078 12.2812899,4.19024245 12.0913155,5.67261639 L17.1567688,5.67261639 C17.0402299,4.30968318 16.1350575,3.44251078 14.6599617,3.44251078 Z M19.9616858,7.42332292 L19.9616858,3.57667708 L18.7484036,3.57667708 L18.7484036,2.26773762 L19.9616858,2.26773762 L19.9616858,0.703554961 L21.6107918,0.345232783 L21.6107918,2.27591849 L24.0788633,2.27591849 L24.0788633,3.58485795 L21.6107918,3.58485795 L21.6107918,7.22861818 C21.6107918,8.99405028 22.0641762,9.60761565 23.3333333,9.60761565 C23.55867,9.59682386 23.7831343,9.57168739 24.0054278,9.53235163 L24.2241379,10.8412911 C23.8495327,10.919747 23.468233,10.9597582 23.0858876,10.9607318 C20.9386973,10.9541871 19.9616858,10.0412018 19.9616858,7.42332292 Z M24.3566411,6.55451435 C24.3566411,3.92190986 26.0791826,2.11066488 28.5759898,2.11066488 C31.238825,2.11066488 32.835249,4.11661461 32.635696,6.98973672 L25.9913793,6.98973672 C26.050447,8.65045367 27.0577905,9.59289008 28.6781609,9.59289008 C29.8467433,9.59289008 30.6050447,9.18875502 31.0137292,8.36575933 L32.5159642,8.60464079 C31.8454662,10.1917299 30.5316092,11 28.6478289,11 C26.050447,11 24.3566411,9.23293173 24.3566411,6.55451435 Z M31.1015326,5.67261639 C30.9849936,4.30968318 30.0798212,3.44251078 28.6047254,3.44251078 C27.2030651,3.44251078 26.2244572,4.19024245 26.0360792,5.67261639 L31.1015326,5.67261639 Z M33.8473819,2.27591849 L35.4821201,2.27591849 L35.4821201,3.71247955 C35.8014049,2.79949427 36.6794381,1.96013684 38.4179438,2.21538004 L38.2423372,3.83192027 C36.3729246,3.47196192 35.4821201,4.50438792 35.4821201,6.60032723 L35.4821201,10.8347464 L33.8473819,10.8347464 L33.8473819,2.27591849 Z M39.0740741,2.27591849 L40.7104087,2.27591849 L40.7104087,3.83192027 C41.0887612,2.76840696 42.0386335,2.12539045 43.4402937,2.12539045 C45.7471264,2.12539045 46.8135377,3.48668749 46.8135377,6.19619218 L46.8135377,10.8347464 L45.1772031,10.8347464 L45.1772031,6.33035847 C45.1772031,4.46021122 44.4763729,3.57667708 42.9294381,3.57667708 C41.3521711,3.57667708 40.7104087,4.64019039 40.7104087,6.52179087 L40.7104087,10.8347464 L39.0740741,10.8347464 L39.0740741,2.27591849 Z M47.951788,6.92919827 L47.951788,2.27591849 L49.5881226,2.27591849 L49.5881226,6.79503198 C49.5881226,8.65045367 50.2442529,9.53235163 51.8231162,9.53235163 C53.4019796,9.53235163 54.0421456,8.47047449 54.0421456,6.58723784 L54.0421456,2.27591849 L55.6784802,2.27591849 L55.6784802,10.8347464 L54.0405492,10.8347464 L54.0405492,9.27874461 C53.6765645,10.3406217 52.7123244,11 51.3266284,11 C49.0181992,11 47.951788,9.62070504 47.951788,6.92919827 Z M57.2381865,2.27591849 L58.8745211,2.27591849 L58.8745211,3.8940949 C59.1666667,2.78640488 60.1149425,2.1286628 61.4144317,2.1286628 C62.816092,2.1286628 63.5025543,2.66696415 63.9559387,4.16406366 C64.3502554,2.8551242 65.4597701,2.11393723 67.0210728,2.11393723 C69.1235632,2.11393723 70,3.39997025 70,6.48415886 L70,10.8347464 L68.3652618,10.8347464 L68.3652618,6.6150528 C68.3652618,4.43076008 67.8097063,3.56195151 66.4224138,3.56195151 C64.9856322,3.56195151 64.3933589,4.46021122 64.3933589,6.58560167 L64.3933589,10.8396549 L62.7586207,10.8396549 L62.7586207,6.62977837 C62.7586207,4.3849472 62.2621328,3.57667708 60.903576,3.57667708 C59.4875479,3.57667708 58.8745211,4.5502008 58.8745211,6.7492191 L58.8745211,10.8396549 L57.2381865,10.8396549 L57.2381865,2.27591849 Z" id="Combined-Shape"></path>
            </g>
        </g>
    </g>
</svg>