<?xml version="1.0" encoding="UTF-8"?>
<svg width="120px" height="25px" viewBox="0 0 120 25" version="1.1" xmlns="http://www.w3.org/2000/svg" xmlns:xlink="http://www.w3.org/1999/xlink">
    <title>bitcoin</title>
    <g id="01-HOME" stroke="none" stroke-width="1" fill="none" fill-rule="evenodd">
        <g id="AETERNUM" transform="translate(-998.000000, -3719.000000)" fill="#747293" fill-rule="nonzero">
            <g id="bitcoin" transform="translate(998.000000, 3719.000000)">
                <path d="M15.4850823,0.373230137 C22.1666777,2.03895219 26.2323802,8.80706853 24.5666582,15.4882742 L24.5670479,15.4882742 C22.9013258,22.1706491 16.1343787,26.2355722 9.45200381,24.5698501 C2.7731365,22.9041281 -1.29295573,16.1367912 0.373545789,9.45597522 C2.03848838,2.77360031 8.80504578,-1.29249192 15.4850823,0.373230137 Z M11.9579918,4.34578627 L11.3975547,6.59299108 C11.0997981,6.52517741 10.8074978,6.45814321 10.5237716,6.3876014 L10.5253306,6.38058619 L8.63823973,5.90939808 L8.27422841,7.37089965 C8.27422841,7.37089965 9.28948483,7.6035707 9.26804947,7.61799085 C9.82225087,7.75634633 9.92241244,8.12308579 9.90565389,8.41382717 L9.26727001,10.9747677 C9.30546391,10.984511 9.3549601,10.9989311 9.40952283,11.0203665 L9.2649316,10.984511 L8.37010291,14.5720102 C8.30228924,14.7403752 8.13041665,14.9929226 7.74263157,14.8970481 C7.74847758,14.90533 7.57684587,14.8636095 7.37461961,14.8121175 L7.12666324,14.7482116 C6.92346265,14.6953393 6.74842077,14.6487877 6.74842077,14.6487877 L6.06911484,16.2155174 L7.84980835,16.6598139 C8.18108204,16.7424375 8.50573026,16.8293481 8.82531193,16.9111922 L8.25902879,19.1848989 L9.62582506,19.5259159 L10.1862622,17.275983 C10.5596271,17.3777035 10.9220795,17.4708498 11.2767372,17.5593194 L10.717859,19.7983398 L12.0858245,20.1393568 L12.6524974,17.8699372 C14.9858333,18.3115055 16.7404147,18.1333972 17.4789602,16.0233787 C18.0740836,14.3241395 17.4493404,13.3439591 16.2216791,12.704406 C17.1157283,12.4978472 17.7891882,11.9097389 17.9688555,10.6949388 C18.2171159,9.03545251 16.9535991,8.14335195 15.2259093,7.54822851 L15.7863465,5.30024423 L14.4179913,4.9592272 L13.872364,7.14797195 C13.5078984,7.05842076 13.1425707,6.97241545 12.7764327,6.8899682 L13.3259573,4.6868033 L11.9579918,4.34578627 Z M11.3819653,12.616716 C12.3095317,12.8486075 15.2839797,13.3069344 14.8420216,15.0786641 C14.4191605,16.7779032 11.558125,15.8596905 10.6305587,15.6289681 L11.3819653,12.616716 Z M12.4069651,8.50619407 C13.1794174,8.69872254 15.6670879,9.05805706 15.2652724,10.6703856 C14.879436,12.2160697 12.4981628,11.4307561 11.7257105,11.2382277 L12.4069651,8.50619407 Z" id="Combined-Shape"></path>
                <path d="M36.5474634,7.54589011 C37.5588225,7.54589011 38.4326056,7.7271163 39.1664743,8.08294322 C39.90463,8.44227774 40.5133941,8.92632706 41.0017305,9.53509118 C41.4834414,10.1469732 41.8419965,10.8621346 42.0734983,11.6817447 C42.3034412,12.5040829 42.4188024,13.3872196 42.4188024,14.3327137 C42.4188024,15.7864206 42.1526143,17.1582834 41.6151714,18.4521994 C41.0773388,19.7480641 40.3485367,20.872446 39.4209704,21.831191 C38.4941835,22.7887669 37.3998112,23.5432914 36.1378533,24.1010004 C34.877844,24.6590992 33.5079299,24.9381485 32.0370747,24.9381485 C31.8468847,24.9381485 31.5124931,24.9326922 31.0401358,24.9229489 C30.5677785,24.9132056 30.0248794,24.8644888 29.4168947,24.7826448 C28.76338,24.6893268 28.1151576,24.5621019 27.4748514,24.4014851 C26.8047571,24.2396902 26.1537539,24.0071424 25.5328081,23.7077591 L30.9937575,0.76101522 L35.8849161,0.00337280627 L33.9296218,8.14608008 C34.3362546,7.96229834 34.7582762,7.814669 35.1908002,7.70490148 C35.6347513,7.59698792 36.090201,7.54359037 36.5470737,7.54589011 L36.5474634,7.54589011 Z M32.4447362,21.0579593 C33.181333,21.0579593 33.8750591,20.8767331 34.5274734,20.5212959 C35.1832439,20.1628009 35.7587302,19.6739227 36.2185282,19.0847373 C36.6990209,18.4704132 37.0771257,17.7825073 37.3382332,17.047599 C37.6120261,16.2879356 37.7510411,15.4862914 37.7490345,14.6787972 C37.7490345,13.6686073 37.5802579,12.8821246 37.2439177,12.3119442 C36.9075774,11.7448815 36.2851726,11.4595964 35.3809903,11.4595964 C35.0847927,11.4595964 34.7036331,11.5161078 34.2304963,11.6170489 C33.7558006,11.7242257 33.3309908,11.9467636 32.9502209,12.2815449 L30.8678735,20.9289574 C30.9933677,20.9511722 31.1044419,20.9722179 31.1991472,20.9920943 C31.2919038,21.0135296 31.394014,21.0287293 31.496514,21.0392521 C31.6044703,21.0513338 31.7280159,21.0575696 31.8772839,21.0575696 L32.4443465,21.0579593 L32.4447362,21.0579593 Z M47.4911872,24.4993083 L42.8194487,24.4993083 L46.7647235,7.89781968 L51.4684201,7.89781968 L47.4911872,24.4993083 Z M49.7645042,5.87510151 C49.127154,5.88038715 48.5058278,5.67547007 47.9966719,5.29205982 C47.4678032,4.90544394 47.2055124,4.3103205 47.2055124,3.50824844 C47.2055124,3.06706983 47.2951511,2.65317259 47.4732594,2.26265937 C47.6453798,1.88436692 47.8867492,1.54161179 48.1849133,1.25207975 C48.4837442,0.966842022 48.8307819,0.736847128 49.209913,0.572773818 C49.6044934,0.404153301 50.0295279,0.318456587 50.45862,0.320950567 C51.1102548,0.320950567 51.6979733,0.515093223 52.2248933,0.904047507 C52.749475,1.29495046 53.0133773,1.8900739 53.0133773,2.68785889 C53.0158971,3.11848184 52.924107,3.54444102 52.7444084,3.93578636 C52.5739589,4.31444497 52.3332712,4.65735877 52.035093,4.94636598 C51.7369556,5.23197347 51.3897252,5.46143603 51.0100932,5.62372324 C50.61958,5.79442663 50.2056828,5.87510151 49.7645042,5.87510151 L49.7645042,5.87510151 Z M55.5625732,3.76157538 L60.4556804,3.00354323 L59.2541313,7.89704022 L64.4944913,7.89704022 L63.5482178,11.7468302 L58.3394262,11.7468302 L56.951974,17.5538631 C56.8241413,18.0375227 56.7516509,18.4896139 56.7313847,18.9101366 C56.7080007,19.3322182 56.7617839,19.6946706 56.8880577,19.9998321 C57.013552,20.3057731 57.2388181,20.5415621 57.5661944,20.7079784 C57.8924016,20.8775126 58.3589129,20.9628642 58.9707949,20.9628642 C59.4747206,20.9628642 59.9661749,20.914927 60.4400911,20.819832 C60.9270157,20.723313 61.4063354,20.5917605 61.8743113,20.4262009 L62.2235127,24.0253921 C61.5530547,24.2681602 60.8678148,24.4679784 60.1719543,24.6236334 C59.4341883,24.7935573 58.5607949,24.8750117 57.5513845,24.8750117 C56.100016,24.8750117 54.9748547,24.6594889 54.1731724,24.2307818 C53.3726592,23.7989568 52.8067658,23.2081204 52.4680872,22.4606111 C52.1340854,21.7162196 51.9848174,20.8576361 52.0265189,19.8899272 C52.0693896,18.9202697 52.2159295,17.9007262 52.4680872,16.8277891 L55.5625732,3.76157538 Z M64.2891016,17.8703269 C64.2891016,16.4400041 64.5206035,15.091915 64.9828277,13.8291777 C65.4446622,12.5656608 66.1099377,11.4607656 66.9728082,10.5129332 C67.8329506,9.56977748 68.8809447,8.82187841 70.1148418,8.27313329 C71.3417236,7.72750604 72.7167043,7.45235401 74.2312096,7.45235401 C75.1798216,7.45235401 76.026713,7.54199277 76.7722737,7.72166003 C77.5205625,7.90288622 78.1971403,8.13711621 78.809412,8.43097546 L77.1986424,12.0944727 C76.7692773,11.9218995 76.3321812,11.7692215 75.8887473,11.6369253 C75.4366561,11.4977904 74.8851829,11.4307561 74.2323788,11.4307561 C72.6726644,11.4307561 71.4403262,11.9685887 70.522893,13.0395771 C69.6085776,14.1117346 69.1483021,15.5549187 69.1483021,17.3656217 C69.1483021,18.4385587 69.3801936,19.3057163 69.8447563,19.9694329 C70.3069805,20.6331495 71.1608871,20.9636437 72.4006302,20.9636437 C73.0121225,20.9636437 73.6029588,20.8997274 74.1684625,20.7750126 C74.7382533,20.6487388 75.2413995,20.4897275 75.6845268,20.3018758 L76.0337282,24.0573502 C75.3945306,24.3025197 74.7410454,24.5086779 74.0768751,24.6746885 C73.359765,24.8500687 72.5074173,24.9404869 71.5186627,24.9404869 C70.2138341,24.9404869 69.1085492,24.7499071 68.2051464,24.3734243 C67.3009641,23.991875 66.5538445,23.4848314 65.9649568,22.8425501 C65.3733409,22.19871 64.9489209,21.4465238 64.6862403,20.584043 C64.4235598,19.7215622 64.2887119,18.8146518 64.2887119,17.8703269 L64.2891016,17.8703269 Z M85.0424239,24.9393177 C83.9273957,24.9393177 82.9585175,24.7693938 82.1369588,24.4330536 C81.3177385,24.0971031 80.6396017,23.6247458 80.1025486,23.0128638 C79.564716,22.4040997 79.1629005,21.6827025 78.8873588,20.8514004 C78.611817,20.020488 78.4793075,19.1003266 78.4793075,18.0920854 C78.4793075,16.8277891 78.6819691,15.5634929 79.0927485,14.3019247 C79.5015792,13.0391873 80.1076152,11.9035032 80.9089077,10.8944825 C81.7051338,9.88390288 82.6872629,9.05766733 83.8424337,8.41343744 C84.9972148,7.77349462 86.3250377,7.45157454 87.8173282,7.45157454 C88.9120903,7.45157454 89.8751224,7.62188819 90.7083732,7.95822842 C91.5373369,8.29378918 92.2201504,8.76965409 92.7599317,9.37841821 C93.2938669,9.9903002 93.6999695,10.7085795 93.9720036,11.5414405 C94.2471557,12.3704042 94.382783,13.292904 94.382783,14.3019247 C94.382783,15.5623236 94.1824599,16.8273994 93.7853212,18.0916957 C93.387403,19.3505357 92.7969564,20.4885583 92.0174889,21.4995276 C91.2395803,22.508938 90.2671946,23.3343941 89.0983831,23.9758959 C87.93191,24.6177874 86.5783646,24.9393177 85.0424239,24.9393177 L85.0424239,24.9393177 Z M87.3769291,11.4311459 C86.6843722,11.4311459 86.0721005,11.6318588 85.5479086,12.0289975 C85.021768,12.430813 84.5801997,12.9362976 84.223983,13.5450617 C83.8638691,14.1569437 83.5972912,14.8241679 83.4168444,15.5494624 C83.2375669,16.2763159 83.1498768,16.964196 83.1498768,17.6162205 C83.1498768,18.6696709 83.3201905,19.4908399 83.6538026,20.0808968 C83.9920915,20.6678358 84.6008556,20.9636437 85.4847717,20.9636437 C86.179667,20.9636437 86.7892106,20.7637103 87.3161306,20.3626743 C87.8391533,19.9639766 88.2818909,19.458492 88.6404459,18.8477792 C88.9982215,18.2397945 89.2675275,17.5702319 89.4479743,16.8433785 C89.6245236,16.1188634 89.7145521,15.4278655 89.7145521,14.7762307 C89.7145521,13.7255085 89.5454077,12.9031703 89.2078983,12.3135031 C88.8719478,11.7261743 88.2604555,11.4307561 87.3769291,11.4307561 L87.3769291,11.4311459 Z M99.473875,24.4993083 L94.7986289,24.4993083 L98.7439037,7.89781968 L103.449549,7.89781968 L99.473875,24.4993083 L99.473875,24.4993083 Z M101.743684,5.87510151 C101.106918,5.88048192 100.48618,5.67553291 99.9778008,5.29205982 C99.4508807,4.90544394 99.1866412,4.3103205 99.1866412,3.50824844 C99.1866412,3.06706983 99.2778389,2.65317259 99.4555575,2.26265937 C99.6265458,1.88391575 99.8677595,1.54100616 100.166432,1.25207975 C100.465623,0.966739886 100.813063,0.736740871 101.192601,0.572773818 C101.585666,0.404120837 102.009309,0.318410234 102.437021,0.321005814 C103.090604,0.321005814 103.680271,0.515093223 104.206022,0.904047507 C104.731773,1.29495046 104.996792,1.8900739 104.996792,2.68785889 C104.996792,3.13059643 104.902476,3.54605261 104.725927,3.93578636 C104.549378,4.32552011 104.31203,4.66108088 104.018171,4.94636598 C103.719495,5.23129851 103.372393,5.46067599 102.993171,5.62372324 C102.601488,5.79442663 102.187591,5.87510151 101.743684,5.87510151 Z M106.816459,8.65273396 C107.171117,8.54906478 107.567086,8.42434998 107.997352,8.28872264 C108.476021,8.14028566 108.961538,8.01490698 109.452228,7.9130193 C109.985774,7.79609918 110.587912,7.70061441 111.25007,7.62695473 C111.911838,7.55173611 112.666752,7.51510114 113.50468,7.51510114 C115.968577,7.51510114 117.667036,8.23260098 118.604736,9.66331358 C119.541656,11.0940262 119.703785,13.0516588 119.0958,15.5338731 L116.946808,24.4977494 L112.244281,24.4977494 L114.327408,15.7221145 C114.454071,15.1745386 114.553453,14.6445007 114.627503,14.1269342 C114.702332,13.6140446 114.697655,13.1615637 114.611134,12.7706608 C114.534731,12.3958952 114.328538,12.060108 114.028872,11.8224386 C113.720592,11.5811934 113.25486,11.4599862 112.623492,11.4599862 C111.998235,11.4624525 111.374752,11.5266807 110.762123,11.6517352 L107.699985,24.4965802 L102.995899,24.4965802 L106.816459,8.65273396 L106.816459,8.65273396 Z" id="Shape"></path>
            </g>
        </g>
    </g>
</svg>