<?xml version="1.0" encoding="UTF-8"?>
<svg width="15px" height="12px" viewBox="0 0 15 12" version="1.1" xmlns="http://www.w3.org/2000/svg" xmlns:xlink="http://www.w3.org/1999/xlink">
    <title>Combined Shape 3</title>
    <g id="01-HOME" stroke="none" stroke-width="1" fill="none" fill-rule="evenodd">
        <g id="AETERNUM" transform="translate(-509.000000, -735.000000)" fill="#4E82E7" fill-rule="nonzero">
            <g id="Combined-Shape-3" transform="translate(509.000000, 735.000000)">
                <path d="M9.65742094,0.209704612 L9.7508497,0.292893219 L14.7095274,5.29289322 C15.0670321,5.65337718 15.0945325,6.22060824 14.7920285,6.61289944 L14.7095274,6.70710678 L9.7508497,11.7071068 C9.36355288,12.0976311 8.73562067,12.0976311 8.34832385,11.7071068 C7.9908191,11.3466228 7.96331873,10.7793918 8.26582276,10.3871006 L8.34832385,10.2928932 L11.612,7 L0.991735537,7 C0.444015124,7 0,6.55228475 0,6 C0,5.48716416 0.382849775,5.06449284 0.876078223,5.00672773 L0.991735537,5 L11.613,5 L8.34832385,1.70710678 C7.9908191,1.34662282 7.96331873,0.779391764 8.26582276,0.387100557 L8.34832385,0.292893219 C8.70582861,-0.0675907428 9.2683718,-0.0953202783 9.65742094,0.209704612 Z" id="Combined-Shape"></path>
            </g>
        </g>
    </g>
</svg>