<?xml version="1.0" encoding="UTF-8"?>
<svg width="61px" height="50px" viewBox="0 0 61 50" version="1.1" xmlns="http://www.w3.org/2000/svg" xmlns:xlink="http://www.w3.org/1999/xlink">
    <title>dash-diamond</title>
    <g id="01-HOME" stroke="none" stroke-width="1" fill="none" fill-rule="evenodd">
        <g id="AETERNUM" transform="translate(-901.000000, -3605.000000)" fill="#747293">
            <g id="dash-diamond" transform="translate(901.000000, 3605.000000)">
                <path d="M12.5972219,0 C24.2315504,1.58490161 35.821653,3.16380388 47.4118324,4.74262924 C47.4110633,4.76970317 47.4102942,4.79677709 47.409525,4.82385102 C46.671299,4.86892296 45.9332268,4.9171484 45.19477,4.95845152 C43.0729278,5.07705378 40.9507779,5.18850299 38.8291664,5.31087407 C36.3381343,5.45470432 33.8477944,5.61107164 31.3566853,5.75428656 C29.7467865,5.84681479 28.1358108,5.91942214 26.525912,6.01179654 C24.469601,6.12978349 22.4139822,6.2596922 20.3579789,6.38206328 C19.9361794,6.40713743 19.5137646,6.4202129 19.0918112,6.44113367 C18.8905258,6.45105564 18.7898446,6.53004691 18.7521565,6.75955998 C18.2109856,10.0539648 17.6548163,13.3458314 17.1057232,16.6389287 C16.8852092,17.9613209 16.673771,19.2852514 16.4557182,20.608105 C16.4438734,20.6794818 16.4088772,20.7470897 16.3678049,20.8649228 C15.7425663,20.2041497 15.1453247,19.5734503 14.5485446,18.9422124 C14.099748,18.4674188 13.6338765,18.0069312 13.2126923,17.5087556 C13.0634011,17.3322366 12.9508751,17.0645739 12.9462603,16.8359838 C12.9208015,15.5841992 12.9341078,14.3316455 12.9341078,13.0793225 C12.8796522,13.06717 12.8251967,13.0550175 12.7707412,13.0429419 C11.434889,14.9526537 10.0990367,16.8624424 8.73964865,18.8059198 C14.9368093,26.4323069 21.1301242,34.0540792 27.3234391,41.6757746 L27.3234391,41.6757746 L27.2917503,41.7236924 C27.2202967,41.6755439 27.1433821,41.6337024 27.0780817,41.578247 C22.3813704,37.5882268 17.6853514,33.5973605 12.9897939,29.6060328 C8.73334165,25.9879715 4.47765855,22.3690641 0.220206411,18.7521565 C0.155675088,18.6973164 0.0737610717,18.6628587 0,18.6188635 L0,18.6188635 L0,18.541949 C0.805910854,17.7774182 1.61743647,17.0186559 2.41673267,16.2472797 C5.57899826,13.1953096 8.73364931,10.1353404 11.9069137,7.09483059 C12.0932777,6.91631187 12.4182417,6.88239255 12.7280536,6.76202125 C12.6857506,4.57626303 12.6420631,2.31559001 12.5972219,0 Z M44.3926972,8.30697343 C45.1322308,8.34412317 45.802772,8.37527357 46.4730055,8.41219256 C47.2399976,8.45441866 48.0062975,8.51487351 48.773751,8.5401784 C49.0644881,8.54979272 49.2691578,8.64124415 49.4716738,8.85422059 C52.9589804,12.5205073 56.4545168,16.1790257 59.9480534,19.839467 C60.009662,19.9040752 60.0680402,19.9716831 60.1706442,20.0851321 C50.61224,26.4728871 41.0917546,32.8353371 31.7734777,39.0626483 C32.2668846,38.5365526 32.8951228,37.8179398 33.5744323,37.1513213 C35.7325013,35.0337863 37.9094912,32.9355568 40.0794051,30.8300205 C43.5733263,27.4397032 47.0674782,24.0496167 50.5613994,20.6592994 C50.8189094,20.4095578 51.0646515,20.1462023 51.3364676,19.9131511 C51.5452906,19.734094 51.5401373,19.595494 51.3943073,19.3665962 C49.2479293,15.9958921 47.1122425,12.6184965 44.9746328,9.24225459 C44.791653,8.95320964 44.6130574,8.66147268 44.3926972,8.30697343 Z M27.8020708,12.6139585 C29.8526901,12.6172659 31.903771,12.5993448 33.9538519,12.6354946 C35.0254256,12.6543387 36.0653875,12.8806983 37.0016686,13.4491739 C38.1367738,14.1384822 38.742476,15.1939809 38.8942285,16.4671477 C39.2050402,19.0735517 38.784856,21.5774286 37.5334559,23.8970182 C36.3564323,26.0787768 34.4547195,27.1951918 32.0025293,27.2712603 C29.6464822,27.3443291 27.2867432,27.3008724 24.9286963,27.3071794 C24.8922388,27.3073332 24.8557044,27.2896429 24.7726367,27.2683375 C24.9279272,26.310905 25.0842945,25.3784697 25.2273556,24.4439577 C25.2572668,24.2486374 25.3674864,24.2284041 25.4913543,24.2290208 L25.5993145,24.2310581 L25.5993145,24.2310581 L28.9831396,24.2330864 L28.9831396,24.2330864 L30.6749069,24.222213 C31.1965415,24.2160598 31.7255599,24.1653731 32.2365034,24.0621537 C33.5506657,23.7966446 34.4994069,23.0558035 34.9382814,21.7637157 C35.3470824,20.5599258 35.6755845,19.3246009 35.5649814,18.0415889 C35.4463791,16.665818 34.6705418,15.9292072 33.2931557,15.7789931 C32.8360524,15.7291524 32.3744112,15.7031553 31.9146159,15.7002325 C30.3124854,15.6900029 28.710278,15.6946947 27.1081476,15.6936948 L26.6415069,15.6936948 C26.7783379,14.8537877 26.9047085,14.0616446 27.0370785,13.2705782 C27.1468356,12.6141893 27.1499891,12.6128817 27.8020708,12.6139585 Z M24.3450225,18.7183602 C26.5212433,18.6895942 28.6980794,18.7072845 30.9538299,18.7072845 C30.7938476,19.3722879 30.6759375,19.9894504 30.49365,20.5869228 C30.2778277,21.2939984 29.7597312,21.7366417 29.0269661,21.7480251 C26.8504376,21.7817906 24.6730631,21.7601007 22.4140822,21.7601007 C22.6031382,21.0437953 22.7427381,20.3437958 22.9770199,19.6771003 C23.1916885,19.0662448 23.7153229,18.7267439 24.3450225,18.7183602 Z M8.42045749,45.4853567 L8.54988502,45.4864993 C9.29118764,45.4941907 10.0361822,45.4785771 10.772793,45.5466465 C12.0234239,45.6622491 12.5035246,46.3174843 12.3129303,47.5509632 C12.0850324,49.0260308 11.1882086,49.8426328 9.70675705,49.9298539 C9.59799985,49.9362378 9.49124243,49.9758488 9.38356203,50 L9.38356203,50 L6.92229583,50 L6.92229583,48.9980339 L6.92229583,48.9980339 L7.75901558,48.998408 L7.75901558,48.998408 L7.94225993,48.9977263 C8.42843692,48.9950342 8.91645986,49.0162627 9.40032941,48.9811896 C10.4582893,48.9044289 10.8832423,48.4817064 11.0099975,47.4334377 C11.0728367,46.9135722 10.8859343,46.6180664 10.3710682,46.5170007 C10.0607179,46.4560843 9.73667682,46.4522386 9.41832742,46.4469315 C8.80916403,46.4368557 8.1997699,46.4440087 7.6174497,46.4440087 C7.58599164,46.3818618 7.57399297,46.3696323 7.57530052,46.359095 C7.68544218,45.4844226 7.68559601,45.4776541 8.54988502,45.4864993 Z M9.11182286,47.2388285 C9.0956708,47.9369051 8.8739261,48.1725714 8.22345959,48.1798013 C7.45985175,48.1882619 6.69601316,48.1818011 5.9032547,48.1818011 C6.00655097,47.4015797 6.18399288,47.2409821 6.89345286,47.2392131 C7.63283261,47.2373671 8.37213545,47.2388285 9.11182286,47.2388285 Z M24.892085,46.706049 C24.5891954,46.6658227 24.2781529,46.6862819 23.9708023,46.6812825 C23.8129736,46.6787443 23.655068,46.680821 23.4697039,46.680821 C23.5552329,46.2529453 23.6269173,45.8941388 23.7040626,45.5079507 L22.4055908,45.5079507 C22.2099202,46.4537692 22.0115575,47.3789745 21.8290392,48.3073334 C21.7185899,48.8690405 21.6329071,49.4355932 21.5360716,49.9999923 L22.7667047,49.9999923 C22.9196878,49.2757647 23.081593,48.5532293 23.220193,47.8262328 C23.2608808,47.6131794 23.3316422,47.5263429 23.5615399,47.5204204 C24.466286,47.4970384 24.5471232,47.5848748 24.3592209,48.4736996 C24.279845,48.8492734 24.1904703,49.2231552 24.1250929,49.6011134 C24.1030185,49.7287146 24.1407066,49.8666994 24.151167,49.9999923 L25.3048855,49.9999923 C25.4622527,49.2895324 25.6481552,48.5839182 25.7690649,47.8673051 C25.8895131,47.1535379 25.6084673,46.8011923 24.892085,46.706049 M15.4317084,49.0861011 C15.1021295,49.0861011 14.7823187,49.118559 14.4721992,49.0778712 C14.0907798,49.0277998 13.9574869,48.8104393 13.9984823,48.4259433 C14.0503997,47.9386896 14.327369,47.6290315 14.8076236,47.5335805 C14.9574532,47.5038146 15.110667,47.486355 15.2631886,47.4767406 C15.4139411,47.4672032 15.5658474,47.474664 15.7671328,47.474664 C15.6471461,48.0510617 15.5409271,48.5613899 15.4317084,49.0861011 M16.7322568,46.6809825 C16.0151054,46.6847513 15.2941852,46.644525 14.5814948,46.7032877 C13.4512352,46.7965851 12.726623,47.5791909 12.6893964,48.6561487 C12.6687063,49.252698 12.9584435,49.6646525 13.5296111,49.8317878 C13.7595088,49.8990881 13.9957903,49.9445446 14.2291491,50 L16.5365862,50 C16.7706372,48.9068901 17.0046113,47.8137803 17.247123,46.6808287 C17.0363771,46.6808287 16.884317,46.6801365 16.7322568,46.6809825 M18.7891139,46.7101254 C18.5544476,46.7205089 18.3025524,46.8694924 18.1023438,47.0150917 C17.7557667,47.2672177 17.588939,47.8226947 17.7217705,48.1902694 C17.8796761,48.627298 18.2613262,48.6974441 18.6599744,48.7102119 C18.9797082,48.7205185 19.3005189,48.7052125 19.6196375,48.7223644 C19.6987826,48.7265947 19.7734666,48.8125852 19.8502273,48.8610414 C19.7850807,48.9425708 19.7350862,49.0534816 19.6504033,49.097246 C19.5681816,49.1397029 19.4503485,49.1163208 19.3480521,49.1165516 C18.8487996,49.1177053 18.3493164,49.1093216 17.8504485,49.123397 C17.7439219,49.1263966 17.5645571,49.190005 17.5477128,49.2577667 C17.4881809,49.4976633 17.484489,49.7514813 17.4595687,49.9999923 L19.7670058,49.9999923 C19.8878386,49.9652269 20.0083637,49.9290002 20.129658,49.8959269 C20.5936066,49.7692486 20.9279543,49.5042779 21.0681695,49.0271768 C21.2503032,48.40763 20.977718,47.9789082 20.3383272,47.919684 C20.008056,47.889072 19.6721701,47.919607 19.341822,47.8893796 C19.2036835,47.8766887 19.0734671,47.7777766 18.9396358,47.7180909 C19.0810047,47.6370229 19.2173743,47.4988844 19.3647426,47.4860396 C19.7458543,47.4527356 20.1318116,47.4745794 20.5159229,47.4745794 C21.2030008,47.4745024 21.2033084,47.4745794 21.2979903,46.7849633 C21.300913,46.7635811 21.2852225,46.7396606 21.2716855,46.6958193 C20.4478535,46.6958193 19.6171762,46.6733603 18.7891139,46.7101254 M30.0724735,48.8552112 C29.838884,49.0530355 29.5283799,49.2279392 29.2324126,49.2690885 C28.7457741,49.3366964 28.2429836,49.2873942 27.6940443,49.2873942 C27.8720246,48.516941 28.0403137,47.7688699 28.2239088,47.0244907 C28.2414453,46.9536524 28.3535867,46.8573553 28.4229637,46.8563554 C28.7803088,46.8512791 29.1407304,46.8502023 29.494922,46.89189 C29.9341811,46.9436535 30.2730667,47.1720897 30.3905153,47.619348 C30.5117326,48.0812199 30.446586,48.5384001 30.0724735,48.8552112 M29.8074259,46.4553998 C29.1140411,46.3857921 28.4081961,46.4404784 27.6713545,46.4404784 C27.4203054,47.5231278 27.1614878,48.6395428 26.8747503,49.8762521 C27.8852539,49.8050293 28.811613,49.7507276 29.7351262,49.665737 C29.9292586,49.6478159 30.1227756,49.5342131 30.2997561,49.4348394 C30.9575295,49.0655726 31.2679567,48.3941084 31.1421244,47.6474987 C31.0383667,47.032336 30.5449597,46.5294685 29.8074259,46.4553998 M40.917597,47.2952992 C40.440419,47.248612 40.0080053,47.353062 39.6472759,47.6722575 C39.174559,47.1773891 38.6015455,47.1473925 38.0118415,47.5125828 C37.7937887,47.4315149 37.6704177,47.3478318 37.5499695,47.3518314 C37.4371358,47.3556002 37.2486182,47.4321302 37.2285435,47.5110445 C37.0397951,48.2525779 36.8801205,49.0014951 36.7122929,49.747028 C37.2889214,49.8942425 37.3268403,49.8726295 37.444135,49.3590709 C37.5040515,49.096946 37.5518923,48.8310524 37.6301914,48.5744654 C37.6853391,48.3937161 37.7587925,48.2091212 37.8662422,48.0558304 C38.0643741,47.7731694 38.5301687,47.637569 38.7924474,47.7773997 C39.1344096,47.9597641 38.997194,48.253424 38.938662,48.5238556 C38.8487489,48.9398096 38.7587588,49.3557636 38.6679996,49.7756402 C39.2833931,49.8460939 39.2821625,49.8458632 39.4063026,49.3117684 C39.4757565,49.0126477 39.5399801,48.7117579 39.6246631,48.4168674 C39.7369583,48.0259107 39.9830849,47.7711696 40.4071919,47.7307126 C40.8274531,47.6906401 41.0331226,47.9218453 40.9425173,48.3366455 C40.839221,48.8089779 40.7287717,49.2796951 40.5879411,49.8980113 C40.8867542,49.7910231 41.2223325,49.7640261 41.2633279,49.6398091 C41.4305402,49.1335574 41.5422971,48.601847 41.6077514,48.0712903 C41.6672833,47.5885744 41.4085427,47.3433708 40.917597,47.2952992 M51.0625978,49.4346164 C50.5818049,49.443077 50.2523798,49.1571086 50.2361508,48.7171573 C50.2162299,48.1762171 50.6817169,47.7260362 51.2766511,47.710884 C51.8004393,47.6975008 52.1317873,47.9519342 52.1384788,48.37258 C52.1479393,48.9695909 51.6879902,49.4236176 51.0625978,49.4346164 M52.5318969,46.6568467 C52.4589049,46.966351 52.3829133,47.2751629 52.3062295,47.5924355 C51.3637184,46.9979628 50.1995395,47.339002 49.808352,47.9581643 C49.5440735,48.3764257 49.4609289,48.8112238 49.6885191,49.2672503 C49.9007264,49.6922033 50.2826072,49.8674147 50.7313268,49.8530316 C51.0919792,49.8415714 51.4504011,49.7594266 51.7399075,49.7185081 C51.9587295,49.7537349 52.1379404,49.8204199 52.3019223,49.7937305 C52.3893742,49.7795013 52.4899015,49.6135966 52.5175907,49.4998399 C52.753257,48.5305625 52.973848,47.5575932 53.1982078,46.5855469 C53.2255124,46.4671754 53.2479715,46.3475732 53.2730456,46.2264328 C52.6544218,46.1336738 52.6552678,46.1339046 52.5318969,46.6568467 M34.8537293,49.3436957 C34.513613,49.4699125 34.1519607,49.5431352 33.8324576,49.2985468 C33.6210195,49.1366417 33.7115479,48.8369056 34.0314356,48.7612216 C34.4591575,48.660079 34.9045698,48.6338511 35.4102062,48.5663201 C35.3479823,48.9867352 35.1692328,49.2266317 34.8537293,49.3436957 M35.4992732,47.3476857 C35.0267101,47.292461 34.5318418,47.334764 34.0588172,47.4096019 C33.7651574,47.4560583 33.5086473,47.6570361 33.4628831,48.1159084 C33.733084,48.0408398 33.9987469,48.0391477 34.1582677,47.9081622 C34.5165358,47.6141178 34.897186,47.6401918 35.2787592,47.7512564 C35.408514,47.7890215 35.4897358,47.9937681 35.5931859,48.1222154 C35.5650352,48.1620572 35.5369614,48.2018989 35.5088876,48.2417406 C35.3199854,48.2417406 35.1287758,48.2226658 34.9427963,48.2455864 C34.5006914,48.3000419 34.0512796,48.3375762 33.6231731,48.4511021 C33.1961434,48.5643203 33.0135482,48.8600569 33.0526208,49.204711 C33.0897705,49.5321364 33.3628942,49.7874158 33.7720028,49.8394101 C34.2617947,49.901634 34.7438953,49.880867 35.1704635,49.5785928 C35.3032949,49.9913933 35.5874942,49.7582652 35.8144691,49.7813396 C35.9312255,49.2845484 36.0534427,48.814908 36.1501243,48.3400375 C36.2686497,47.757948 36.0768247,47.4150629 35.4992732,47.3476857 M43.7132877,49.4372579 C43.2105741,49.4384083 42.8680735,49.1446715 42.8579977,48.7036434 C42.8453837,48.1522429 43.3104861,47.7021388 43.8958829,47.6991229 C44.4078263,47.696524 44.7486347,48.0105662 44.7446352,48.4813603 C44.7399434,49.0346068 44.3069144,49.435947 43.7132877,49.4372579 M44.9044636,47.522774 C44.2589966,47.1112042 43.1259681,47.2329599 42.5846433,47.7742847 C42.2276059,48.1313221 42.1136954,48.5685045 42.2502957,49.0424521 C42.388665,49.5227066 42.773084,49.7464511 43.2423398,49.8338261 C43.3794785,49.8593617 43.5216166,49.8585157 43.5557667,49.8612867 C44.244229,49.8618999 44.6623366,49.7299145 44.9813782,49.4451768 C45.5869266,48.9046212 45.5480848,47.9331132 44.9044636,47.522774 M48.2851666,47.3033214 C47.8293709,47.2542499 47.3894965,47.2924764 47.1038357,47.5448331 C46.9255478,47.4559199 46.8098683,47.3528544 46.6942657,47.3529313 C46.5692795,47.3530082 46.354534,47.4260001 46.3333056,47.5074526 C46.14025,48.2470631 45.980883,48.9955188 45.8058255,49.7675103 C46.4302179,49.8555775 46.4290642,49.8552699 46.5452052,49.3504795 C46.6083521,49.0758945 46.6311957,48.7796965 46.7543359,48.5344929 C46.8856291,48.2730603 47.0699164,47.9689401 47.3123511,47.8524145 C47.5494018,47.738504 47.9177457,47.7691929 48.169564,47.8757196 C48.2751677,47.92033 48.2727834,48.3294386 48.2422483,48.5627974 C48.1887157,48.9712907 48.0756513,49.3719387 47.9874303,49.775894 C48.0168117,49.8099672 48.046193,49.8440403 48.0755744,49.8781135 C48.2728603,49.794815 48.5952092,49.7568192 48.6446653,49.620142 C48.8129544,49.1548089 48.9106359,48.658633 48.9865506,48.1667643 C49.0625422,47.6739727 48.7858035,47.3571616 48.2851666,47.3033214 M32.1084637,47.4844167 C31.890334,48.2340261 31.7375816,49.0026334 31.5629856,49.7683948 C32.1250003,49.8499243 32.1770715,49.8424636 32.2373725,49.5965677 C32.4153528,48.8701865 32.5811037,48.1408057 32.7517002,47.4126554 C32.7282413,47.3719676 32.7047054,47.3312029 32.6812465,47.2905151 C32.4825762,47.3528928 32.1406909,47.3735828 32.1084637,47.4844167 M32.2922818,46.7349304 C32.9396718,46.8123065 32.9597465,46.7969235 32.9795135,46.2300632 C32.380349,46.1060769 32.3441992,46.1313818 32.2922818,46.7349304" id="Combined-Shape"></path>
            </g>
        </g>
    </g>
</svg>