<?xml version="1.0" encoding="UTF-8"?>
<svg width="100px" height="100px" viewBox="0 0 100 100" version="1.1" xmlns="http://www.w3.org/2000/svg" xmlns:xlink="http://www.w3.org/1999/xlink">
    <title>earn</title>
    <g id="01-HOME" stroke="none" stroke-width="1" fill="none" fill-rule="evenodd">
        <g id="AETERNUM-SERVICIOS-Copy" transform="translate(-727.000000, -809.000000)" fill-rule="nonzero">
            <g id="earn" transform="translate(727.000000, 809.000000)">
                <rect id="Rectangle" x="0" y="0" width="100" height="100"></rect>
                <path d="M83.152,0.998 C83.266,1.114 83.38,1.226 83.494,1.336 C83.886,1.716 84.256,2.078 84.436,2.452 C85.178,3.984 85.838,5.552 86.536,7.212 C86.818,7.88 87.102,8.558 87.4,9.248 L87.4,9.248 L87.926,10.474 L90.2,8.184 L92.946,5.41 C93.576,4.776 94.472,4.162 95.164,4.844 C95.3559128,5.0169124 95.4674524,5.26172005 95.472,5.52 C95.472,5.966 95.17,6.512 94.62,7.056 C93.702,7.964 92.782,8.87 91.82,9.816 L91.82,9.816 L89.548,12.05 L90.758,12.586 L92.114,13.186 C93.088,13.622 94,14.022 94.914,14.422 C95.926,14.862 96.954,15.294 97.954,15.71 L97.954,15.71 L97.968,15.724 C98.546,15.966 98.902,16.296 98.978,16.67 C99.054,17.044 98.848,17.5 98.398,17.958 C96.234,20.158 94.01,22.376 91.86,24.522 C91.0173333,25.3606667 90.176,26.2006667 89.336,27.042 L89.336,27.042 L88.526,27.842 C88.042,28.314 87.536,28.816 87.054,29.314 C86.572,29.812 86.124,29.924 85.556,29.696 C83.856,29.008 82.136,28.276 80.472,27.57 L80.472,27.57 L79.58,27.19 C79.25,27.05 78.922,26.902 78.594,26.756 C78.072,26.522 77.53,26.278 76.978,26.064 C76.4124415,25.8657971 75.783881,25.9898249 75.336,26.388 C73.414,28.268 71.476,30.202 69.602,32.068 L69.602,32.068 L67.688,33.972 L68.24,34.606 C72.526,39.536 75.352,44.752 76.88,50.552 C78.08,55.058 78.48,59.492 78.08,63.73 C77.5,69.914 75.618,75.594 72.48,80.612 C68.094,87.624 62.144,92.756 54.796,95.868 C47.65,98.892 40.328,99.738 33.028,98.38 C29.7212312,97.786301 26.5007197,96.7853494 23.44,95.4 C18.6528957,93.1884517 14.3731466,90.0137031 10.868,86.074 C6.776,81.542 3.876,76.134 2.246,70.004 C1.89979813,68.5754282 1.64329727,67.1265992 1.478,65.666 C1.376,64.974 1.29,64.272 1.176,63.574 C1.138,63.332 1.094,63.09 1.05,62.848 L1.05,62.848 L1.006,62.6 L1.006,58.06 C1.032,57.844 1.058,57.628 1.082,57.412 C1.14,56.922 1.198,56.414 1.268,55.922 C2.184,49.34 4.324,43.688 7.784,38.642 C10.354,34.896 13.352,31.8 16.684,29.424 C19.084,27.716 21.758,26.324 24.284,25.072 C27.822,23.314 31.942,22.29 36.884,21.914 C42.5901829,21.4857202 48.3187614,22.3675135 53.632,24.492 C57.9496156,26.2028468 61.9247544,28.6754536 65.368,31.792 L65.368,31.792 L66.002,32.356 L68.002,30.356 C69.832,28.532 71.726,26.638 73.562,24.756 C74.06,24.246 74.014,23.348 73.814,22.876 C73.122,21.198 72.404,19.502 71.71,17.862 C71.2553333,16.7846667 70.8026667,15.7126667 70.352,14.646 C70.068,13.968 70.186,13.48 70.77,12.906 C72.044,11.654 73.342,10.346 74.556,9.124 C75.77,7.902 77.024,6.638 78.27,5.412 C79.376,4.324 80.532,3.244 81.648,2.198 C82.0733333,1.798 82.498,1.398 82.922,0.998 L82.922,0.998 Z M47.188,25.012 C31.4126218,21.6308729 15.30323,29.0938934 7.682,43.314 C3.664,50.766 2.44,59.168 4.14,67.612 C5.72458234,75.3996922 9.81231343,82.4555937 15.78,87.704 C22.05,93.202 29.858,96.274 38.362,96.602 C38.82,96.628 39.28,96.628 39.738,96.628 C47.4796845,96.6242212 55.0155774,94.1346914 61.236,89.526 C68.164,84.374 72.902,77.054 74.934,68.358 C76.824,60.278 75.928,52.352 72.272,44.8 L72.272,44.8 L71.9748042,44.1984478 C70.4710469,41.2167656 68.70175,38.627625 66.718,36.492 L66.718,36.492 L66.088,35.816 L59,42.782 L59.508,43.418 C64.19,49.168 66.342,56.204 65.566,63.23 C64.1398679,76.4901878 52.936639,86.5362473 39.6,86.514 L39.6,86.514 L39.572,86.514 C32.94,86.514 26.788,84.07 21.788,79.448 C17.3026372,75.2723323 14.4396427,69.6441145 13.706,63.56 C12.892,56.96 14.588,50.532 18.61,44.974 C22.72,39.29 28.328,35.824 35.276,34.67 C43.054,33.376 50.254,35.374 56.654,40.604 L56.654,40.604 L57.29,41.124 L57.864,40.538 C58.174,40.224 58.476,39.914 58.774,39.61 C59.446,38.924 60.072,38.294 60.726,37.63 C61.38,36.966 62.064,36.3 62.726,35.654 L62.726,35.654 L63.6,34.8 L64.236,34.152 L63.588,33.51 C59.526,29.48 53.546,26.384 47.188,25.012 Z M40.372,36.668 C34.2677261,36.4455089 28.3190263,38.6222477 23.8,42.732 C18.728,47.304 15.898,53.522 15.832,60.238 C15.766,66.904 18.434,73.104 23.344,77.704 C27.848,81.928 33.58,84.212 39.606,84.212 C40.026,84.212 40.45,84.202 40.872,84.18 C47.352,83.836 53.286,80.902 57.586,75.916 C62.786,69.884 63.596,63.472 63.358,59.156 C63.068,53.886 60.974,48.722 57.774,45.322 L57.774,45.322 L57.162,44.674 L56.508,45.274 C56.232,45.528 55.96,45.79 55.688,46.05 C55.064,46.648 54.476,47.212 53.84,47.724 C53.52,47.98 53.148,48.144 52.548,47.6 L52.548,47.6 L52.4256968,47.4796851 C52.1988163,47.2402449 52.0785714,47.0085714 52.07,46.796 C52.056,46.44 52.33,46.07 52.56,45.822 C53.0510211,45.3170049 53.5684106,44.8383362 54.11,44.388 C54.364,44.168 54.62,43.946 54.872,43.72 L54.872,43.72 L55.604,43.058 L54.88,42.39 C51.154,38.954 45.866,36.868 40.372,36.668 Z M39.466,42.6 C40.066,42.562 40.534,42.972 40.666,43.622 L40.666,43.622 L40.68,43.69 L40.68,43.716 C40.13,46.172 41.848,47.102 43.248,47.852 C45.64,49.14 46.87,51.272 46.9041344,54.186 C46.914,54.908 46.364,55.224 45.846,55.278 C45.046,55.362 44.752,54.812 44.646,54.338 C44.608,54.162 44.58,53.974 44.55,53.774 C44.511962,53.4237505 44.445068,53.0772399 44.35,52.738 C43.6277191,50.2459196 41.1362819,48.7050828 38.584,49.172 C36.216,49.6 34.322,51.986 34.448,54.386 C34.6093288,56.9671918 36.6668082,59.0246712 39.248,59.186 C40.604,59.278 42.034,59.472 43.294,60.252 C45.49,61.614 46.778,63.646 46.9,65.982 C46.906,69.628 45.068,72.45 41.984,73.538 C41.04,73.872 40.596,74.536 40.668,75.512 C40.7028886,75.9860256 40.7028886,76.4619744 40.668,76.936 C40.608,77.726 40.148,78.206 39.468,78.186 C39.1519061,78.1761084 38.8529586,78.0399613 38.638,77.808 C38.4255353,77.5742788 38.3197664,77.2627676 38.346,76.948 C38.448,75.288 38.108,73.992 36.122,73.088 C33.648,71.958 32.26,69.796 32.122,66.832 C32.0792709,66.4650712 32.186753,66.0964583 32.42,65.81 C32.6333703,65.6007572 32.921169,65.4849182 33.22,65.488 L33.22,65.488 L33.296,65.488 C33.798,65.488 34.348,65.646 34.418,66.664 C34.574,68.928 35.69,70.524 37.646,71.282 C39.772,72.104 41.822,71.626 43.268,69.972 C44.61,68.438 44.926,66.644 44.184,64.782 C43.38,62.772 41.81,61.668 39.642,61.592 C37.512,61.518 35.756,60.792 34.28,59.376 C32.8086505,57.938274 32.0206733,55.9410464 32.114,53.886 C32.1652251,51.8903552 33.0660743,50.0115242 34.59,48.722 C35.0584172,48.3636488 35.5569402,48.0464677 36.08,47.774 C36.484,47.548 36.902,47.314 37.302,47.042 C37.8019627,46.6896935 38.1522084,46.163255 38.284,45.566 C38.3488167,45.1627737 38.3682713,44.7535567 38.342,44.346 L38.342,44.346 L38.342,43.788 C38.3410824,43.1560878 38.8350047,42.6340418 39.466,42.6 Z M89.122,14.494 C88.49,14.21 87.652,14 86.77,14.908 C85.162,16.568 83.414,18.316 81.428,20.256 C80.85,20.822 80.234,21.366 79.582,21.942 C79.268,22.22 78.946,22.504 78.614,22.804 L78.614,22.804 L77.57,23.744 L85.68,27.222 L95.612,17.238 L94.38,16.72 C93.878,16.508 93.376,16.294 92.878,16.094 C91.58,15.558 90.354,15.048 89.122,14.494 Z M82.74,4.484 L72.8,14.352 L76.172,22.234 L77.112,21.298 C77.824,20.582 78.52,19.862 79.192,19.164 C80.79,17.512 82.298,15.946 83.938,14.512 C85.718,12.948 86.026,11.372 84.918,9.4 C84.4823614,8.57742986 84.0969879,7.72920751 83.764,6.86 C83.604,6.472 83.44,6.072 83.268,5.684 L83.268,5.684 L82.74,4.484 Z" id="Combined-Shape" fill="#4E82E7"></path>
            </g>
        </g>
    </g>
</svg>