<?xml version="1.0" encoding="UTF-8"?>
<svg width="16px" height="16px" viewBox="0 0 16 16" version="1.1" xmlns="http://www.w3.org/2000/svg" xmlns:xlink="http://www.w3.org/1999/xlink">
    <title>fb</title>
    <g id="01-HOME" stroke="none" stroke-width="1" fill="none" fill-rule="evenodd">
        <g id="AETERNUM" transform="translate(-1057.000000, -7805.000000)" fill="#4E82E7">
            <g id="fb" transform="translate(1057.000000, 7805.000000)">
                <path d="M8,0 C12.4182722,0 16,3.58172779 16,8 C16,12.0657928 12.9669601,15.4231921 9.04007186,15.9330064 C9.03280813,15.9337107 9.02614665,15.9345669 9.01948424,15.9354147 C8.91721429,15.9486669 8.81380067,15.9597985 8.70981616,15.9689407 C8.68610338,15.9708516 8.66312767,15.9727769 8.64014449,15.9746037 C8.56043778,15.9810792 8.47966904,15.986265 8.39858299,15.9902436 C8.26571925,15.9967233 8.13288607,16 8,16 L8.32045913,15.9936989 C8.21415927,15.9978865 8.10732645,16 8,16 C7.89807362,16 7.79659245,15.9980938 7.69559018,15.9943152 C7.67492399,15.9935008 7.65420959,15.9926413 7.6335158,15.9917029 C7.55438134,15.9881859 7.47561722,15.9834728 7.39716822,15.9776283 C7.37850406,15.9761057 7.35951275,15.974617 7.34054021,15.9730619 C7.25669099,15.9663627 7.17361717,15.9582701 7.09092538,15.9489169 C7.06928073,15.9462178 7.04762416,15.9436704 7.02599415,15.9410368 C6.93460483,15.9302124 6.8436146,15.9175677 6.75312722,15.9034062 C6.64405395,15.8859472 6.53574352,15.8666599 6.42820262,15.8452343 L6.69005957,15.8932772 C6.61275552,15.8805442 6.53582496,15.866703 6.45928476,15.8517704 L6.42820262,15.8452343 C2.7625933,15.1153602 0,11.8802942 0,8 C0,3.58172779 3.58172779,0 8,0 Z M11.0002408,3.44381147 L9.25777928,3.44381147 C7.16477233,3.44381147 6.42820262,4.49878841 6.42820262,6.27319306 L6.42820262,7.57883828 L5.12348399,7.57883828 L5.12348399,9.75387325 L6.42820262,9.75387325 L6.42822962,15.8456476 C6.53576727,15.8670718 6.64408212,15.8863403 6.75312722,15.9034062 C6.84356678,15.917227 6.93454318,15.9299023 7.02599415,15.9410368 L6.75312722,15.9034062 C6.86497523,15.9209107 6.97759151,15.9360978 7.09092538,15.9489169 L7.02599415,15.9410368 C7.13023857,15.9537291 7.23509963,15.9644194 7.34054021,15.9730619 L7.09092538,15.9489169 C7.1924427,15.9603995 7.29453579,15.9699821 7.39716822,15.9776283 L7.34054021,15.9730619 C7.4377162,15.9810269 7.53538442,15.9872526 7.6335158,15.9917029 L7.39716822,15.9776283 C7.49615142,15.9850026 7.59563629,15.9905758 7.69559018,15.9943152 L7.6335158,15.9917029 C7.75498591,15.9972116 7.87716569,16 8,16 L8.32045913,15.9936989 C8.34653267,15.9926717 8.37257416,15.9915198 8.39858299,15.9902436 C8.47904052,15.9861938 8.55963829,15.9810029 8.64014449,15.9746037 L8.39858299,15.9902436 C8.50286468,15.9851269 8.60662154,15.9780135 8.70981616,15.9689407 L8.64014449,15.9746037 C8.76685329,15.9645321 8.89333526,15.9514675 9.01948424,15.9354147 L8.70981616,15.9689407 C8.82056439,15.9592038 8.93066504,15.9472103 9.04007186,15.9330064 L9.03946867,9.75350749 L10.78154,9.75350749 L11.0124572,7.57866759 L9.03946867,7.57866759 L9.04239476,6.49006501 C9.04239476,5.92281831 9.09628356,5.61901714 9.91105299,5.61901714 L11.0002408,5.61901714 L11.0002408,3.44381147 Z" id="Combined-Shape"></path>
            </g>
        </g>
    </g>
</svg>