<?xml version="1.0" encoding="UTF-8"?>
<svg width="32px" height="30px" viewBox="0 0 32 30" version="1.1" xmlns="http://www.w3.org/2000/svg" xmlns:xlink="http://www.w3.org/1999/xlink">
    <title>Group 7</title>
    <defs>
        <radialGradient cx="-20.5371317%" cy="0.765348022%" fx="-20.5371317%" fy="0.765348022%" r="302.179147%" gradientTransform="translate(-0.205371,0.007653),scale(0.942740,1.000000),translate(0.205371,-0.007653)" id="radialGradient-1">
            <stop stop-color="#4E82E7" offset="1%"></stop>
            <stop stop-color="#6039E4" offset="52%"></stop>
        </radialGradient>
        <radialGradient cx="-1043.50927%" cy="-638.659058%" fx="-1043.50927%" fy="-638.659058%" r="2690.08559%" gradientTransform="translate(-10.435093,-6.386591),scale(1.000000,0.984055),translate(10.435093,6.386591)" id="radialGradient-2">
            <stop stop-color="#4E82E7" offset="1%"></stop>
            <stop stop-color="#6039E4" offset="52%"></stop>
        </radialGradient>
        <radialGradient cx="-687.803138%" cy="2.06847361%" fx="-687.803138%" fy="2.06847361%" r="2690.08559%" gradientTransform="translate(-6.878031,0.020685),scale(1.000000,0.984055),translate(6.878031,-0.020685)" id="radialGradient-3">
            <stop stop-color="#4E82E7" offset="1%"></stop>
            <stop stop-color="#6039E4" offset="52%"></stop>
        </radialGradient>
        <radialGradient cx="-281.954351%" cy="-638.659058%" fx="-281.954351%" fy="-638.659058%" r="2690.08559%" gradientTransform="translate(-2.819544,-6.386591),scale(1.000000,0.984055),translate(2.819544,6.386591)" id="radialGradient-4">
            <stop stop-color="#4E82E7" offset="1%"></stop>
            <stop stop-color="#6039E4" offset="52%"></stop>
        </radialGradient>
    </defs>
    <g id="01-HOME" stroke="none" stroke-width="1" fill="none" fill-rule="evenodd">
        <g id="AETERNUM" transform="translate(-1358.000000, -720.000000)" fill-rule="nonzero">
            <g id="Group-7" transform="translate(1358.000000, 720.000000)">
                <path d="M20.955218,30 C15.4122957,29.9928453 10.7605102,25.7527085 10.1532048,20.1538805 L1.17316003,20.1538805 C0.753699877,20.152205 0.366771387,19.9239523 0.157327592,19.5546316 C-0.0521162028,19.1853109 -0.0524637568,18.7306641 0.156415133,18.3610132 L10.2517545,0.598436764 C10.4607726,0.229529538 10.8472002,0.00154666568 11.2660958,0 L11.2660958,0 C11.6867099,0 12.0753674,0.228020082 12.2852443,0.598436764 L16.897853,8.71519163 C20.2467667,7.3455002 24.0464038,7.75522541 27.0378741,9.80861771 C30.0293445,11.86201 31.8221297,15.2909812 31.8221297,18.9594498 C31.8221297,19.2766562 31.6979655,19.580835 31.4770178,19.8049046 C31.25607,20.0289741 30.9564881,20.1545292 30.6443401,20.1538805 L23.3780994,20.1538805 L27.065302,26.7488965 C27.3784187,27.3077516 27.1999173,28.0182099 26.6614884,28.3561263 C24.9466069,29.4321269 22.9706504,30.0013627 20.955218,30 Z M12.5232059,20.1538805 C12.8904606,22.8483209 14.4833336,25.2103571 16.8235827,26.5308144 C19.1638319,27.8512717 21.9789347,27.9763825 24.4236881,26.8685838 L20.6691833,20.1538805 L12.5232059,20.1538805 Z M22.0368615,17.7625765 L29.38723,17.7625765 C29.0326703,15.185076 27.5551477,12.9067074 25.3642107,11.5590026 C23.1732736,10.2112979 20.5017191,9.9374566 18.0900645,10.8133838 L22.0368615,17.7625765 Z M12.5232059,17.7625765 L19.3207344,17.7625765 L16.0036943,11.9247661 C14.1056868,13.3041507 12.8475899,15.4143521 12.5232059,17.7625765 L12.5232059,17.7625765 Z M3.21145713,17.7625765 L10.1532048,17.7625765 C10.4996713,14.5586552 12.2054425,11.668152 14.8235011,9.84855734 L11.2660958,3.58573475 L3.21145713,17.7625765 Z" id="Shape" fill="url(#radialGradient-1)"></path>
                <ellipse id="Oval" fill="url(#radialGradient-2)" cx="30.3150398" cy="23.8128931" rx="1.68496022" ry="1.71226156"></ellipse>
                <ellipse id="Oval" fill="url(#radialGradient-3)" cx="18.3280261" cy="1.87103059" rx="1.68496022" ry="1.71226156"></ellipse>
                <ellipse id="Oval" fill="url(#radialGradient-4)" cx="4.65124482" cy="23.8128931" rx="1.68496022" ry="1.71226156"></ellipse>
            </g>
        </g>
    </g>
</svg>