<?xml version="1.0" encoding="UTF-8"?>
<svg width="35px" height="32px" viewBox="0 0 35 32" version="1.1" xmlns="http://www.w3.org/2000/svg" xmlns:xlink="http://www.w3.org/1999/xlink">
    <title>Combined Shape</title>
    <g id="01-HOME" stroke="none" stroke-width="1" fill="none" fill-rule="evenodd">
        <g id="AETERNUM" transform="translate(-1355.000000, -7805.000000)" fill="#F3F3F3" fill-rule="nonzero">
            <path d="M1367.32229,7805 C1367.78234,7805 1368.20743,7805.24322 1368.43699,7805.63833 L1373.48203,7814.2962 C1377.1449,7812.8352 1381.30075,7813.27224 1384.57267,7815.46253 C1387.8446,7817.65281 1389.80545,7821.31038 1389.80545,7825.22341 C1389.80545,7825.56177 1389.66965,7825.88622 1389.42799,7826.12523 C1389.18633,7826.36424 1388.85866,7826.49816 1388.51725,7826.49747 L1380.5698,7826.49747 L1384.60267,7833.53216 C1384.94515,7834.12827 1384.74991,7834.88609 1384.161,7835.24653 C1382.28535,7836.39427 1380.12415,7837.00145 1377.91977,7837 C1371.8572,7836.99237 1366.76931,7832.46956 1366.10507,7826.49747 L1356.28314,7826.49747 C1355.82436,7826.49569 1355.40116,7826.25222 1355.17208,7825.85827 C1354.943,7825.46433 1354.94262,7824.97938 1355.17108,7824.58508 L1366.21286,7805.63833 C1366.41861,7805.28418 1366.78153,7805.05179 1367.18607,7805.00765 L1367.32229,7805 Z M1377.60692,7826.49747 L1368.69726,7826.49747 C1369.09894,7829.37154 1370.84115,7831.89105 1373.40079,7833.29954 C1375.96044,7834.70802 1379.03946,7834.84147 1381.71341,7833.65982 L1377.60692,7826.49747 Z M1388.15707,7828.57401 C1389.17489,7828.57401 1390,7829.39172 1390,7830.40042 C1390,7831.40912 1389.17489,7832.22683 1388.15707,7832.22683 C1387.13926,7832.22683 1386.31415,7831.40912 1386.31415,7830.40042 C1386.31415,7829.39172 1387.13926,7828.57401 1388.15707,7828.57401 Z M1360.0873,7828.57401 C1361.10512,7828.57401 1361.93022,7829.39172 1361.93022,7830.40042 C1361.93022,7831.40912 1361.10512,7832.22683 1360.0873,7832.22683 C1359.06948,7832.22683 1358.24437,7831.40912 1358.24437,7830.40042 C1358.24437,7829.39172 1359.06948,7828.57401 1360.0873,7828.57401 Z M1374.78601,7816.53428 L1379.10282,7823.94675 L1387.14228,7823.94675 C1386.75448,7821.19741 1385.13844,7818.76715 1382.74211,7817.3296 C1380.34577,7815.89205 1377.42376,7815.59995 1374.78601,7816.53428 Z M1372.50404,7817.71975 C1370.42809,7819.19109 1369.05205,7821.44198 1368.69726,7823.94675 L1376.13205,7823.94675 L1372.50404,7817.71975 Z M1367.32229,7808.82478 L1358.51253,7823.94675 L1366.10507,7823.94675 C1366.48402,7820.52923 1368.3497,7817.44603 1371.2132,7815.50513 L1367.32229,7808.82478 Z M1375.04628,7805.16935 C1376.0641,7805.16935 1376.8892,7805.98707 1376.8892,7806.99577 C1376.8892,7808.00447 1376.0641,7808.82218 1375.04628,7808.82218 C1374.02846,7808.82218 1373.20335,7808.00447 1373.20335,7806.99577 C1373.20335,7805.98707 1374.02846,7805.16935 1375.04628,7805.16935 Z" id="Combined-Shape"></path>
        </g>
    </g>
</svg>