<?xml version="1.0" encoding="UTF-8"?>
<svg width="100px" height="100px" viewBox="0 0 100 100" version="1.1" xmlns="http://www.w3.org/2000/svg" xmlns:xlink="http://www.w3.org/1999/xlink">
    <title>learn</title>
    <g id="01-HOME" stroke="none" stroke-width="1" fill="none" fill-rule="evenodd">
        <g id="AETERNUM-SERVICIOS-Copy" transform="translate(-219.000000, -809.000000)" fill-rule="nonzero">
            <g id="learn" transform="translate(219.000000, 809.000000)">
                <rect id="Rectangle" x="0" y="0" width="100" height="100"></rect>
                <path d="M97.456,85 C96.9199597,85.0370752 96.3813687,84.9987006 95.856,84.886 L95.632,84.826 L95.632,69.332 C95.632,57.076 95.632,44.8186667 95.632,32.56 C95.632,28.136 92.866,25.38 88.42,25.36 L85.22,25.36 L85.318,24.984 C86.36,21 85.456,18.916 81.864,17.018 C79.3466667,15.6846667 76.8306667,14.3513333 74.316,13.018 L69.458,10.438 C68.318,9.834 67.1773333,9.234 66.036,8.638 L57.084,3.894 C56.638,3.656 56.192,3.418 55.746,3.184 L55.108,2.85 L54.626,2.6 C51.468,0.962 48.384,1 45.196,2.69 C42.3,4.232 39.352,5.8 36.5,7.302 C35.32,7.926 34.1406667,8.55066667 32.962,9.176 L28.872,11.342 C25.0666667,13.3606667 21.2586667,15.38 17.448,17.4 C15.47,18.446 14.396,20.02 14.248,22.078 C14.2308738,22.7368746 14.2872215,23.395606 14.416,24.042 C14.466,24.366 14.52,24.702 14.558,25.042 L14.596,25.376 L14.264,25.376 L13.448,25.376 C12.81,25.376 12.152,25.362 11.502,25.392 C10.7766711,25.3995719 10.0541045,25.4826872 9.346,25.64 C6.234,26.442 4.376,29 4.374,32.464 C4.374,45.036 4.374,57.6086667 4.374,70.182 L4.374,85 L4.074,85 C3.874,85 3.674,85 3.474,85 C3.08396156,85.015171 2.69338717,85.0091622 2.304,84.982 C1.396,84.906 0.772,85.112 0.304,85.648 L0.304,90.6 C0.856,93.118 1.842,94.924 3.4,96.272 C5.072,97.718 6.892,98.472 8.964,98.56 C9.336,98.576 9.764,98.594 10.218,98.594 L48.18,98.594 C61.98,98.594 75.956,98.594 89.78,98.61 L89.8,98.61 C93.978,98.61 96.892,96.942 98.704,93.51 C99.0135876,92.8700548 99.2562098,92.1998279 99.428,91.51 C99.516,91.202 99.608,90.884 99.71,90.574 L99.71,85.654 C99.112,84.95 98.344,84.968 97.456,85 Z M18.6,19.416 C28.02,14.44 37.338,9.496 46.348,4.716 C48.772,3.43 51.222,3.424 53.628,4.7 C53.948,4.868 54.266,5.04 54.586,5.21 L55.462,5.676 L70.17,13.46 L73.632,15.292 L77.632,17.41 L81.232,19.308 C82.754,20.108 83.458,21.13 83.4500674,22.508 C83.442,23.886 82.728,24.908 81.21,25.698 C78.868,26.908 76.502,28.168 74.21,29.386 L71.564,30.8 L65.8,33.872 L62.91,35.4 L62.752,35.232 L62.504,34.968 C62.34,34.796 62.19,34.636 62.046,34.472 L57.262,29.018 C55.23,26.6993333 53.1973333,24.3826667 51.164,22.068 C50.78,21.63 50.374,21.386 49.988,21.364 C49.7061971,21.3499077 49.4313468,21.4543363 49.23,21.652 C48.692,22.136 48.746,22.83 49.38,23.56 C50.518,24.87 51.684,26.198 52.81,27.482 C53.318,28.058 53.8253333,28.6353333 54.332,29.214 L60.754,36.546 L60.418,36.724 C59.6726667,37.124 58.9346667,37.516 58.204,37.9 C56.512,38.802 54.914,39.652 53.266,40.488 C52.2625833,41.0078603 51.1500727,41.2820465 50.02,41.288 C48.7672612,41.2710889 47.5381322,40.9447411 46.442,40.338 L44.09,39.092 C35.738,34.668 27.1,30.092 18.6,25.606 C17.234,24.884 16.542,23.84 16.542,22.506 C16.542,21.172 17.214,20.146 18.6,19.416 Z M27.258,40.462 C27.314,46.016 30.528,50.748 35.646,52.81 C40.3247624,54.7043327 45.3325703,55.652601 50.38,55.6 C53.6753889,55.573619 56.9531792,55.1164093 60.13,54.24 C60.314,54.188 60.494,54.15 60.766,54.092 L61.332,53.97 L61.836,53.858 L61.682,54.352 C61.58,54.68 61.496,54.992 61.412,55.296 C61.270346,55.9067825 61.0693926,56.5022744 60.812,57.074 C60.368,57.964 59.854,58.834 59.358,59.674 C59.102,60.102 58.84,60.548 58.59,60.988 C57.724,62.516 57.656,64.136 58.406,65.43 C59.156,66.724 60.59,67.472 62.342,67.482 C64.896,67.504 66.4,66.646 67.076,64.8 C67.5258253,63.6478582 67.4211072,62.3528932 66.792,61.288 C66.518,60.802 66.224,60.316 65.938,59.844 C65.2749881,58.7972033 64.6810572,57.7082186 64.16,56.584 C63.844,55.854 63.838,55.012 63.834,54.196 C63.834,53.948 63.834,53.692 63.82,53.45 C63.82,53.268 63.892,53.05 64.56,52.732 C69.96,50.214 72.722,45.88 72.76,39.846 C72.76,38.74 72.76,37.646 72.76,36.508 C72.76,35.98 72.76,35.444 72.76,34.908 L72.76,34.6 L86.4,34.6 L86.4,78.166 L13.576,78.166 L13.576,34.6 L27.252,34.6 L27.252,34.9 C27.252,35.4893333 27.252,36.076 27.252,36.66 C27.244,37.912 27.242,39.2 27.254,40.462 L27.258,40.462 Z M61.458,50.39 L61.458,50.39 C61.458,51.038 61.306,51.486 60.53,51.714 C57.0771104,52.7539399 53.4920658,53.2894736 49.886,53.304 C45.1735597,53.2984062 40.5118132,52.331349 36.186,50.462 C32.076,48.714 29.8,45.31 29.6,40.618 C29.54,39.282 29.556,37.956 29.57,36.552 C29.57,35.902 29.584,35.238 29.584,34.552 L29.584,34.054 L32.278,35.478 C33.878,36.322 35.42,37.138 36.966,37.958 L39.234,39.158 C41.174,40.182 43.182,41.244 45.15,42.302 C48.414,44.058 51.582,44.062 54.832,42.312 C56.204,41.574 57.56,40.862 58.996,40.112 L60.946,39.086 L61.346,38.87 L61.378,39.33 C61.378,39.444 61.396,39.542 61.402,39.626 C61.416,39.786 61.428,39.912 61.428,40.042 L61.428,43.122 C61.43,45.504 61.43,47.968 61.444,50.4 L61.458,50.39 Z M63.766,38.546 L63.766,38.546 C63.766,37.846 63.998,37.44 64.584,37.146 C65.856,36.506 67.134,35.822 68.37,35.16 C68.8526667,34.8933333 69.3366667,34.6346667 69.822,34.384 L69.93,34.326 L70.622,34.538 L70.606,34.774 C70.55,35.632 70.518,36.51 70.486,37.358 C70.414,39.296 70.338,41.298 69.988,43.23 C69.436,46.2 67.494,48.6 64.2,50.344 L63.76,50.58 L63.76,44.916 C63.768,42.828 63.77,40.67 63.752,38.546 L63.766,38.546 Z M64.79,62.5 C65.085237,63.041009 65.085237,63.694991 64.79,64.236 C64.4532846,64.7872812 63.8597798,65.1299775 63.214,65.146 C63.014,65.158 62.814,65.164 62.614,65.164 C62.414,65.164 62.214,65.164 62.014,65.146 C61.366797,65.1313311 60.7718102,64.7874604 60.436,64.234 C60.1399831,63.694611 60.1399831,63.041389 60.436,62.502 C60.822,61.74 61.254,61.002 61.712,60.222 C61.912,59.868 62.134,59.506 62.35,59.124 L62.612,58.668 L62.872,59.124 C63.09,59.506 63.304,59.87 63.512,60.224 C63.958,61 64.4,61.74 64.776,62.5 L64.79,62.5 Z M6.702,32.66 C6.702,29.496 8.282,27.904 11.67,27.66 C16,27.336 19.62,28.242 22.74,30.424 C22.94,30.562 23.14,30.686 23.368,30.824 C23.8152573,31.0689339 24.2344115,31.3620066 24.618,31.698 L25.184,32.218 L12.984,32.218 C11.494,32.218 11.214,32.504 11.212,34.002 L11.212,78.712 C11.212,80.208 11.494,80.492 12.986,80.494 C14.8326667,80.494 16.678,80.494 18.522,80.494 L86.922,80.494 C88.544,80.494 88.788,80.246 88.788,78.606 L88.788,34.078 C88.788,32.45 88.542,32.204 86.91,32.204 L75.4,32.204 L75.2,31.564 L75.418,31.444 C75.684,31.302 75.954,31.164 76.218,31.028 C76.7917838,30.7505292 77.3475476,30.4372441 77.882,30.09 C80.836,28.072 84.098,27.266 87.578,27.69 C87.8908737,27.7227602 88.2054754,27.7361191 88.52,27.73 C88.8902305,27.7236678 89.260454,27.7430478 89.628,27.788 C91.6838118,28.0765476 93.2322821,29.8049547 93.294,31.88 C93.308,32.214 93.3054142,32.55 93.304,32.88 L93.304,84.944 L6.704,84.944 L6.704,32.66 L6.702,32.66 Z M59.234,87.366 L59.166,87.724 C58.874,89.246 57.448,90.438 55.766,90.558 C54.788,90.63 53.792,90.626 52.832,90.622 C52.536,90.622 52.232,90.622 51.944,90.622 L50.58,90.622 C49.724,90.622 48.854,90.622 47.98,90.622 C46.928,90.622 45.87,90.622 44.82,90.602 C42.8,90.574 41.434,89.618 40.76,87.76 L40.614,87.36 L59.234,87.366 Z M95.73,93.86 C94.412,95.406 92.414,96.26 90.108,96.26 C76.616,96.26 63.256,96.26 50.126,96.26 C36.424,96.26 22.972,96.26 9.862,96.248 C7.618,96.248 5.76,95.514 4.49,94.13 C3.09,92.594 2.464,90.352 2.69,87.646 L2.72,87.4 L2.982,87.388 L3.29,87.37 C3.52,87.356 3.76,87.342 4.002,87.342 L12.074,87.342 C20.212,87.342 28.626,87.342 36.9,87.324 C37.792,87.324 38.21,87.618 38.478,88.452 C39.324,91.094 41.614,92.852 44.312,92.912 C47.986,93.008 51.79,93.01 55.62,92.912 C58.368,92.848 60.704,91.048 61.568,88.33 C61.802,87.596 62.168,87.33 62.926,87.33 L62.926,87.33 C71.192,87.342 79.596,87.344 87.726,87.344 L96.22,87.344 C96.406,87.344 96.586,87.36 96.76,87.376 L96.982,87.394 L97.222,87.41 L97.258,87.646 C97.638,90.052 97.096,92.262 95.73,93.86 Z" id="Shape" fill="#4E82E7"></path>
            </g>
        </g>
    </g>
</svg>