<?xml version="1.0" encoding="UTF-8"?>
<svg width="54px" height="54px" viewBox="0 0 54 54" version="1.1" xmlns="http://www.w3.org/2000/svg" xmlns:xlink="http://www.w3.org/1999/xlink">
    <title>mobility-coin</title>
    <g id="01-HOME" stroke="none" stroke-width="1" fill="none" fill-rule="evenodd">
        <g id="AETERNUM" transform="translate(-1158.000000, -3603.000000)" fill="#747293">
            <g id="mobility-coin" transform="translate(1158.000000, 3603.000000)">
                <path d="M26.5945785,0.00036416996 L27.0345544,0.0017076747 C41.6806515,-0.133761535 54.2355954,12.0879589 53.9966441,27.3619324 C53.7695505,41.876679 41.9901503,54.1985028 26.5786905,53.9975768 C11.5072721,53.8010865 -0.272367676,41.2591552 0.00479186379,26.4589642 C0.277759276,11.8863136 12.3421044,-0.164931442 27.0345544,0.0017076747 Z M11.731012,19.6011052 C8.98768347,26.2992784 9.78766125,32.375492 14.2040081,38.0190434 C12.3176703,39.7923713 10.4308534,41.5661788 8.52199795,43.3606063 C18.5699296,54.9082176 36.3915036,54.0603961 45.3413373,43.4864848 C43.5724989,41.6202466 41.8090504,39.7596429 40.0408108,37.8940041 C45.4872234,31.3290224 44.4281721,23.4774428 42.3419297,19.6972524 L42.3419297,19.6972524 L27.0533591,32.6190969 C21.9711826,28.3012256 16.9007441,23.9933047 11.731012,19.6011052 Z M37.5840682,40.839896 C38.3155346,41.5223971 39.0526305,42.2100532 39.7911636,42.8992677 C33.8812215,48.4876724 22.115835,49.5806571 14.527844,43.3303715 C15.2093642,42.6850346 15.8713611,42.024832 16.5800702,41.4195364 C16.6986476,41.3182342 17.0602485,41.3863284 17.2417078,41.4923061 C19.2167989,42.6458324 21.2845959,43.5613885 23.5303787,44.0422443 C27.9939169,44.9978417 32.115617,44.0420045 36.0053128,41.8013677 C36.522861,41.5032156 37.0262756,41.1804872 37.5840682,40.839896 Z M48.436565,14.6512042 C48.3466139,14.67626 48.3003807,14.6761401 48.2731918,14.6986783 C47.6902464,15.1834903 47.1383229,15.7121798 46.5190857,16.1443626 C46.0275288,16.4873514 46.0605867,16.7958136 46.2940283,17.2755904 C48.6492855,22.1157974 49.1340153,27.155252 47.8261912,32.3691382 C47.274028,34.5704529 46.3679295,36.6267077 45.1505356,38.5990434 C45.9197312,39.3352527 46.677069,40.059953 47.4871079,40.8350047 C50.0222673,37.053136 51.4158504,32.9515359 51.670612,28.4770958 C51.9508857,23.5540488 50.8852468,18.9350283 48.436565,14.6512042 Z M5.71866216,14.4987114 C0.871484358,22.1987573 1.21667614,33.3054342 6.53001856,40.7429336 C7.11236501,40.2274313 7.67315195,39.6928674 8.27609971,39.2108128 C8.67626826,38.8909616 8.70369675,38.6468773 8.44103,38.1824457 C5.06732526,32.2166454 4.44772876,25.984822 6.75495617,19.504958 C7.12003062,18.4797079 7.60727565,17.4978558 8.04924571,16.4696086 C7.26328162,15.8049702 6.49432559,15.1545981 5.71866216,14.4987114 Z M45.4300906,10.5540398 C35.9630681,-0.33612616 18.5323202,-0.641111708 8.65003752,10.4599307 C14.8022846,15.9475126 20.9277021,21.4112376 27.0780328,26.8971412 C33.2236922,21.4241851 39.3270711,15.9889926 45.4300906,10.5540398 Z M14.0588407,11.2617286 C19.4527917,6.00840045 31.342385,4.14659794 39.6632798,11.0316707 C38.9776872,11.6764082 38.3081445,12.3331342 37.5995551,12.9443041 C37.4886434,13.0398519 37.1562675,12.9988514 36.9996017,12.9021048 C34.9316849,11.6242586 32.7541739,10.6108769 30.3674159,10.0954945 C26.0668915,9.16687107 22.0531088,9.99742919 18.2562387,12.1073921 C17.5943616,12.475197 16.9524869,12.8789672 16.2411427,13.3020387 C15.5329126,12.639918 14.7966552,11.9514227 14.0588407,11.2617286 Z" id="Combined-Shape"></path>
            </g>
        </g>
    </g>
</svg>