<?xml version="1.0" encoding="UTF-8"?>
<svg width="93px" height="30px" viewBox="0 0 93 30" version="1.1" xmlns="http://www.w3.org/2000/svg" xmlns:xlink="http://www.w3.org/1999/xlink">
    <title>mohash</title>
    <defs>
        <rect id="path-1" x="0" y="0" width="93" height="30"></rect>
    </defs>
    <g id="01-HOME" stroke="none" stroke-width="1" fill="none" fill-rule="evenodd">
        <g id="AETERNUM" transform="translate(-1139.000000, -3413.000000)">
            <g id="mohash" transform="translate(1139.000000, 3413.000000)">
                <mask id="mask-2" fill="white">
                    <use xlink:href="#path-1"></use>
                </mask>
                <g id="Rectangle_163"></g>
                <g id="Group_552" mask="url(#mask-2)" fill="#747293" fill-rule="nonzero">
                    <g transform="translate(0.000000, 0.000543)" id="Combined-Shape">
                        <path d="M45.3108594,4.54488167 C48.6770443,4.5334815 51.9095508,5.86399925 54.2955797,8.24311641 C56.6816086,10.6222336 58.0251941,13.854552 58.0300851,17.2273139 C58.0431361,24.2428664 52.3789489,29.9414417 45.3770492,29.9571781 C38.3751495,29.9728494 32.6855571,24.2997383 32.6672399,17.2841975 C32.649011,10.2686567 38.3089733,4.56586869 45.3108594,4.54488167 Z M75.9388594,4.55417633 C75.6563873,5.9523968 75.382763,7.30644662 75.1186955,8.61281129 L81.347,8.612 L82.1650156,4.55417633 L87.6340937,4.55417633 C87.3516672,5.9523968 87.0780842,7.30644662 86.8140541,8.61281129 L93,8.61289994 L91.8961094,14.0926379 L90.8010504,14.0920737 L90.5297807,14.0919306 L90.5297807,14.0919306 L89.1886237,14.0912027 C89.0115055,14.0911042 88.8350734,14.0910053 88.6593333,14.0909057 L87.6132432,14.090302 C87.4402946,14.0902003 87.2680498,14.090098 87.0965147,14.0899952 L85.7064595,14.0901786 C85.2414281,16.3885673 84.8182054,18.4784135 84.4423454,20.3321996 L90.6391563,20.3314149 L89.5352656,25.8111528 C89.351435,25.8110599 89.1682608,25.8109664 88.985749,25.8108723 L87.3611866,25.8100112 L87.0939709,25.8098648 L87.0939709,25.8098648 L85.7733509,25.8091204 L85.5123495,25.8089691 L85.5123495,25.8089691 L84.2232007,25.8082 C84.0530909,25.8080961 83.8836968,25.8079916 83.7150242,25.8078866 L83.3299544,25.8084169 C82.8299961,28.2628212 82.532338,29.7096636 82.4774375,29.9484981 L82.4774375,29.9484981 L77.0490469,29.9484981 L77.884,25.803 L77.0712913,25.8031529 L76.8509319,25.8029719 L76.8509319,25.8029719 L75.7673895,25.8020545 C75.3401018,25.8016835 74.9202137,25.8013074 74.507885,25.8009265 L73.6933539,25.800158 C73.2911753,25.7997704 72.8966625,25.7993779 72.5099755,25.7989805 L71.6356685,25.798059 L71.6104054,25.9255009 C71.1450437,28.2095241 70.8601708,29.5947327 70.7896929,29.9130436 L70.7817187,29.9484981 L65.3533281,29.9484981 L66.1908242,25.7909088 L65.8670083,25.7903726 C65.5917661,25.7899093 65.3254149,25.789441 65.0681146,25.7889677 L64.5656291,25.7880147 C61.9725745,25.7829396 60.4039678,25.7773115 60.0488965,25.7711304 L60.012125,25.770386 L61.1077813,20.3314149 L67.291,20.331 L68.551668,14.0723939 C68.0662608,14.0716032 67.6069937,14.0707979 67.1746809,14.0699779 L66.6843697,14.0690183 C64.2366119,14.0640711 62.7546603,14.0586056 62.4101022,14.0526217 L62.3729688,14.0518711 L63.468625,8.61289994 L69.652,8.612 L70.47075,4.55417633 L75.9388594,4.55417633 Z M74.012288,14.0795611 C73.547103,16.3825012 73.123157,18.4757233 72.7467211,20.3321996 L78.986,20.332 L80.2444001,14.0852899 C80.1212217,14.0851928 79.9985771,14.0850954 79.8764693,14.0849976 L78.9926273,14.0842752 C78.846933,14.0841537 78.7020491,14.0840316 78.5579815,14.083909 L77.703418,14.0831669 L77.4928714,14.0829793 L77.4928714,14.0829793 L76.4589256,14.082029 C76.0516542,14.0816447 75.6519953,14.0812555 75.2601089,14.0808614 L74.4867467,14.0800665 C74.3272117,14.0798989 74.1690549,14.0797304 74.012288,14.0795611 Z M59.3877656,0.703654612 C60.0177259,1.36619814 60.1716728,2.30931567 59.8598215,3.10885991 C59.6136808,3.9780061 58.8719184,4.88651071 57.6440156,5.8189179 L57.6469219,5.8164913 L57.1625469,5.17684073 C57.4416853,4.96489859 57.6925066,4.75543558 57.914317,4.54942133 C57.2562093,4.60158209 56.5823634,4.36654616 56.091819,3.85106401 C55.2243142,2.93945804 55.258475,1.49587633 56.168125,0.626488875 C57.0803857,-0.238037214 58.5178041,-0.203586334 59.3877656,0.703654612 Z M5.47585937,29.9518953 L0,29.9518953 L0,4.55611761 L5.8376875,4.55611761 L14.7526094,20.5119536 L23.6733437,4.54495527 L29.4611406,4.54495527 C29.543,4.81042481 29.5580156,29.5874207 29.4780937,29.9878089 L24.0497031,29.9878089 L24.0497031,15.1147199 L23.9697813,15.0928805 C21.1308594,20.0518711 18.4517812,25.1035575 15.4752969,29.9975153 C15.0422656,29.9975153 14.6131094,30.0043098 14.1849219,29.9907209 C14.0966578,29.9720182 14.0182696,29.9216139 13.9645312,29.8490077 C13.8941752,29.7525649 13.8313433,29.6508319 13.7765937,29.5447126 C11.2389531,25.3937784 8.94059375,21.1059841 6.54584375,16.873031 C6.26345312,16.3736376 5.9849375,15.872303 5.70254687,15.3729096 C5.65152767,15.2734685 5.57277357,15.1910201 5.47585937,15.1355886 L5.47585937,29.9518953 Z"></path>
                    </g>
                </g>
            </g>
        </g>
    </g>
</svg>