<?xml version="1.0" encoding="UTF-8"?>
<svg width="144px" height="30px" viewBox="0 0 144 30" version="1.1" xmlns="http://www.w3.org/2000/svg" xmlns:xlink="http://www.w3.org/1999/xlink">
    <title>obscuro</title>
    <g id="01-HOME" stroke="none" stroke-width="1" fill="none" fill-rule="evenodd">
        <g id="AETERNUM" transform="translate(-1113.000000, -3514.000000)" fill="#747293">
            <g id="obscuro" transform="translate(1113.000000, 3514.000000)">
                <path d="M29.0278681,10.3455043 C28.4609121,10.7854846 27.920954,11.2597669 27.2579037,11.8095136 C27.2579037,11.4587185 27.2579037,11.2190619 27.2579037,10.9794053 C27.2574461,7.65439818 27.2464639,4.32984845 27.2670555,1.00484136 C27.2711739,0.387862738 27.0496995,0.0622224283 26.4360691,0.0379823491 C25.8993142,0.0164864298 25.3579833,-0.0251333289 24.8253466,0.0206026696 C23.875844,0.102012747 23.8067476,0.202174584 23.8067476,1.13930519 C23.8053749,6.19404775 23.8057592,11.2487903 23.8057592,16.3030755 L23.8057592,19.4451386 L27.2565309,19.4451386 C27.2565309,18.2505143 27.244176,17.0892773 27.2665979,15.928955 C27.2711739,15.6792365 27.3265425,15.3595419 27.4862419,15.195807 C28.3291257,14.3304819 29.1253351,13.3823746 30.0990901,12.6894743 C32.7512912,10.8019496 35.70413,11.769266 36.8581761,14.8107099 C37.4292504,16.3167963 37.6273876,17.8489522 37.0526525,19.4492548 L40.6937091,19.4492548 C41.2826295,17.6317063 40.9696369,15.8699556 40.4498128,14.1415922 C38.6606295,8.19499768 32.5348504,7.62284034 29.0278681,10.3455043 M13.6683018,9.54233446 C12.1500127,8.90477464 10.5424933,8.76070625 8.90934882,8.82336457 C2.41795398,9.07171104 -0.253465948,14.2215845 0.018801071,19.4437208 L3.41367336,19.4437208 C3.54134143,18.3986532 3.59030373,17.4066394 3.79210164,16.4461834 C4.69767547,12.1415113 8.02848494,11.0822655 11.2714368,11.9498774 C13.6527436,12.5869799 14.5651814,14.4950857 14.9536766,16.7164832 C15.1106306,17.6138235 15.1385437,18.5340318 15.2245709,19.4400619 L18.8120893,19.4400619 C18.6963186,18.2591584 18.6592537,17.1162158 18.4602013,16.0025443 C17.9353437,13.0726962 16.5328254,10.7447339 13.6683018,9.54233446 M129.146034,9.06192354 C127.739397,8.7948253 126.221108,8.79574002 124.79754,8.9914901 C119.44143,9.72646759 116.988739,14.4336166 117.255058,19.451313 L120.697519,19.451313 C120.776683,18.5795848 120.816036,17.7728018 120.92723,16.9765381 C121.469476,13.1031564 124.24843,11.0994623 128.061999,11.8115718 C130.143126,12.2003278 131.646314,13.8363044 132.116261,16.3252575 C132.309822,17.3506585 132.371597,18.4012144 132.493774,19.439879 C133.629059,19.4389642 134.764344,19.4389642 136.022721,19.4389642 C135.932117,18.3449592 135.904204,17.2907444 135.749081,16.2552814 C135.151466,12.2648155 132.953196,9.78500967 129.146034,9.06192354 M56.0838884,9.71466771 C53.5712527,8.55480278 50.9927239,8.42719935 48.4480568,9.53904147 C45.7322505,10.7258906 44.5191751,13.7334899 45.6013793,16.3875499 C46.2433804,17.9608682 47.4317458,19.2112904 49.0461291,19.4074979 C51.3217323,19.6842007 53.6563648,19.4774739 55.9653721,19.4774739 C55.994658,19.3892035 56.0239438,19.300933 56.0527721,19.2126625 C54.7033344,18.6272417 53.3429145,18.0651463 52.0081197,17.447253 C51.1579145,17.053466 50.3031333,16.6409273 49.5284307,16.1204517 C48.6370422,15.5213101 48.3803333,14.5809779 48.6191961,13.5560342 C48.8603469,12.5187418 49.5787658,11.8985616 50.5987375,11.6611918 C51.7093124,11.4023261 52.8354454,11.3735124 53.9194799,11.766842 C54.6745061,12.0408006 55.3975009,12.4044018 56.1287323,12.7419334 C56.4545376,12.8924049 56.7519721,13.037388 56.9803104,12.6033534 C57.4717638,11.6694243 57.0379669,10.1551054 56.0838884,9.71466771 M75.217945,10.1898647 C72.1955523,8.38832375 69.0546434,8.28358831 65.991525,9.9685025 C63.1759637,11.5171234 62.1889386,14.2539656 61.8205773,17.2675105 C61.7322621,17.9878525 61.7244831,18.7182564 61.6796391,19.4514044 L65.1976035,19.4514044 C65.3357962,18.2787334 65.3792674,17.1723796 65.6108088,16.1071882 C66.0651973,14.015681 67.062747,12.2960075 69.3639753,11.8363607 C71.0154235,11.5066041 72.5808445,11.8615155 73.9911419,12.8032197 C74.4569701,13.1146818 74.8871063,13.4810272 75.3593408,13.7815127 C75.8228812,14.0769672 76.1697356,13.9260384 76.3427052,13.4078496 C76.7659775,12.139133 76.3715335,10.8772768 75.217945,10.1898647 M113.870573,9.17553176 C111.978431,8.52150698 110.189706,8.64956777 108.687432,10.1268405 C108.033534,10.7694313 107.443241,11.4765098 106.722076,12.2659132 C106.722076,11.7957471 106.72711,11.4216266 106.721161,11.0475062 C106.68913,9.07079632 106.579308,8.9715492 104.591987,9.1041836 C103.756882,9.15998152 103.578422,9.34246815 103.577507,10.1753207 C103.575219,13.0489135 103.576591,15.9229636 103.576591,18.7965564 C103.576591,19.0115156 103.576591,19.2264748 103.576591,19.4469223 L107.023629,19.4469223 C107.023629,18.9964227 107.083574,18.5655896 107.013104,18.1571671 C106.741295,16.5728722 107.435462,15.3645271 108.380846,14.1872825 C110.253311,11.8542892 111.481029,11.6722599 113.672435,12.5179185 C114.208733,12.7246452 114.468645,12.4776708 114.504337,11.9946987 C114.554672,11.3031704 114.594025,10.598836 114.508455,9.91599757 C114.474136,9.63975214 114.145585,9.27066263 113.870573,9.17553176 M84.4813842,10.0425033 C84.4868753,9.51059368 84.2699769,9.20461985 83.7721172,9.17443409 C83.0811538,9.13235697 82.3846994,9.13601585 81.6932784,9.17351937 C81.1899276,9.20141833 80.9766899,9.50510536 80.9798931,10.0361003 C80.992248,12.3261017 80.9464889,14.6165606 80.9776051,16.9056473 C80.9890449,17.7471897 81.1528627,18.5869026 81.2494145,19.4481114 L84.9110627,19.4481114 C84.7618879,18.3495328 84.5280585,17.2976048 84.4937392,16.2392738 C84.4273884,14.1756655 84.4598774,12.107941 84.4813842,10.0425033 M96.6218392,9.22378323 C96.0095816,9.11538892 95.3716989,9.09480772 94.7480015,9.12453612 C93.9023722,9.1647838 93.7536549,9.35733235 93.7564004,10.2048204 C93.7632643,12.2720875 93.7541125,14.3402694 93.7966685,16.4075365 C93.8135994,17.2211799 93.6186654,17.9026463 93.0228811,18.4711448 C92.7277345,18.7528785 92.4723983,19.076232 92.1301198,19.4572129 L97.0409931,19.4572129 C97.0981921,19.3716866 97.1210717,19.3533922 97.1210717,19.3350978 C97.147612,16.1683372 97.1833041,13.0015767 97.1723219,9.83481617 C97.1714068,9.62122906 96.842856,9.26265883 96.6218392,9.22378323 M142.007058,26.0945582 C140.962834,26.1210851 140.085631,27.011565 140.089735,28.040625 C140.093868,29.1186224 140.987086,30.0072729 142.058766,29.9999551 C143.144173,29.9926374 144.012225,29.1076458 143.99987,28.0223306 C143.987515,26.942961 143.082399,26.0671166 142.007058,26.0945582"></path>
            </g>
        </g>
    </g>
</svg>