<?xml version="1.0" encoding="UTF-8"?>
<svg width="128px" height="38px" viewBox="0 0 128 38" version="1.1" xmlns="http://www.w3.org/2000/svg" xmlns:xlink="http://www.w3.org/1999/xlink">
    <title>onomy</title>
    <g id="01-HOME" stroke="none" stroke-width="1" fill="none" fill-rule="evenodd">
        <g id="AETERNUM" transform="translate(-868.000000, -3409.000000)">
            <g id="onomy" transform="translate(868.000000, 3409.000000)">
                <path d="M62.5011423,13.3160159 C62.5011423,11.812416 63.1648886,11.2409936 64.2208565,11.2409936 C65.2768243,11.2409936 65.9405707,11.812416 65.9405707,13.3160159 L65.9405707,24.683204 C65.9405707,26.1868039 65.2768243,26.7582263 64.2208565,26.7582263 C63.1648886,26.7582263 62.5011423,26.1868039 62.5011423,24.683204 L62.5011423,13.3160159 Z M59.1824106,24.4730471 C59.1824106,27.8411722 60.9624731,29.7658515 64.2207711,29.7658515 C67.4790692,29.7658515 69.2591317,27.8411722 69.2591317,24.4730471 L69.2591317,13.5265131 C69.2591317,10.1583881 67.4790692,8.23370873 64.2207711,8.23370873 C60.9624731,8.23370873 59.1824106,10.1583881 59.1824106,13.5265131 L59.1824106,24.4730471 Z M79.6979428,29.5252347 L83.1071543,29.5252347 L83.1071543,8.47432556 L80.1505126,8.47432556 L80.1505126,21.0752279 L76.7413011,8.47432556 L72.5778634,8.47432556 L72.5778634,29.5252347 L75.5647219,29.5252347 L75.5647219,14.2787385 L79.6979428,29.5252347 Z M89.7446177,13.3160159 C89.7446177,11.812416 90.4083641,11.2409936 91.4643319,11.2409936 C92.5202997,11.2409936 93.1840461,11.812416 93.1840461,13.3160159 L93.1840461,24.683204 C93.1840461,26.1868039 92.5202997,26.7582263 91.4643319,26.7582263 C90.4083641,26.7582263 89.7446177,26.1868039 89.7446177,24.683204 L89.7446177,13.3160159 Z M86.425886,24.4730471 C86.425886,27.8411722 88.2059485,29.7658515 91.4642465,29.7658515 C94.7225446,29.7658515 96.5022656,27.8410871 96.5022656,24.4730471 L96.5022656,13.5265131 C96.5022656,10.1583881 94.7222031,8.23370873 91.4639051,8.23370873 C88.2056071,8.23370873 86.4255446,10.1583881 86.4255446,13.5265131 L86.425886,24.4730471 Z M104.437261,8.47432556 L99.8212534,8.47432556 L99.8212534,29.5252347 L102.717547,29.5252347 L102.717547,14.6392383 L105.191743,29.5252347 L108.32943,29.5252347 L110.622155,14.4287411 L110.622155,29.5252347 L113.759841,29.5252347 L113.759841,8.47432556 L109.143834,8.47432556 L106.88107,23.4204762 L104.437261,8.47432556 Z M120.487955,29.5252347 L123.806687,29.5252347 L123.806687,22.5483678 L128,8.47432556 L124.832182,8.47432556 L122.297552,18.0675176 L119.763604,8.47432556 L116.294045,8.47432556 L120.487955,22.5483678 L120.487955,29.5252347 Z M37.2944614,22.2670093 L37.2239602,22.3119547 C39.7642341,24.5842895 41.406015,27.6445675 41.9609416,29.4463621 C43.6926913,35.070908 39.7260899,40.3053449 32.8958874,36.9401978 C32.8932086,36.9385936 32.89053,36.9369881 32.8878516,36.9353815 L32.8935827,36.9402829 C28.6063754,34.8131893 27.544774,30.9674042 23.83126,30.9674042 C20.1195121,30.9674042 19.0574107,34.8095322 14.7750522,36.9372469 C7.93873475,40.3053449 3.97204799,35.070908 5.70405378,29.4463621 C6.2588677,27.6445985 7.90061523,24.5842666 10.4409259,22.3118943 C-5.39000008,12.2157322 -1.8181248,-5.1789228 11.7974535,1.47927518 L12.219,1.691 L12.2170193,1.69115593 L12.2209059,1.69255567 C12.610833,1.86852375 12.9905695,2.05122826 13.360622,2.23993602 C15.5238228,3.33355609 17.5493216,4.68267387 19.3927978,6.25908523 C20.5546092,7.25134187 22.0060813,7.83876857 23.5273383,7.93758222 L23.808,7.949 L24.054137,7.94021568 C25.5958092,7.85164919 27.0694379,7.2626134 28.2474437,6.25865981 C30.4143117,4.40791261 32.8320129,2.87076516 35.4292371,1.69255567 L35.5260432,1.64907766 C49.3994279,-5.45580514 53.1716157,12.0792033 37.2944614,22.2670093 Z M33.7138341,24.6619735 L33.5719845,24.776753 C32.2184465,25.8885732 31.045122,27.1730219 30.3404053,28.5692073 C30.9245206,29.5588993 31.7858736,30.4451074 32.8644755,31.1441231 C35.5234727,32.867154 37.5622563,31.0100311 36.3738977,28.054307 C35.8839997,26.8361573 34.8667524,25.6236434 33.7138341,24.6619735 Z M13.9504244,24.6628389 L13.7822079,24.8051993 C12.699383,25.7425355 11.7566488,26.8958305 11.2909269,28.0542219 C10.1025683,31.0100311 12.1413519,32.8670689 14.8003491,31.144038 C15.8778252,30.4457653 16.7384903,29.5606607 17.3232683,28.5728804 C16.5949069,27.1269213 15.3638698,25.8012884 13.9504244,24.6628389 Z M23.8155748,15.7413705 L23.2763169,16.2183364 C21.9619297,17.3868751 20.6562816,18.5805469 19.4239471,19.7213646 C20.8103445,20.0686887 22.2822155,20.2613168 23.83126,20.2613168 C25.3731937,20.2613168 26.8386628,20.0704532 28.2190015,19.7268332 C26.8146237,18.4287589 25.3150141,17.061931 23.8155748,15.7413705 Z M30.4298,11.1922406 C28.7135163,13.175783 30.4498666,15.7814979 32.939035,17.8179403 C36.5203633,15.7642741 39.1813487,12.6970432 40.6656352,9.74926042 C40.1536289,5.57827716 33.7792068,7.32103392 30.4298,11.1922406 Z M6.99324331,9.74169205 C8.47551813,12.6891576 11.133905,15.7563412 14.7114745,17.8128984 C17.1944823,15.776165 18.9241964,13.1734122 17.2115511,11.1909644 C13.8699416,7.32225947 7.50848692,5.57888885 6.99324331,9.74169205 Z" id="Combined-Shape" fill="#747293" fill-rule="nonzero"></path>
                <g id="onomy_white"></g>
            </g>
        </g>
    </g>
</svg>