<?xml version="1.0" encoding="UTF-8"?>
<svg width="102px" height="34px" viewBox="0 0 102 34" version="1.1" xmlns="http://www.w3.org/2000/svg" xmlns:xlink="http://www.w3.org/1999/xlink">
    <title>peaq</title>
    <g id="01-HOME" stroke="none" stroke-width="1" fill="none" fill-rule="evenodd">
        <g id="AETERNUM" transform="translate(-881.000000, -3512.000000)" fill="#747293" fill-rule="nonzero">
            <g id="peaq" transform="translate(881.000000, 3512.000000)">
                <path d="M75.9305138,11.9089719 L75.9305138,11.9500424 C75.9173126,18.5110514 70.5678828,23.8472799 64.0068738,23.8472799 C61.7758668,23.8472799 59.6358015,23.3060297 57.6453501,22.2381973 C57.4223961,22.1179194 57.1979752,21.9903076 56.9779548,21.8568285 C56.3824329,21.4959951 55.9585269,20.8990063 55.8147802,20.2198766 C55.6710335,19.5422137 55.8147802,18.8278808 56.210817,18.2602281 L61.3284919,10.9012784 C61.9064122,10.0696012 63.0490516,9.86424884 63.8807288,10.4421691 C64.712406,11.0200894 64.9177584,12.1627288 64.3398381,12.994406 L59.9584981,19.294324 C61.2419506,19.882512 62.6016768,20.1802729 64.0068738,20.1802729 C68.5510289,20.1802729 72.254706,16.4853967 72.2635068,11.9427084 L72.2635068,11.9089719 C72.2635068,9.75863904 71.4420972,7.72124995 69.9518256,6.17083939 C68.4615539,4.62189563 66.4637685,3.73447993 64.3281037,3.67287421 C58.6163735,3.5056587 55.8045126,7.86059621 52.5496772,12.904931 L52.5320755,12.9313335 C49.225902,18.0548757 45.4870217,23.8472799 37.9975266,23.8472799 C37.8552467,23.8472799 37.7115,23.8458131 37.5662865,23.8414127 C34.4654654,23.750471 31.5670631,22.4640849 29.4064626,20.2198766 C27.2546629,17.9844691 26.0694862,15.0435295 26.0694862,11.938308 L26.0694862,11.8987043 C26.0841542,5.33769539 31.4321172,0 37.9931262,0 C40.2241332,0 42.3656653,0.542717036 44.3546499,1.61054948 C44.5790707,1.73082731 44.8034916,1.85843915 45.0220452,1.9919182 C45.6175671,2.35275169 46.0414731,2.94974043 46.1866866,3.62887013 C46.3304333,4.30653302 46.1866866,5.01939919 45.7906499,5.58705187 L40.6715081,12.9474683 C40.0935878,13.7791455 38.9509484,13.9844979 38.120738,13.4065776 C37.2890608,12.8271905 37.0837084,11.6845511 37.6616287,10.8543407 L42.0429687,4.5544227 C40.7595162,3.96476797 39.39979,3.667007 37.9931262,3.667007 C33.4504379,3.667007 29.7467608,7.36335006 29.7364932,11.9060383 L29.7364932,11.938308 C29.7364932,14.0901077 30.5579028,16.1274968 32.0496412,17.6764406 C33.5399129,19.2268511 35.5376983,20.1142668 37.6733631,20.1758725 C37.778973,20.1788061 37.8845828,20.1802729 37.9887258,20.1802729 C43.4892363,20.1802729 46.2556263,15.8928084 49.4517896,10.9438157 L49.4679245,10.9159464 C52.8371705,5.69559528 56.6581918,-0.22002042 64.4351803,0.00733401401 C67.5360014,0.0968089849 70.4329369,1.38319504 72.5935374,3.62887013 C74.7453371,5.8642776 75.9305138,8.80521722 75.9305138,11.9089719 L75.9305138,11.9089719 Z M11.9265736,0.0029336056 C5.3934339,0.0029336056 0.0704065345,5.28489049 0.0044004084,11.8033621 C0.0014668028,11.8429658 0,11.8840363 0,11.9251068 L0,32.125915 C0,33.1380089 0.821409569,33.9594185 1.8335035,33.9594185 C2.84559743,33.9594185 3.667007,33.1380089 3.667007,32.125915 L3.667007,20.5176376 C5.8114727,22.5814291 8.72307626,23.8502135 11.9265736,23.8502135 C18.5022505,23.8502135 23.8516804,18.5022505 23.8516804,11.9265736 C23.8516804,5.35089662 18.5022505,0.0029336056 11.9265736,0.0029336056 Z M11.9265736,20.1832065 C7.37361768,20.1832065 3.66994061,16.4795295 3.66994061,11.9265736 C3.66994061,7.37361768 7.37361768,3.66994061 11.9265736,3.66994061 C16.4795295,3.66994061 20.1846733,7.37361768 20.1846733,11.9265736 C20.1846733,16.4795295 16.4809963,20.1832065 11.9265736,20.1832065 L11.9265736,20.1832065 Z M90.07636,0.0029336056 C83.5006831,0.0029336056 78.1512533,5.35236342 78.1512533,11.9265736 C78.1512533,18.5007837 83.5006831,23.8502135 90.07636,23.8502135 C93.2783905,23.8502135 96.1885273,22.5828959 98.332993,20.5205712 L98.332993,32.125915 C98.332993,33.1380089 99.1544026,33.9594185 100.166496,33.9594185 C101.17859,33.9594185 102,33.1380089 102,32.125915 L102,11.92364 C101.998533,5.35089662 96.6491034,0.0029336056 90.07636,0.0029336056 Z M90.07636,20.1832065 C85.5234041,20.1832065 81.8182603,16.4795295 81.8182603,11.9265736 C81.8182603,7.37361768 85.5234041,3.66994061 90.07636,3.66994061 C94.6293159,3.66994061 98.3315262,7.37215088 98.332993,11.9251068 L98.332993,11.9251068 C98.332993,16.4795295 94.6293159,20.1832065 90.07636,20.1832065 Z"></path>
            </g>
        </g>
    </g>
</svg>