<?xml version="1.0" encoding="UTF-8"?>
<svg width="100px" height="100px" viewBox="0 0 100 100" version="1.1" xmlns="http://www.w3.org/2000/svg" xmlns:xlink="http://www.w3.org/1999/xlink">
    <title>protect</title>
    <g id="01-HOME" stroke="none" stroke-width="1" fill="none" fill-rule="evenodd">
        <g id="AETERNUM-SERVICIOS-Copy" transform="translate(-1150.000000, -809.000000)" fill-rule="nonzero">
            <g id="protect" transform="translate(1150.000000, 809.000000)">
                <rect id="Rectangle" x="0" y="0" width="100" height="100"></rect>
                <path d="M70.288,0.4 C72.782,0.4 74.412,1.428 75.57,3.722 C78.816,10.162 83.85,14.844 90.532,17.644 C93.482,18.88 94.746,20.8 94.624,23.85 C94.546,25.894 94.524,27.982 94.502,29.982 C94.47,33.042 94.436,36.204 94.204,39.294 C93.504,48.666 90.654,57.924 85.73,66.808 C81.945173,73.6495138 77.1491248,79.8803982 71.504,85.29 C66.076,90.478 59.7,95.056 52.552,98.89 C50.824,99.818 49.164,99.828 47.476,98.922 C40.338,95.092 33.972,90.532 28.556,85.368 C22.9131989,79.9862075 18.1157429,73.7828913 14.326,66.968 C8.46099776,56.4787435 5.37657055,44.6635972 5.36568061,32.646 L5.36568061,32.646 L5.36568061,28.5 C5.378,26.778 5.38,24.996 5.36568061,23.244 C5.344,20.624 6.458,18.932 8.874,17.932 C15.968,14.98 21.258,10.086 24.6,3.38 C25.6,1.384 27.18,0.412 29.44,0.426 L29.44,0.426 L55.782,0.426 C60.506,0.434 65.4,0.442 70.2,0.4 L70.2,0.4 Z M70.054,2.89 L70.012,2.89 C65.106,2.914 60.118,2.914 55.294,2.914 L55.294,2.914 L44.926,2.914 C39.936,2.924 34.798,2.926 29.736,2.914 L29.736,2.914 L29.716,2.914 C28.748,2.914 27.554,3.114 26.856,4.514 C23.244,11.8 17.478,17.114 9.724,20.33 C8.48,20.846 7.908,21.722 7.92367368,23.084 C7.938,24.866 7.938,26.682 7.938,28.436 C7.92367368,30.064 7.922,31.746 7.938,33.402 C8.046,44.768 10.934,55.626 16.518,65.678 C23.716,78.634 34.476,89.036 48.5,96.59 C48.9437691,96.844144 49.444676,96.9817558 49.956,96.99 C50.6002951,96.9646069 51.2277222,96.7767916 51.78,96.444 C62.528,90.616 71.43,83.004 78.23,73.816 C85.918,63.43 90.404,52.116 91.558,40.19 C91.936,36.292 91.962,32.304 91.988,28.448 C91.998,26.872 92.01,25.272 92.044,23.672 C92.094,21.316 91.788,21.026 89.638,20.08 C82.276,16.848 76.8,11.746 73.34,4.89 C72.63,3.49 71.654,2.89 70.054,2.89 L70.054,2.89 Z M45.594,18.972 C49.6148781,17.6044113 54.0433863,18.188403 57.5722836,20.5515879 C61.1011809,22.9147728 63.3274782,26.7872826 63.594,31.026 C63.68,32.492 63.662,33.99 63.662,35.44 L63.662,35.44 L63.662,38.946 L65.952,38.946 C68.706,38.966 70.502,40.764 70.52,43.526 C70.532,46.218 70.532,48.954 70.532,51.602 L70.532,63.058 C70.524,66.224 68.804,67.97 65.688,67.97 L65.688,67.97 L34.31,67.97 C31.142,67.968 29.464,66.28 29.464,63.08 L29.464,63.08 L29.464,43.746 C29.466,40.654 31.178,38.946 34.288,38.946 L34.288,38.946 L36.31,38.946 L36.31,36.52 C36.3,34.906 36.296,33.38 36.31,31.826 C36.3743966,26.0089498 40.0920711,20.8617085 45.594,18.972 Z M65.604,41.38 L34.344,41.38 C32.542,41.38 31.9,42.01 31.9,43.78 L31.9,43.78 L31.9,63.1 C31.902,64.888 32.536,65.522 34.322,65.522 L34.322,65.522 L65.582,65.522 C67.442,65.522 68.07,64.904 68.07,63.072 C68.0726667,56.664 68.0726667,50.256 68.07,43.848 C68.07,42.004 67.448,41.38 65.604,41.38 L65.604,41.38 Z M50.502,20.72 C45.218,20.394 40.276,24.036 39.246,29.008 C38.8,31.164 38.746,33.434 38.692,35.634 C38.668,36.624 38.644,37.652 38.584,38.652 L38.584,38.652 L38.572,38.864 L61.076,38.864 L61.076,38.664 C61.076,37.778 61.102,36.884 61.124,36.018 C61.178,34.128 61.232,32.176 61.022,30.29 C60.434,25 56.102,21.066 50.502,20.72 Z" id="Combined-Shape" fill="#4E82E7"></path>
            </g>
        </g>
    </g>
</svg>