<?xml version="1.0" encoding="utf-8"?><svg id="loader" image-rendering="auto" baseProfile="basic" version="1.1" x="0px" y="0px" width="236" height="220" xmlns="http://www.w3.org/2000/svg" xmlns:xlink="http://www.w3.org/1999/xlink"><g id="Escena-1" overflow="visible"><g mask="url(#mask_4)"><g id="Interpolaci.__C3.__B3n-122" transform="translate(141.7 106.2)"><path fill="#FFF" stroke="none" d="M-50.85 -99.75L-50.95 -99.85Q-52.05 -101.7 -54 -102.9 -56 -104.05 -58.3 -104.05L-58.3 -78.25 -32.3 -33.25 -32.4 -33.15 -23.8 -18.2 -23.7 -18.3 .55 23.7 .25 23.7 10.1 40.9 10.4 40.9 46.4 104.05Q50.4 102.2 54.2 99.85 57.1 98.05 58 94.7 58.85 91.3 57.15 88.3L-50.85 -99.75Z"/></g></g><mask id="mask_4"><g><g transform="matrix(.005 -1.992 .5 .866 21.65 -77.85)" id="Interpolaci.__C3.__B3n-115"><g id="Interpolaci.__C3.__B3n_1_0.0"><g><g id="Layer64_0_FILL1"><path fill="#FFF" stroke="none" d="M-19.55 -122.35L-19.55 122.35 19.6 122.35 19.6 -122.35 -19.55 -122.35Z" fill-opacity="1"/></g></g></g><animateTransform attributeName="transform" additive="replace" type="translate" repeatCount="indefinite" dur="2.267s" keyTimes="0;.01499;.015;.02899;.029;.04399;.044;.05899;.059;.07399;.074;.08799;.088;.10299;.103;.11799;.118;.13199;.132;.14699;.147;.16199;.162;.17599;.176;.19099;.191;.20599;.206;1" values="21.65,-77.85;21.65,-77.85;37.302,-53.254;37.302,-53.254;51.623,-30.347;51.623,-30.347;64.831,-9.288;64.831,-9.288;76.886,9.921;76.886,9.921;87.75,27.387;87.75,27.387;97.517,42.842;97.517,42.842;106.2,56.637;106.2,56.637;113.644,68.497;113.644,68.497;119.969,78.508;119.969,78.508;125.069,86.812;125.069,86.812;129.125,93.243;129.125,93.243;131.968,97.816;131.968,97.816;133.761,100.591;133.761,100.591;134.218,101.417;134.218,101.417" calcMode="discrete"/><animateTransform attributeName="transform" additive="sum" type="rotate" repeatCount="indefinite" dur="2.267s" keyTimes="0;.01499;.015;.04399;.044;.05899;.059;.13199;.132;.14699;.147;.19099;.191;.20599;.206;1" values="-29,0,0;-29,0,0;-30,0,0;-30,0,0;-30.001,0,0;-30.001,0,0;-30,0,0;-30,0,0;-30.001,0,0;-30.001,0,0;-30,0,0;-30,0,0;-30.001,0,0;-30.001,0,0;-29,0,0;-29,0,0" calcMode="discrete"/><animateTransform attributeName="transform" additive="sum" type="skewY" repeatCount="indefinite" dur="2.267s" keyTimes="0;.01499;.015;.02899;.029;.04399;.044;.05899;.059;.07399;.074;.08799;.088;.10299;.103;.11799;.118;.13199;.132;.14699;.147;.16199;.162;.17599;.176;.19099;.191;.20599;.206;1" values="-59.861;-59.861;-51.773;-51.773;-44.285;-44.285;-37.395;-37.395;-31.104;-31.104;-25.413;-25.413;-20.32;-20.32;-15.828;-15.828;-11.933;-11.933;-8.637;-8.637;-5.943;-5.943;-3.844;-3.844;-2.347;-2.347;-1.448;-1.448;-1.151;-1.151" calcMode="discrete"/><animateTransform attributeName="transform" additive="sum" type="scale" repeatCount="indefinite" dur="2.267s" keyTimes="0;.01499;.015;.02899;.029;.04399;.044;.05899;.059;.07399;.074;.08799;.088;.10299;.103;.11799;.118;.13199;.132;.14699;.147;.16199;.162;.17599;.176;.19099;.191;.20599;.206;1" values="1.992,1;1.992,1;1.855,1;1.855,1;1.728,1;1.728,1;1.612,1;1.612,1;1.506,1;1.506,1;1.41,1;1.41,1;1.324,1;1.324,1;1.248,1;1.248,1;1.182,1;1.182,1;1.127,1;1.127,1;1.081,1;1.081,1;1.046,1;1.046,1;1.02,1;1.02,1;1.005,1;1.005,1;1,1;1,1" calcMode="discrete"/><animateTransform attributeName="transform" additive="sum" type="scale" repeatCount="indefinite" dur="2.267s" keyTimes="0;.01499;.015;.02999;.03;.04399;.044;.05899;.059;.07399;.074;.08799;.088;.10299;.103;.11799;.118;.13199;.132;.14699;.147;.16199;.162;.17599;.176;.19099;.191;1" values=".502,1;.502,1;.619,1;.619,1;.716,1;.716,1;.794,1;.794,1;.856,1;.856,1;.903,1;.903,1;.938,1;.938,1;.962,1;.962,1;.978,1;.978,1;.989,1;.989,1;.995,1;.995,1;.998,1;.998,1;1,1;1,1;1,1;1,1" calcMode="discrete"/><animateTransform attributeName="transform" additive="sum" type="translate" repeatCount="indefinite" dur="2.267s" keyTimes="0;.01499;.015;.02899;.029;.07399;.074;.08799;.088;.10299;.103;.11799;.118;.13199;.132;.16199;.162;.17599;.176;.19099;.191;.20599;.206;1" values="0,0;0,0;-.1,-.15;-.1,-.15;-.05,-.1;-.05,-.1;0,-.1;0,-.1;-.05,-.05;-.05,-.05;0,-.1;0,-.1;-.05,-.1;-.05,-.1;-.05,-.05;-.05,-.05;0,-.05;0,-.05;-.05,-.05;-.05,-.05;-.1,-.05;-.1,-.05;-.05,-.05;-.05,-.05" calcMode="discrete"/></g></g></mask><g display="none"><g id="Interpolaci.__C3.__B3n-121" transform="translate(137.4 143.8)"><path fill="#FFF" stroke="none" d="M-19.4 -55.9Q-16.1 -58.25 -12.6 -60.15 -17.9 -67 -22.95 -74 -25.6 -72.5 -28.1 -70.75 -42.25 -61 -51.1 -46.35 -60.2 -31.35 -62.1 -13.9 -62.55 -9.6 -62.55 -5.3 -62.55 -.95 -62.1 3.3 -60.05 22.75 -49 39.1L-42.25 47.75 -37.7 52.4Q-35.3 54.65 -32.35 57.05L-30.9 58.15Q-25.35 62.3 -18.8 65.7L-17.15 66.45Q-16.6 66.7 -15.55 67.2L-3.6 71.45 -3.55 71.45 -.15 72.25 .15 72.35 12.05 73.95 18.85 74.05Q19.6 74.05 19.95 74L26.2 73.5 26.45 73.5 30.45 72.9Q35.1 72.1 39.8 70.7L43.7 69.4Q46.1 68.55 48.75 67.35L54.9 64.35Q56.85 63.3 58.45 62.25 61.4 60.45 62.25 57.1 63.15 53.75 61.4 50.7L56.7 42.4Q50.1 47.95 42.1 51.5 37.55 53.6 32.95 54.75 32.8 54.8 31.35 55.2L25.3 56.3Q24.1 56.5 21.6 56.7 20.05 56.85 18.4 56.85L8.8 56.4 2.5 55.25Q-1.15 54.35 -4.2 53.25L-13 49.3Q-14.65 48.45 -16.55 47.2L-17.7 46.45Q-18.5 45.95 -18.85 45.65L-23.2 42.3Q-27.2 39.05 -30.9 34.6L-36.15 27.35 -41.1 17.5Q-43.8 10.75 -44.85 3.3L-44.8 3.3Q-45.4 -.9 -45.4 -5.3 -45.4 -9.7 -44.8 -13.9L-44.85 -13.9Q-43.8 -21.45 -41.1 -28.15 -39.45 -32.3 -37.15 -36.25L-36.4 -37.55Q-34.5 -40.65 -33.05 -42.5L-27.55 -48.95 -19.4 -55.9Z"/></g><animate attributeName="display" repeatCount="indefinite" dur="2.267s" keyTimes="0;.176;1" values="none;inline;inline"/><animate attributeName="mask" repeatCount="indefinite" dur="2.267s" keyTimes="0;.176;1" values="none;url(#mask_3);url(#mask_3)"/></g><mask id="mask_3"><g><g display="none"><g transform="matrix(.604 1.058 -1.058 .604 189.45 110.3)" id="Interpolaci.__C3.__B3n-119"><g id="Interpolaci.__C3.__B3n_2_0.0"><g><g id="Layer68_0_FILL1"><path fill="#FFF" stroke="none" d="M57.25 -16.75Q33.55 -40.45 0 -40.45 -33.55 -40.45 -57.25 -16.75 -80.95 6.95 -80.95 40.5L80.95 40.5Q80.95 6.95 57.25 -16.75Z" fill-opacity="1"/></g></g></g><animateTransform attributeName="transform" additive="replace" type="translate" repeatCount="indefinite" dur="2.267s" keyTimes="0;.19099;.191;.20599;.206;.22099;.221;.23499;.235;.24999;.25;.26499;.265;.27899;.279;.29399;.294;.30899;.309;.32299;.323;.33799;.338;.35299;.353;1" values="146.546,134.776;146.546,134.776;146.522,134.735;146.522,134.735;146.549,134.819;146.549,134.819;146.569,134.727;146.569,134.727;146.644,134.898;146.644,134.898;146.565,134.812;146.565,134.812;146.572,134.825;146.572,134.825;146.502,134.905;146.502,134.905;146.558,134.869;146.558,134.869;146.569,134.847;146.569,134.847;146.558,134.837;146.558,134.837;146.614,134.82;146.614,134.82;146.614,134.88;146.614,134.88" calcMode="discrete"/><animateTransform attributeName="transform" additive="sum" type="rotate" repeatCount="indefinite" dur="2.267s" keyTimes="0;.19099;.191;.20599;.206;.22099;.221;.23499;.235;.24999;.25;.26499;.265;.27899;.279;.29399;.294;.30899;.309;.32299;.323;.33799;.338;.35299;.353;1" values="60.276,0,0;60.276,0,0;64.274,0,0;64.274,0,0;70.278,0,0;70.278,0,0;78.276,0,0;78.276,0,0;88.277,0,0;88.277,0,0;100.273,0,0;100.273,0,0;114.275,0,0;114.275,0,0;130.274,0,0;130.274,0,0;148.276,0,0;148.276,0,0;168.273,0,0;168.273,0,0;-169.727,0,0;-169.727,0,0;-145.724,0,0;-145.724,0,0;-119.724,0,0;-119.724,0,0" calcMode="discrete"/><animateTransform attributeName="transform" additive="sum" type="scale" repeatCount="indefinite" dur="2.267s" keyTimes="0;.22099;.221;.26499;.265;.30899;.309;.33799;.338;1" values="1.217,1.217;1.217,1.217;1.218,1.218;1.218,1.218;1.217,1.217;1.217,1.217;1.218,1.218;1.218,1.218;1.217,1.217;1.217,1.217" calcMode="discrete"/><animateTransform attributeName="transform" additive="sum" type="translate" repeatCount="indefinite" dur="2.267s" keyTimes="0;.19099;.191;.20599;.206;.22099;.221;.23499;.235;.24999;.25;.27899;.279;.29399;.294;.30899;.309;.32299;.323;.33799;.338;1" values="0,-40.55;0,-40.55;.05,-40.5;.05,-40.5;0,-40.5;0,-40.5;.05,-40.5;.05,-40.5;-.05,-40.4;-.05,-40.4;0,-40.5;0,-40.5;-.05,-40.5;-.05,-40.5;.1,-40.45;.1,-40.45;.1,-40.55;.1,-40.55;.1,-40.5;.1,-40.5;.1,-40.55;.1,-40.55" calcMode="discrete"/></g><animate attributeName="display" repeatCount="indefinite" dur="2.267s" keyTimes="0;.176;1" values="none;inline;inline"/></g></g></mask><g display="none"><g id="Interpolaci.__C3.__B3n-120" transform="translate(174 103.1)"><path fill="#FFF" stroke="none" d="M30.7 -25.85L30.65 -25.85Q26.7 -29.1 23 -31.45L22.95 -31.5 14.55 -36.15Q-1.65 -43.95 -19.8 -43.95 -35.35 -43.95 -49.55 -38.2 -54.7 -36.15 -59.55 -33.3 -54.5 -26.3 -49.2 -19.45 -45.2 -21.6 -40.9 -23.15L-40.8 -23.2 -34.5 -25.05Q-33.8 -25.3 -33.2 -25.35L-31.9 -25.65 -23.2 -26.75 -18.35 -26.8 -11 -26.2Q-8.45 -25.8 -8.35 -25.75 11.25 -22.1 25.15 -7.6 39.05 6.95 41.8 26.8 42.4 31 42.4 35.4 42.4 39.8 41.8 44L50.95 44Q54.4 44 56.9 41.65 59.4 39.25 59.55 35.8L59.55 35.4Q59.55 31 59.1 26.8 58.85 24.25 58.25 21.05 55.75 7.15 48.5 -5.05 41.4 -16.95 30.7 -25.85Z"/></g><animate attributeName="display" repeatCount="indefinite" dur="2.267s" keyTimes="0;.353;1" values="none;inline;inline"/><animate attributeName="mask" repeatCount="indefinite" dur="2.267s" keyTimes="0;.353;1" values="none;url(#mask_2);url(#mask_2)"/></g><mask id="mask_2"><g><g display="none"><g transform="matrix(-.604 -1.058 1.058 -.604 103.65 159.3)" id="Interpolaci.__C3.__B3n-119"><g id="Interpolaci.__C3.__B3n_2_0.1"><g><g id="Layer68_0_FILL2"><path fill="#FFF" stroke="none" d="M57.25 -16.75Q33.55 -40.45 0 -40.45 -33.55 -40.45 -57.25 -16.75 -80.95 6.95 -80.95 40.5L80.95 40.5Q80.95 6.95 57.25 -16.75Z" fill-opacity="1"/></g></g></g><animateTransform attributeName="transform" additive="replace" type="translate" repeatCount="indefinite" dur="2.267s" keyTimes="0;.36799;.368;.38199;.382;.39699;.397;.41199;.412;.42599;.426;.44099;.441;.45599;.456;.47099;.471;.48499;.485;.49999;.5;.51499;.515;1" values="146.614,134.88;146.614,134.88;146.76,136.507;146.76,136.507;146.732,138.253;146.732,138.253;146.645,139.705;146.645,139.705;146.574,141.048;146.574,141.048;146.6,142.387;146.6,142.387;146.628,143.476;146.628,143.476;146.616,144.61;146.616,144.61;146.607,145.534;146.607,145.534;146.584,146.36;146.584,146.36;146.531,147.025;146.531,147.025;146.639,147.622;146.639,147.622" calcMode="discrete"/><animateTransform attributeName="transform" additive="sum" type="rotate" repeatCount="indefinite" dur="2.267s" keyTimes="0;.36799;.368;.38199;.382;.39699;.397;.41199;.412;.42599;.426;.44099;.441;.45599;.456;.47099;.471;.48499;.485;.49999;.5;.51499;.515;1" values="-119.724,0,0;-119.724,0,0;-103.857,0,0;-103.857,0,0;-88.981,0,0;-88.981,0,0;-75.097,0,0;-75.097,0,0;-62.204,0,0;-62.204,0,0;-50.302,0,0;-50.302,0,0;-39.393,0,0;-39.393,0,0;-29.476,0,0;-29.476,0,0;-20.548,0,0;-20.548,0,0;-12.618,0,0;-12.618,0,0;-5.675,0,0;-5.675,0,0;.276,0,0;.276,0,0" calcMode="discrete"/><animateTransform attributeName="transform" additive="sum" type="scale" repeatCount="indefinite" dur="2.267s" keyTimes="0;.36799;.368;.41199;.412;.48499;.485;.51499;.515;1" values="1.217,1.217;1.217,1.217;1.218,1.218;1.218,1.218;1.217,1.217;1.217,1.217;1.218,1.218;1.218,1.218;1.219,1.219;1.219,1.219" calcMode="discrete"/><animateTransform attributeName="transform" additive="sum" type="translate" repeatCount="indefinite" dur="2.267s" keyTimes="0;.36799;.368;.38199;.382;.39699;.397;.41199;.412;.42599;.426;.44099;.441;.45599;.456;.47099;.471;.48499;.485;.51499;.515;1" values=".1,-40.55;.1,-40.55;.1,-40.7;.1,-40.7;.15,-40.7;.15,-40.7;.15,-40.6;.15,-40.6;.05,-40.6;.05,-40.6;.05,-40.65;.05,-40.65;.05,-40.6;.05,-40.6;0,-40.6;0,-40.6;0,-40.65;0,-40.65;0,-40.6;0,-40.6;-.05,-40.6;-.05,-40.6" calcMode="discrete"/></g><animate attributeName="display" repeatCount="indefinite" dur="2.267s" keyTimes="0;.353;1" values="none;inline;inline"/></g></g></mask><g display="none"><g id="Interpolaci.__C3.__B3n-118" transform="translate(117.4 138.5)"><path fill="#FFF" stroke="none" d="M-112.65 -8.6L-115.45 -3.65Q-116.3 -1.7 -116.25 .35 -116.15 2.45 -115.1 4.3 -113.95 6.3 -111.95 7.45 -109.95 8.6 -107.65 8.6L107.65 8.6Q111.2 8.6 113.75 6.1 116.25 3.55 116.25 0 116.25 -4.4 115.8 -8.6L-112.65 -8.6Z"/></g><animate attributeName="display" repeatCount="indefinite" dur="2.267s" keyTimes="0;.5;1" values="none;inline;inline"/><animate attributeName="mask" repeatCount="indefinite" dur="2.267s" keyTimes="0;.5;1" values="none;url(#mask_1);url(#mask_1)"/></g><mask id="mask_1"><g><g display="none"><g id="Interpolaci.__C3.__B3n-117" transform="translate(337.5 139.25)"><animateTransform attributeName="transform" additive="replace" type="translate" repeatCount="indefinite" dur="2.267s" keyTimes="0;.51499;.515;.52899;.529;.54399;.544;.55899;.559;.57299;.573;.58799;.588;.60299;.603;.61799;.618;.63199;.632;.64699;.647;.66199;.662;.67599;.676;.69099;.691;1" values="337.5,139.25;337.5,139.25;334.95,139.25;334.95,139.25;327.3,139.25;327.3,139.25;314.55,139.25;314.55,139.25;296.75,139.25;296.75,139.25;273.8,139.25;273.8,139.25;245.8,139.25;245.8,139.25;213.95,139.25;213.95,139.25;185.95,139.25;185.95,139.25;163,139.25;163,139.25;145.2,139.25;145.2,139.25;132.45,139.25;132.45,139.25;124.8,139.25;124.8,139.25;122.25,139.25;122.25,139.25" calcMode="discrete"/><g id="Interpolación 3_0.0"><g><g id="Layer66_0_FILL"><path fill="#FFF" stroke="none" d="M-121.85 -13.85L-121.85 13.9 121.9 13.9 121.9 -13.85 -121.85 -13.85Z" fill-opacity="1"/></g></g></g></g><animate attributeName="display" repeatCount="indefinite" dur="2.267s" keyTimes="0;.5;1" values="none;inline;inline"/></g></g></mask><g display="none"><g id="Interpolaci.__C3.__B3n-116" transform="translate(42.25 74.6)"><path fill="#FFF" stroke="none" d="M39.1 -72.2Q35.55 -71.35 33.7 -68.15L-40.4 60.25Q-41.25 62.15 -41.15 64.25 -41.05 66.35 -40.05 68.2 -38.9 70.2 -36.9 71.35 -34.9 72.5 -32.6 72.5L-23.15 72.5 -17.7 55.3 41.15 -46.65 41.15 -72.45Q40.2 -72.45 39.1 -72.2Z"/></g><animate attributeName="display" repeatCount="indefinite" dur="2.267s" keyTimes="0;.662;1" values="none;inline;inline"/><animate attributeName="mask" repeatCount="indefinite" dur="2.267s" keyTimes="0;.662;1" values="none;url(#mask_);url(#mask_)"/></g><mask id="mask_"><g><g display="none"><g transform="matrix(-1.164 .016 -.5 .866 -44.7 236.75)" id="Interpolaci.__C3.__B3n-115"><g id="Interpolaci.__C3.__B3n_1_0.1"><g><g id="Layer64_0_FILL2"><path fill="#FFF" stroke="none" d="M-19.55 -122.35L-19.55 122.35 19.6 122.35 19.6 -122.35 -19.55 -122.35Z" fill-opacity="1"/></g></g></g><animateTransform attributeName="transform" additive="replace" type="translate" repeatCount="indefinite" dur="2.267s" keyTimes="0;.67599;.676;.69099;.691;.70599;.706;.71999;.72;.73499;.735;.74999;.75;.76499;.765;.77899;.779;.79399;.794;.80899;.809;.82299;.823;.83799;.838;1" values="-44.667,236.793;-44.667,236.793;-43.691,235.087;-43.691,235.087;-40.89,230.004;-40.89,230.004;-36.238,221.598;-36.238,221.598;-29.636,209.722;-29.636,209.722;-21.163,194.53;-21.163,194.53;-10.894,175.992;-10.894,175.992;-.555,157.373;-.555,157.373;7.863,142.356;7.863,142.356;14.463,130.392;14.463,130.392;19.093,122.037;19.093,122.037;21.932,117.004;21.932,117.004;22.925,115.156;22.925,115.156" calcMode="discrete"/><animateTransform attributeName="transform" additive="sum" type="rotate" repeatCount="indefinite" dur="2.267s" keyTimes="0;.67599;.676;.70599;.706;.71999;.72;.74999;.75;.76499;.765;.79399;.794;1" values="29,0,0;29,0,0;30,0,0;30,0,0;29,0,0;29,0,0;30,0,0;30,0,0;29,0,0;29,0,0;30,0,0;30,0,0;29,0,0;29,0,0" calcMode="discrete"/><animateTransform attributeName="transform" additive="sum" type="skewY" repeatCount="indefinite" dur="2.267s" keyTimes="0;.67599;.676;.69099;.691;.70599;.706;.71999;.72;.73499;.735;.74999;.75;.76499;.765;.77899;.779;.79399;.794;.80899;.809;.82299;.823;.83799;.838;1" values="149.217;149.217;150.473;150.473;154.249;154.249;160.548;160.548;169.357;169.357;180.688;180.688;194.539;194.539;208.387;208.387;219.717;219.717;228.531;228.531;234.825;234.825;238.602;238.602;239.861;239.861" calcMode="discrete"/><animateTransform attributeName="transform" additive="sum" type="scale" repeatCount="indefinite" dur="2.267s" keyTimes="0;.67599;.676;.69099;.691;.70599;.706;.71999;.72;.73499;.735;.74999;.75;.76499;.765;.77899;.779;.79399;.794;.80899;.809;.82299;.823;.83799;.838;1" values="1.164,1;1.164,1;1.175,1;1.175,1;1.21,1;1.21,1;1.267,1;1.267,1;1.348,1;1.348,1;1.451,1;1.451,1;1.578,1;1.578,1;1.704,1;1.704,1;1.808,1;1.808,1;1.888,1;1.888,1;1.946,1;1.946,1;1.98,1;1.98,1;1.992,1;1.992,1" calcMode="discrete"/><animateTransform attributeName="transform" additive="sum" type="scale" repeatCount="indefinite" dur="2.267s" keyTimes="0;.67599;.676;.69099;.691;.70599;.706;.71999;.72;.73499;.735;.74999;.75;.76399;.764;.77899;.779;.79399;.794;.80899;.809;.82399;.824;.83799;.838;1" values="-.859,1;-.859,1;-.87,1;-.87,1;-.901,1;-.901,1;-.943,1;-.943,1;-.983,1;-.983,1;-1,1;-1,1;-.968,1;-.968,1;-.88,1;-.88,1;-.769,1;-.769,1;-.662,1;-.662,1;-.576,1;-.576,1;-.521,1;-.521,1;-.502,1;-.502,1" calcMode="discrete"/><animateTransform attributeName="transform" additive="sum" type="translate" repeatCount="indefinite" dur="2.267s" keyTimes="0;.67599;.676;.69099;.691;.70599;.706;.71999;.72;.73499;.735;.74999;.75;.76499;.765;.77899;.779;.79399;.794;.80899;.809;.82299;.823;.83799;.838;1" values=".05,-.05;.05,-.05;.05,-.1;.05,-.1;.05,0;.05,0;.05,-.1;.05,-.1;.05,0;.05,0;.05,-.05;.05,-.05;.05,-.1;.05,-.1;.05,0;.05,0;.1,-.1;.1,-.1;.1,.05;.1,.05;.1,-.05;.1,-.05;.15,.05;.15,.05;.05,.05;.05,.05" calcMode="discrete"/></g><animate attributeName="display" repeatCount="indefinite" dur="2.267s" keyTimes="0;.662;1" values="none;inline;inline"/></g></g></mask><g display="none"><g id="Interpolaci.__C3.__B3n-114" transform="translate(35 173.35)"><path fill="#FFF" stroke="none" d="M12.15 -1.95Q11.35 -7 7.2 -10 3.1 -12.95 -1.95 -12.15 -6.95 -11.35 -9.95 -7.2 -12.95 -3.05 -12.15 1.95 -11.3 6.95 -7.2 9.95 -3.1 12.95 1.95 12.15 7 11.35 9.95 7.2 12.95 3.1 12.15 -1.95Z"/></g><animate attributeName="display" repeatCount="indefinite" dur="2.267s" keyTimes="0;.426;1" values="none;inline;inline"/></g><g display="none"><g id="Interpolaci.__C3.__B3n-113" transform="translate(35.05 173.4)"><path fill="#FFF" stroke="none" d="M12.15 -1.95Q11.35 -7 7.2 -10 3.1 -12.95 -1.95 -12.15 -6.95 -11.35 -9.95 -7.2 -12.95 -3.05 -12.15 1.95 -11.3 6.95 -7.2 9.95 -3.1 12.95 1.95 12.15 7 11.35 9.95 7.2 12.95 3.1 12.15 -1.95Z"/></g><animate attributeName="display" repeatCount="indefinite" dur="2.267s" keyTimes="0;.412;.426;1" values="none;inline;none;none"/></g><g display="none"><g id="Interpolaci.__C3.__B3n-112" transform="translate(35.05 173.35)"><path fill="#FFF" stroke="none" d="M12.15 -1.95Q11.35 -6.95 7.2 -9.95 3.1 -12.9 -1.95 -12.1 -6.9 -11.3 -9.9 -7.15 -12.9 -3 -12.1 1.95 -11.25 6.95 -7.15 9.95 -3.05 12.95 1.95 12.15 7 11.35 9.95 7.2 12.95 3.1 12.15 -1.95Z"/></g><animate attributeName="display" repeatCount="indefinite" dur="2.267s" keyTimes="0;.397;.412;1" values="none;inline;none;none"/></g><g display="none"><g id="Interpolaci.__C3.__B3n-111" transform="translate(35.05 173.4)"><path fill="#FFF" stroke="none" d="M12.05 -1.9Q11.25 -6.9 7.15 -9.85 3.1 -12.8 -1.9 -12 -6.85 -11.2 -9.8 -7.1 -12.8 -3 -12 1.95 -11.15 6.9 -7.1 9.85 -3.05 12.85 1.95 12.05 6.95 11.25 9.85 7.15 12.85 3.1 12.05 -1.9Z"/></g><animate attributeName="display" repeatCount="indefinite" dur="2.267s" keyTimes="0;.382;.397;1" values="none;inline;none;none"/></g><g display="none"><g id="Interpolaci.__C3.__B3n-110" transform="translate(35.05 173.4)"><path fill="#FFF" stroke="none" d="M11.9 -1.9Q11.1 -6.8 7.05 -9.75 3.05 -12.65 -1.9 -11.85 -6.75 -11.05 -9.7 -7 -12.65 -2.95 -11.85 1.95 -11 6.8 -7 9.75 -3 12.7 1.95 11.9 6.85 11.1 9.75 7.05 12.7 3.05 11.9 -1.9Z"/></g><animate attributeName="display" repeatCount="indefinite" dur="2.267s" keyTimes="0;.368;.382;1" values="none;inline;none;none"/></g><g display="none"><g id="Interpolaci.__C3.__B3n-109" transform="translate(35.05 173.4)"><path fill="#FFF" stroke="none" d="M11.65 -1.85Q10.9 -6.7 6.9 -9.6 3 -12.4 -1.85 -11.65 -6.65 -10.9 -9.55 -6.9 -12.4 -2.9 -11.65 1.85 -10.85 6.65 -6.9 9.55 -2.95 12.45 1.85 11.65 6.7 10.9 9.55 6.9 12.45 3 11.65 -1.85Z"/></g><animate attributeName="display" repeatCount="indefinite" dur="2.267s" keyTimes="0;.353;.368;1" values="none;inline;none;none"/></g><g display="none"><g id="Interpolaci.__C3.__B3n-108" transform="translate(35.05 173.4)"><path fill="#FFF" stroke="none" d="M11.4 -1.8Q10.65 -6.55 6.75 -9.35 2.95 -12.1 -1.8 -11.35 -6.5 -10.6 -9.3 -6.7 -12.1 -2.85 -11.35 1.85 -10.55 6.55 -6.7 9.35 -2.9 12.15 1.85 11.4 6.6 10.65 9.35 6.75 12.15 2.95 11.4 -1.8Z"/></g><animate attributeName="display" repeatCount="indefinite" dur="2.267s" keyTimes="0;.338;.353;1" values="none;inline;none;none"/></g><g display="none"><g id="Interpolaci.__C3.__B3n-107" transform="translate(35.05 173.4)"><path fill="#FFF" stroke="none" d="M11.05 -1.8Q10.3 -6.4 6.55 -9.1 2.8 -11.8 -1.8 -11.05 -6.35 -10.35 -9.05 -6.55 -11.8 -2.8 -11.05 1.75 -10.3 6.3 -6.55 9.05 -2.85 11.75 1.75 11.05 6.35 10.3 9.05 6.55 11.75 2.8 11.05 -1.8Z"/></g><animate attributeName="display" repeatCount="indefinite" dur="2.267s" keyTimes="0;.324;.338;1" values="none;inline;none;none"/></g><g display="none"><g id="Interpolaci.__C3.__B3n-106" transform="translate(35.05 173.45)"><path fill="#FFF" stroke="none" d="M10.65 -1.75Q9.95 -6.15 6.3 -8.8 2.7 -11.35 -1.75 -10.65 -6.1 -9.95 -8.75 -6.35 -11.35 -2.7 -10.65 1.7 -9.9 6.05 -6.35 8.7 -2.75 11.35 1.7 10.65 6.1 9.95 8.7 6.3 11.35 2.7 10.65 -1.75Z"/></g><animate attributeName="display" repeatCount="indefinite" dur="2.267s" keyTimes="0;.309;.324;1" values="none;inline;none;none"/></g><g display="none"><g id="Interpolaci.__C3.__B3n-105" transform="translate(35.05 173.4)"><path fill="#FFF" stroke="none" d="M10.2 -1.6Q9.55 -5.85 6.05 -8.35 2.6 -10.85 -1.6 -10.15 -5.8 -9.5 -8.35 -6 -10.85 -2.55 -10.15 1.65 -9.45 5.85 -6 8.35 -2.6 10.85 1.65 10.2 5.9 9.55 8.35 6.05 10.85 2.6 10.2 -1.6Z"/></g><animate attributeName="display" repeatCount="indefinite" dur="2.267s" keyTimes="0;.294;.309;1" values="none;inline;none;none"/></g><g display="none"><g id="Interpolaci.__C3.__B3n-104" transform="translate(35.05 173.4)"><path fill="#FFF" stroke="none" d="M9.65 -1.55Q9 -5.6 5.7 -7.95 2.45 -10.3 -1.55 -9.7 -5.55 -9.05 -7.95 -5.75 -10.3 -2.45 -9.7 1.55 -9 5.5 -5.75 7.9 -2.5 10.3 1.55 9.65 5.55 9 7.9 5.7 10.3 2.45 9.65 -1.55Z"/></g><animate attributeName="display" repeatCount="indefinite" dur="2.267s" keyTimes="0;.279;.294;1" values="none;inline;none;none"/></g><g display="none"><g id="Interpolaci.__C3.__B3n-103" transform="translate(35.05 173.4)"><path fill="#FFF" stroke="none" d="M9.1 -1.45Q8.5 -5.25 5.4 -7.5 2.3 -9.7 -1.45 -9.1 -5.2 -8.5 -7.45 -5.4 -9.7 -2.3 -9.1 1.45 -8.45 5.2 -5.4 7.45 -2.3 9.7 1.45 9.1 5.25 8.5 7.45 5.4 9.7 2.3 9.1 -1.45Z"/></g><animate attributeName="display" repeatCount="indefinite" dur="2.267s" keyTimes="0;.265;.279;1" values="none;inline;none;none"/></g><g display="none"><g id="Interpolaci.__C3.__B3n-102" transform="translate(35.05 173.4)"><path fill="#FFF" stroke="none" d="M8.45 -1.35Q7.9 -4.85 5 -6.95 2.15 -9 -1.35 -8.45 -4.85 -7.9 -6.9 -5 -9 -2.1 -8.45 1.35 -7.85 4.8 -5 6.9 -2.15 9 1.35 8.45 4.85 7.9 6.9 5 9 2.15 8.45 -1.35Z"/></g><animate attributeName="display" repeatCount="indefinite" dur="2.267s" keyTimes="0;.25;.265;1" values="none;inline;none;none"/></g><g display="none"><g id="Interpolaci.__C3.__B3n-101" transform="translate(35.05 173.35)"><path fill="#FFF" stroke="none" d="M7.75 -1.2Q7.25 -4.45 4.6 -6.35 2 -8.2 -1.2 -7.7 -4.4 -7.2 -6.3 -4.55 -8.2 -1.9 -7.7 1.25 -7.15 4.45 -4.55 6.35 -1.95 8.3 1.25 7.75 4.5 7.25 6.35 4.6 8.3 2 7.75 -1.2Z"/></g><animate attributeName="display" repeatCount="indefinite" dur="2.267s" keyTimes="0;.235;.25;1" values="none;inline;none;none"/></g><g display="none"><g id="Interpolaci.__C3.__B3n-100" transform="translate(35.05 173.4)"><path fill="#FFF" stroke="none" d="M7 -1.1Q6.5 -4 4.15 -5.75 1.8 -7.4 -1.1 -6.95 -4 -6.5 -5.7 -4.1 -7.4 -1.75 -6.95 1.1 -6.5 4 -4.1 5.7 -1.75 7.45 1.1 7 4 6.5 5.7 4.15 7.45 1.8 7 -1.1Z"/></g><animate attributeName="display" repeatCount="indefinite" dur="2.267s" keyTimes="0;.221;.235;1" values="none;inline;none;none"/></g><g display="none"><g id="Interpolaci.__C3.__B3n-99" transform="translate(35.05 173.35)"><path fill="#FFF" stroke="none" d="M6.15 -.95Q5.75 -3.5 3.65 -5.05 1.6 -6.55 -.95 -6.1 -3.5 -5.7 -5 -3.6 -6.55 -1.5 -6.1 1 -5.7 3.55 -3.6 5.05 -1.55 6.55 1 6.15 3.55 5.75 5.05 3.65 6.55 1.6 6.15 -.95Z"/></g><animate attributeName="display" repeatCount="indefinite" dur="2.267s" keyTimes="0;.206;.221;1" values="none;inline;none;none"/></g><g display="none"><g id="Interpolaci.__C3.__B3n-98" transform="translate(35.05 173.4)"><path fill="#FFF" stroke="none" d="M5.25 -.8Q4.95 -3 3.15 -4.3 1.35 -5.6 -.8 -5.25 -3 -4.9 -4.3 -3.1 -5.6 -1.3 -5.25 .85 -4.85 3 -3.1 4.3 -1.3 5.6 .85 5.25 3.05 4.95 4.3 3.15 5.6 1.35 5.25 -.8Z"/></g><animate attributeName="display" repeatCount="indefinite" dur="2.267s" keyTimes="0;.191;.206;1" values="none;inline;none;none"/></g><g display="none"><g id="Interpolaci.__C3.__B3n-97" transform="translate(35.05 173.4)"><path fill="#FFF" stroke="none" d="M4.3 -.7Q4.05 -2.45 2.55 -3.55 1.1 -4.6 -.7 -4.3 -2.45 -4 -3.5 -2.55 -4.6 -1.05 -4.3 .7 -4 2.45 -2.55 3.55 -1.1 4.6 .7 4.3 2.5 4.05 3.55 2.55 4.6 1.1 4.3 -.7Z"/></g><animate attributeName="display" repeatCount="indefinite" dur="2.267s" keyTimes="0;.176;.191;1" values="none;inline;none;none"/></g><g display="none"><g id="Interpolaci.__C3.__B3n-96" transform="translate(35.05 173.4)"><path fill="#FFF" stroke="none" d="M3.3 -.55Q3.05 -1.9 1.95 -2.75 .8 -3.55 -.55 -3.3 -1.9 -3.1 -2.7 -1.95 -3.55 -.85 -3.3 .5 -3.1 1.85 -1.95 2.7 -.85 3.5 .5 3.3 1.9 3.05 2.7 1.95 3.5 .8 3.3 -.55Z"/></g><animate attributeName="display" repeatCount="indefinite" dur="2.267s" keyTimes="0;.162;.176;1" values="none;inline;none;none"/></g><g display="none"><g id="Interpolaci.__C3.__B3n-95" transform="translate(35.05 173.4)"><path fill="#FFF" stroke="none" d="M2.2 -.35Q2.05 -1.3 1.3 -1.85 .55 -2.35 -.35 -2.2 -1.25 -2.1 -1.8 -1.3 -2.35 -.55 -2.2 .35 -2.05 1.25 -1.3 1.8 -.55 2.35 .35 2.2 1.3 2.05 1.8 1.3 2.35 .55 2.2 -.35Z"/></g><animate attributeName="display" repeatCount="indefinite" dur="2.267s" keyTimes="0;.147;.162;1" values="none;inline;none;none"/></g><g display="none"><g id="Interpolaci.__C3.__B3n-94" transform="translate(35.05 173.4)"><path fill="#FFF" stroke="none" d="M1.1 -.15Q1 -.65 .65 -.9 .3 -1.15 -.15 -1.1 -.6 -1 -.9 -.65 -1.15 -.25 -1.1 .15 -1 .6 -.65 .9 -.3 1.15 .15 1.1 .65 1 .9 .65 1.15 .3 1.1 -.15Z"/></g><animate attributeName="display" repeatCount="indefinite" dur="2.267s" keyTimes="0;.132;.147;1" values="none;inline;none;none"/></g><g display="none"><g id="Interpolaci.__C3.__B3n-93" transform="translate(222.55 173.35)"><path fill="#FFF" stroke="none" d="M12.15 -1.95Q11.35 -7 7.2 -10 3.1 -12.95 -1.95 -12.15 -6.95 -11.35 -9.95 -7.2 -12.95 -3.1 -12.15 1.95 -11.3 6.95 -7.2 9.95 -3.1 12.95 1.95 12.15 7 11.35 10 7.2 13 3.1 12.15 -1.95Z"/></g><animate attributeName="display" repeatCount="indefinite" dur="2.267s" keyTimes="0;.559;1" values="none;inline;inline"/></g><g display="none"><g id="Interpolaci.__C3.__B3n-92" transform="translate(222.5 173.4)"><path fill="#FFF" stroke="none" d="M12.15 -1.95Q11.35 -7 7.2 -10 3.1 -12.95 -1.95 -12.15 -6.95 -11.35 -9.95 -7.2 -12.95 -3.1 -12.15 1.95 -11.3 6.95 -7.2 9.95 -3.1 12.95 1.95 12.15 7 11.35 10 7.2 13 3.1 12.15 -1.95Z"/></g><animate attributeName="display" repeatCount="indefinite" dur="2.267s" keyTimes="0;.544;.559;1" values="none;inline;none;none"/></g><g display="none"><g id="Interpolaci.__C3.__B3n-91" transform="translate(222.55 173.35)"><path fill="#FFF" stroke="none" d="M12.1 -1.95Q11.3 -6.95 7.15 -9.95 3.05 -12.9 -2 -12.1 -6.95 -11.3 -9.95 -7.15 -12.95 -3.05 -12.15 1.95 -11.3 6.95 -7.2 9.95 -3.1 12.95 1.9 12.15 6.95 11.35 9.95 7.2 12.95 3.1 12.1 -1.95Z"/></g><animate attributeName="display" repeatCount="indefinite" dur="2.267s" keyTimes="0;.529;.544;1" values="none;inline;none;none"/></g><g display="none"><g id="Interpolaci.__C3.__B3n-90" transform="translate(222.55 173.4)"><path fill="#FFF" stroke="none" d="M12 -1.9Q11.2 -6.9 7.1 -9.85 3.05 -12.8 -1.95 -12 -6.9 -11.2 -9.85 -7.1 -12.85 -3.05 -12.05 1.95 -11.2 6.9 -7.15 9.85 -3.1 12.85 1.9 12.05 6.9 11.25 9.85 7.15 12.85 3.1 12 -1.9Z"/></g><animate attributeName="display" repeatCount="indefinite" dur="2.267s" keyTimes="0;.515;.529;1" values="none;inline;none;none"/></g><g display="none"><g id="Interpolaci.__C3.__B3n-89" transform="translate(222.5 173.4)"><path fill="#FFF" stroke="none" d="M11.9 -1.9Q11.1 -6.8 7.05 -9.75 3.05 -12.65 -1.9 -11.85 -6.75 -11.05 -9.7 -7 -12.65 -3 -11.85 1.95 -11 6.8 -7 9.75 -3 12.7 1.95 11.9 6.85 11.1 9.8 7.05 12.7 3.05 11.9 -1.9Z"/></g><animate attributeName="display" repeatCount="indefinite" dur="2.267s" keyTimes="0;.5;.515;1" values="none;inline;none;none"/></g><g display="none"><g id="Interpolaci.__C3.__B3n-88" transform="translate(222.5 173.4)"><path fill="#FFF" stroke="none" d="M11.65 -1.85Q10.9 -6.7 6.9 -9.6 3 -12.4 -1.85 -11.65 -6.65 -10.9 -9.55 -6.9 -12.4 -2.95 -11.65 1.85 -10.85 6.65 -6.9 9.55 -2.95 12.45 1.85 11.65 6.7 10.9 9.6 6.9 12.5 3 11.65 -1.85Z"/></g><animate attributeName="display" repeatCount="indefinite" dur="2.267s" keyTimes="0;.485;.5;1" values="none;inline;none;none"/></g><g display="none"><g id="Interpolaci.__C3.__B3n-87" transform="translate(222.55 173.4)"><path fill="#FFF" stroke="none" d="M11.35 -1.8Q10.6 -6.55 6.7 -9.35 2.9 -12.1 -1.85 -11.35 -6.55 -10.6 -9.35 -6.7 -12.15 -2.9 -11.4 1.85 -10.6 6.55 -6.75 9.35 -2.95 12.15 1.8 11.4 6.55 10.65 9.35 6.75 12.15 2.95 11.35 -1.8Z"/></g><animate attributeName="display" repeatCount="indefinite" dur="2.267s" keyTimes="0;.471;.485;1" values="none;inline;none;none"/></g><g display="none"><g id="Interpolaci.__C3.__B3n-86" transform="translate(222.55 173.4)"><path fill="#FFF" stroke="none" d="M11.05 -1.8Q10.3 -6.4 6.55 -9.1 2.8 -11.8 -1.8 -11.05 -6.35 -10.35 -9.05 -6.55 -11.8 -2.85 -11.05 1.75 -10.3 6.3 -6.55 9.05 -2.85 11.75 1.75 11.05 6.35 10.3 9.05 6.55 11.8 2.8 11.05 -1.8Z"/></g><animate attributeName="display" repeatCount="indefinite" dur="2.267s" keyTimes="0;.456;.471;1" values="none;inline;none;none"/></g><g display="none"><g id="Interpolaci.__C3.__B3n-85" transform="translate(222.6 173.45)"><path fill="#FFF" stroke="none" d="M10.65 -1.75Q9.95 -6.15 6.3 -8.8 2.7 -11.35 -1.75 -10.65 -6.1 -9.95 -8.75 -6.35 -11.35 -2.75 -10.65 1.7 -9.9 6.05 -6.35 8.7 -2.75 11.35 1.7 10.65 6.1 9.95 8.75 6.3 11.35 2.7 10.65 -1.75Z"/></g><animate attributeName="display" repeatCount="indefinite" dur="2.267s" keyTimes="0;.441;.456;1" values="none;inline;none;none"/></g><g display="none"><g id="Interpolaci.__C3.__B3n-84" transform="translate(222.55 173.4)"><path fill="#FFF" stroke="none" d="M10.2 -1.6Q9.55 -5.85 6.05 -8.35 2.6 -10.85 -1.6 -10.15 -5.8 -9.5 -8.35 -6 -10.85 -2.6 -10.15 1.65 -9.45 5.85 -6 8.35 -2.6 10.85 1.65 10.2 5.9 9.55 8.4 6.05 10.9 2.6 10.2 -1.6Z"/></g><animate attributeName="display" repeatCount="indefinite" dur="2.267s" keyTimes="0;.426;.441;1" values="none;inline;none;none"/></g><g display="none"><g id="Interpolaci.__C3.__B3n-83" transform="translate(222.6 173.4)"><path fill="#FFF" stroke="none" d="M9.65 -1.55Q9 -5.6 5.7 -7.95 2.45 -10.3 -1.55 -9.7 -5.55 -9.05 -7.95 -5.75 -10.3 -2.5 -9.7 1.55 -9 5.5 -5.75 7.9 -2.5 10.3 1.55 9.65 5.55 9 7.95 5.7 10.35 2.45 9.65 -1.55Z"/></g><animate attributeName="display" repeatCount="indefinite" dur="2.267s" keyTimes="0;.412;.426;1" values="none;inline;none;none"/></g><g display="none"><g id="Interpolaci.__C3.__B3n-82" transform="translate(222.55 173.4)"><path fill="#FFF" stroke="none" d="M9.1 -1.45Q8.5 -5.25 5.4 -7.5 2.3 -9.7 -1.45 -9.1 -5.2 -8.5 -7.45 -5.4 -9.7 -2.3 -9.1 1.45 -8.45 5.2 -5.4 7.45 -2.3 9.7 1.45 9.1 5.25 8.5 7.45 5.4 9.7 2.3 9.1 -1.45Z"/></g><animate attributeName="display" repeatCount="indefinite" dur="2.267s" keyTimes="0;.397;.412;1" values="none;inline;none;none"/></g><g display="none"><g id="Interpolaci.__C3.__B3n-81" transform="translate(222.55 173.4)"><path fill="#FFF" stroke="none" d="M8.45 -1.35Q7.9 -4.85 5 -6.95 2.15 -9 -1.35 -8.45 -4.85 -7.9 -6.9 -5 -9 -2.15 -8.45 1.35 -7.85 4.8 -5 6.9 -2.15 9 1.35 8.45 4.85 7.9 6.95 5 9.05 2.15 8.45 -1.35Z"/></g><animate attributeName="display" repeatCount="indefinite" dur="2.267s" keyTimes="0;.382;.397;1" values="none;inline;none;none"/></g><g display="none"><g id="Interpolaci.__C3.__B3n-80" transform="translate(222.5 173.35)"><path fill="#FFF" stroke="none" d="M7.75 -1.2Q7.25 -4.45 4.6 -6.35 2 -8.2 -1.2 -7.7 -4.4 -7.2 -6.3 -4.55 -8.2 -1.95 -7.7 1.25 -7.15 4.45 -4.55 6.35 -1.95 8.3 1.25 7.75 4.5 7.25 6.4 4.6 8.3 2 7.75 -1.2Z"/></g><animate attributeName="display" repeatCount="indefinite" dur="2.267s" keyTimes="0;.368;.382;1" values="none;inline;none;none"/></g><g display="none"><g id="Interpolaci.__C3.__B3n-79" transform="translate(222.5 173.4)"><path fill="#FFF" stroke="none" d="M7 -1.1Q6.5 -4 4.15 -5.75 1.8 -7.4 -1.1 -6.95 -4 -6.5 -5.7 -4.1 -7.4 -1.75 -6.95 1.1 -6.5 4 -4.1 5.7 -1.75 7.45 1.1 7 4 6.5 5.75 4.15 7.45 1.8 7 -1.1Z"/></g><animate attributeName="display" repeatCount="indefinite" dur="2.267s" keyTimes="0;.353;.368;1" values="none;inline;none;none"/></g><g display="none"><g id="Interpolaci.__C3.__B3n-78" transform="translate(222.55 173.35)"><path fill="#FFF" stroke="none" d="M6.15 -.95Q5.75 -3.5 3.65 -5.05 1.6 -6.55 -.95 -6.1 -3.5 -5.7 -5 -3.6 -6.55 -1.55 -6.1 1 -5.7 3.55 -3.6 5.05 -1.55 6.55 1 6.15 3.55 5.75 5.05 3.65 6.6 1.6 6.15 -.95Z"/></g><animate attributeName="display" repeatCount="indefinite" dur="2.267s" keyTimes="0;.338;.353;1" values="none;inline;none;none"/></g><g display="none"><g id="Interpolaci.__C3.__B3n-77" transform="translate(222.5 173.4)"><path fill="#FFF" stroke="none" d="M5.25 -.8Q4.95 -3 3.15 -4.3 1.35 -5.6 -.8 -5.25 -3 -4.9 -4.3 -3.1 -5.6 -1.3 -5.25 .85 -4.85 3 -3.1 4.3 -1.3 5.6 .85 5.25 3.05 4.95 4.35 3.15 5.65 1.35 5.25 -.8Z"/></g><animate attributeName="display" repeatCount="indefinite" dur="2.267s" keyTimes="0;.324;.338;1" values="none;inline;none;none"/></g><g display="none"><g id="Interpolaci.__C3.__B3n-76" transform="translate(222.55 173.4)"><path fill="#FFF" stroke="none" d="M4.3 -.7Q4.05 -2.45 2.55 -3.55 1.1 -4.6 -.7 -4.3 -2.45 -4 -3.5 -2.55 -4.6 -1.1 -4.3 .7 -4 2.45 -2.55 3.55 -1.1 4.6 .7 4.3 2.5 4.05 3.55 2.55 4.6 1.1 4.3 -.7Z"/></g><animate attributeName="display" repeatCount="indefinite" dur="2.267s" keyTimes="0;.309;.324;1" values="none;inline;none;none"/></g><g display="none"><g id="Interpolaci.__C3.__B3n-75" transform="translate(222.55 173.4)"><path fill="#FFF" stroke="none" d="M3.3 -.55Q3.05 -1.9 1.95 -2.75 .8 -3.55 -.55 -3.3 -1.9 -3.1 -2.7 -1.95 -3.55 -.85 -3.3 .5 -3.1 1.85 -1.95 2.7 -.85 3.5 .5 3.3 1.9 3.05 2.7 1.95 3.5 .8 3.3 -.55Z"/></g><animate attributeName="display" repeatCount="indefinite" dur="2.267s" keyTimes="0;.294;.309;1" values="none;inline;none;none"/></g><g display="none"><g id="Interpolaci.__C3.__B3n-74" transform="translate(222.55 173.4)"><path fill="#FFF" stroke="none" d="M2.2 -.35Q2.05 -1.3 1.3 -1.85 .55 -2.35 -.35 -2.2 -1.25 -2.1 -1.8 -1.3 -2.35 -.55 -2.2 .35 -2.05 1.25 -1.3 1.8 -.55 2.35 .35 2.2 1.3 2.05 1.8 1.3 2.35 .55 2.2 -.35Z"/></g><animate attributeName="display" repeatCount="indefinite" dur="2.267s" keyTimes="0;.279;.294;1" values="none;inline;none;none"/></g><g display="none"><g id="Interpolaci.__C3.__B3n-73" transform="translate(222.55 173.4)"><path fill="#FFF" stroke="none" d="M1.1 -.15Q1 -.65 .65 -.9 .3 -1.15 -.15 -1.1 -.6 -1 -.9 -.65 -1.15 -.3 -1.1 .15 -1 .6 -.65 .9 -.3 1.15 .15 1.1 .65 1 .9 .65 1.15 .3 1.1 -.15Z"/></g><animate attributeName="display" repeatCount="indefinite" dur="2.267s" keyTimes="0;.265;.279;1" values="none;inline;none;none"/></g><g display="none"><g id="Interpolaci.__C3.__B3n-72" transform="translate(135 15.6)"><path fill="#FFF" stroke="none" d="M12.15 -1.95Q11.35 -6.95 7.2 -9.95 3.1 -12.95 -1.95 -12.15 -7 -11.3 -10 -7.2 -12.95 -3.05 -12.15 2 -11.35 7 -7.2 10 -3.1 13 1.95 12.15 6.95 11.35 9.95 7.2 12.95 3.1 12.15 -1.95Z"/></g><animate attributeName="display" repeatCount="indefinite" dur="2.267s" keyTimes="0;.691;1" values="none;inline;inline"/></g><g display="none"><g id="Interpolaci.__C3.__B3n-71" transform="translate(134.95 15.55)"><path fill="#FFF" stroke="none" d="M12.15 -1.95Q11.35 -6.95 7.2 -9.95 3.1 -12.95 -1.95 -12.15 -7 -11.3 -10 -7.2 -12.95 -3.05 -12.15 2 -11.35 7 -7.2 10 -3.1 13 1.95 12.15 6.95 11.35 9.95 7.2 12.95 3.1 12.15 -1.95Z"/></g><animate attributeName="display" repeatCount="indefinite" dur="2.267s" keyTimes="0;.676;.691;1" values="none;inline;none;none"/></g><g display="none"><g id="Interpolaci.__C3.__B3n-70" transform="translate(134.95 15.6)"><path fill="#FFF" stroke="none" d="M12.15 -2Q11.35 -6.95 7.2 -9.95 3.1 -12.95 -1.95 -12.15 -6.95 -11.3 -9.95 -7.2 -12.9 -3.05 -12.1 1.95 -11.3 6.95 -7.15 9.95 -3.05 12.95 1.95 12.1 6.95 11.3 9.95 7.15 12.95 3.05 12.15 -2Z"/></g><animate attributeName="display" repeatCount="indefinite" dur="2.267s" keyTimes="0;.662;.676;1" values="none;inline;none;none"/></g><g display="none"><g id="Interpolaci.__C3.__B3n-69" transform="translate(134.95 15.6)"><path fill="#FFF" stroke="none" d="M12.05 -1.95Q11.25 -6.9 7.15 -9.85 3.1 -12.85 -1.9 -12.05 -6.9 -11.2 -9.85 -7.15 -12.8 -3.05 -12 1.95 -11.2 6.9 -7.1 9.85 -3.05 12.85 1.95 12 6.9 11.2 9.85 7.1 12.85 3.05 12.05 -1.95Z"/></g><animate attributeName="display" repeatCount="indefinite" dur="2.267s" keyTimes="0;.647;.662;1" values="none;inline;none;none"/></g><g display="none"><g id="Interpolaci.__C3.__B3n-68" transform="translate(134.95 15.6)"><path fill="#FFF" stroke="none" d="M11.9 -1.9Q11.1 -6.75 7.05 -9.7 3.05 -12.65 -1.9 -11.85 -6.8 -11 -9.75 -7 -12.65 -2.95 -11.85 1.95 -11.05 6.85 -7 9.8 -3 12.7 1.95 11.9 6.8 11.1 9.75 7.05 12.7 3.05 11.9 -1.9Z"/></g><animate attributeName="display" repeatCount="indefinite" dur="2.267s" keyTimes="0;.632;.647;1" values="none;inline;none;none"/></g><g display="none"><g id="Interpolaci.__C3.__B3n-67" transform="translate(134.95 15.55)"><path fill="#FFF" stroke="none" d="M11.65 -1.85Q10.9 -6.65 6.9 -9.55 3 -12.4 -1.85 -11.65 -6.7 -10.85 -9.6 -6.9 -12.4 -2.9 -11.65 1.9 -10.9 6.7 -6.9 9.6 -2.95 12.5 1.85 11.65 6.65 10.9 9.55 6.9 12.45 3 11.65 -1.85Z"/></g><animate attributeName="display" repeatCount="indefinite" dur="2.267s" keyTimes="0;.618;.632;1" values="none;inline;none;none"/></g><g display="none"><g id="Interpolaci.__C3.__B3n-66" transform="translate(134.95 15.65)"><path fill="#FFF" stroke="none" d="M11.4 -1.85Q10.65 -6.55 6.75 -9.35 2.95 -12.15 -1.8 -11.4 -6.55 -10.6 -9.35 -6.75 -12.1 -2.9 -11.35 1.85 -10.6 6.55 -6.7 9.35 -2.9 12.15 1.85 11.35 6.55 10.6 9.35 6.7 12.15 2.9 11.4 -1.85Z"/></g><animate attributeName="display" repeatCount="indefinite" dur="2.267s" keyTimes="0;.603;.618;1" values="none;inline;none;none"/></g><g display="none"><g id="Interpolaci.__C3.__B3n-65" transform="translate(134.95 15.6)"><path fill="#FFF" stroke="none" d="M11.05 -1.8Q10.3 -6.35 6.55 -9.05 2.8 -11.8 -1.8 -11.05 -6.4 -10.3 -9.1 -6.55 -11.8 -2.8 -11.05 1.8 -10.35 6.35 -6.55 9.05 -2.85 11.8 1.75 11.05 6.3 10.3 9.05 6.55 11.75 2.8 11.05 -1.8Z"/></g><animate attributeName="display" repeatCount="indefinite" dur="2.267s" keyTimes="0;.588;.603;1" values="none;inline;none;none"/></g><g display="none"><g id="Interpolaci.__C3.__B3n-64" transform="translate(135 15.6)"><path fill="#FFF" stroke="none" d="M10.65 -1.75Q9.95 -6.1 6.3 -8.75 2.7 -11.35 -1.75 -10.65 -6.15 -9.9 -8.8 -6.35 -11.35 -2.7 -10.65 1.75 -9.95 6.1 -6.35 8.75 -2.75 11.35 1.7 10.65 6.05 9.95 8.7 6.3 11.35 2.7 10.65 -1.75Z"/></g><animate attributeName="display" repeatCount="indefinite" dur="2.267s" keyTimes="0;.574;.588;1" values="none;inline;none;none"/></g><g display="none"><g id="Interpolaci.__C3.__B3n-63" transform="translate(134.95 15.6)"><path fill="#FFF" stroke="none" d="M10.2 -1.6Q9.55 -5.8 6.05 -8.35 2.6 -10.85 -1.6 -10.15 -5.85 -9.45 -8.35 -6 -10.85 -2.55 -10.15 1.7 -9.5 5.9 -6 8.4 -2.6 10.9 1.65 10.2 5.85 9.55 8.35 6.05 10.85 2.6 10.2 -1.6Z"/></g><animate attributeName="display" repeatCount="indefinite" dur="2.267s" keyTimes="0;.559;.574;1" values="none;inline;none;none"/></g><g display="none"><g id="Interpolaci.__C3.__B3n-62" transform="translate(135 15.65)"><path fill="#FFF" stroke="none" d="M9.65 -1.55Q9 -5.55 5.7 -7.95 2.45 -10.3 -1.55 -9.7 -5.6 -9 -7.95 -5.75 -10.3 -2.45 -9.7 1.6 -9.05 5.55 -5.75 7.95 -2.5 10.35 1.55 9.65 5.5 9 7.9 5.7 10.3 2.45 9.65 -1.55Z"/></g><animate attributeName="display" repeatCount="indefinite" dur="2.267s" keyTimes="0;.544;.559;1" values="none;inline;none;none"/></g><g display="none"><g id="Interpolaci.__C3.__B3n-61" transform="translate(134.95 15.6)"><path fill="#FFF" stroke="none" d="M9.1 -1.45Q8.5 -5.2 5.4 -7.45 2.3 -9.7 -1.45 -9.1 -5.25 -8.45 -7.5 -5.4 -9.7 -2.3 -9.1 1.5 -8.5 5.25 -5.4 7.45 -2.3 9.7 1.45 9.1 5.2 8.5 7.45 5.4 9.7 2.3 9.1 -1.45Z"/></g><animate attributeName="display" repeatCount="indefinite" dur="2.267s" keyTimes="0;.529;.544;1" values="none;inline;none;none"/></g><g display="none"><g id="Interpolaci.__C3.__B3n-60" transform="translate(135 15.55)"><path fill="#FFF" stroke="none" d="M8.45 -1.35Q7.9 -4.85 5 -6.9 2.15 -9 -1.35 -8.45 -4.85 -7.85 -6.95 -5 -9 -2.1 -8.45 1.4 -7.9 4.85 -5 6.95 -2.15 9.05 1.35 8.45 4.8 7.9 6.9 5 9 2.15 8.45 -1.35Z"/></g><animate attributeName="display" repeatCount="indefinite" dur="2.267s" keyTimes="0;.515;.529;1" values="none;inline;none;none"/></g><g display="none"><g id="Interpolaci.__C3.__B3n-59" transform="translate(134.95 15.55)"><path fill="#FFF" stroke="none" d="M7.75 -1.2Q7.25 -4.4 4.6 -6.3 2 -8.2 -1.2 -7.7 -4.45 -7.15 -6.35 -4.55 -8.2 -1.9 -7.7 1.3 -7.2 4.5 -4.55 6.4 -1.95 8.3 1.25 7.75 4.45 7.25 6.35 4.6 8.3 2 7.75 -1.2Z"/></g><animate attributeName="display" repeatCount="indefinite" dur="2.267s" keyTimes="0;.5;.515;1" values="none;inline;none;none"/></g><g display="none"><g id="Interpolaci.__C3.__B3n-58" transform="translate(135 15.6)"><path fill="#FFF" stroke="none" d="M7 -1.1Q6.5 -4 4.15 -5.7 1.8 -7.4 -1.1 -6.95 -4 -6.5 -5.75 -4.1 -7.4 -1.75 -6.95 1.15 -6.5 4 -4.1 5.75 -1.75 7.45 1.1 7 4 6.5 5.7 4.15 7.45 1.8 7 -1.1Z"/></g><animate attributeName="display" repeatCount="indefinite" dur="2.267s" keyTimes="0;.485;.5;1" values="none;inline;none;none"/></g><g display="none"><g id="Interpolaci.__C3.__B3n-57" transform="translate(134.95 15.55)"><path fill="#FFF" stroke="none" d="M6.15 -.95Q5.75 -3.5 3.65 -5 1.6 -6.55 -.95 -6.1 -3.5 -5.7 -5.05 -3.6 -6.55 -1.5 -6.1 1.05 -5.7 3.55 -3.6 5.05 -1.55 6.6 1 6.15 3.55 5.75 5.05 3.65 6.55 1.6 6.15 -.95Z"/></g><animate attributeName="display" repeatCount="indefinite" dur="2.267s" keyTimes="0;.471;.485;1" values="none;inline;none;none"/></g><g display="none"><g id="Interpolaci.__C3.__B3n-56" transform="translate(134.95 15.6)"><path fill="#FFF" stroke="none" d="M5.25 -.8Q4.95 -3 3.15 -4.3 1.35 -5.6 -.8 -5.25 -3 -4.85 -4.3 -3.1 -5.6 -1.3 -5.25 .9 -4.9 3.05 -3.1 4.35 -1.3 5.65 .85 5.25 3 4.95 4.3 3.15 5.6 1.35 5.25 -.8Z"/></g><animate attributeName="display" repeatCount="indefinite" dur="2.267s" keyTimes="0;.456;.471;1" values="none;inline;none;none"/></g><g display="none"><g id="Interpolaci.__C3.__B3n-55" transform="translate(135 15.55)"><path fill="#FFF" stroke="none" d="M4.3 -.7Q4.05 -2.45 2.55 -3.5 1.1 -4.6 -.7 -4.3 -2.45 -4 -3.55 -2.55 -4.6 -1.05 -4.3 .7 -4 2.5 -2.55 3.55 -1.1 4.6 .7 4.3 2.45 4.05 3.55 2.55 4.6 1.1 4.3 -.7Z"/></g><animate attributeName="display" repeatCount="indefinite" dur="2.267s" keyTimes="0;.441;.456;1" values="none;inline;none;none"/></g><g display="none"><g id="Interpolaci.__C3.__B3n-54" transform="translate(135 15.6)"><path fill="#FFF" stroke="none" d="M3.3 -.55Q3.05 -1.9 1.95 -2.7 .8 -3.55 -.55 -3.3 -1.9 -3.1 -2.75 -1.95 -3.55 -.85 -3.3 .55 -3.1 1.9 -1.95 2.7 -.85 3.5 .5 3.3 1.85 3.05 2.7 1.95 3.5 .8 3.3 -.55Z"/></g><animate attributeName="display" repeatCount="indefinite" dur="2.267s" keyTimes="0;.426;.441;1" values="none;inline;none;none"/></g><g display="none"><g id="Interpolaci.__C3.__B3n-53" transform="translate(135 15.6)"><path fill="#FFF" stroke="none" d="M2.2 -.35Q2.05 -1.25 1.3 -1.8 .55 -2.35 -.35 -2.2 -1.3 -2.05 -1.85 -1.3 -2.35 -.55 -2.2 .35 -2.1 1.3 -1.3 1.8 -.55 2.35 .35 2.2 1.25 2.05 1.8 1.3 2.35 .55 2.2 -.35Z"/></g><animate attributeName="display" repeatCount="indefinite" dur="2.267s" keyTimes="0;.412;.426;1" values="none;inline;none;none"/></g><g display="none"><g id="Interpolaci.__C3.__B3n-52" transform="translate(135 15.6)"><path fill="#FFF" stroke="none" d="M1.1 -.15Q1 -.6 .65 -.9 .3 -1.15 -.15 -1.1 -.65 -1 -.9 -.65 -1.15 -.25 -1.1 .2 -1 .65 -.65 .9 -.3 1.15 .15 1.1 .6 1 .9 .65 1.15 .3 1.1 -.15Z"/></g><animate attributeName="display" repeatCount="indefinite" dur="2.267s" keyTimes="0;.397;.412;1" values="none;inline;none;none"/></g></g></svg>