<?xml version="1.0" encoding="UTF-8"?>
<svg width="16px" height="16px" viewBox="0 0 16 16" version="1.1" xmlns="http://www.w3.org/2000/svg" xmlns:xlink="http://www.w3.org/1999/xlink">
    <title>telegram</title>
    <g id="01-HOME" stroke="none" stroke-width="1" fill="none" fill-rule="evenodd">
        <g id="AETERNUM" transform="translate(-1171.000000, -7805.000000)" fill="#4E82E7" fill-rule="nonzero">
            <g id="telegram" transform="translate(1171.000000, 7805.000000)">
                <path d="M8,0 C12.42,0 16,3.58 16,8 C16,12.42 12.42,16 8,16 C3.58,16 0,12.42 0,8 C0,3.58 3.58,0 8,0 Z M11.9538252,5.37602963 C12.0212741,4.90977778 11.7031111,4.71066667 11.3733333,4.86 L11.3733333,4.86 L3.66666667,7.83333333 L3.56841086,7.87699358 C3.14275556,8.08503704 3.17511111,8.34844444 3.57333333,8.46666667 L3.57333333,8.46666667 L5.55333333,9.08666667 L10.1333333,6.2 L10.1909241,6.16866016 C10.3800551,6.08060606 10.5321212,6.15333333 10.3866667,6.28666667 L10.3866667,6.28666667 L6.66666667,9.62666667 L6.69576003,9.64816841 L6.53333333,11.6 L6.53333333,11.6666667 L6.62453704,11.6592593 C6.76296296,11.6351852 6.83888889,11.5555556 6.93333333,11.4666667 C7.00478723,11.397961 7.42517825,10.9893815 7.89467621,10.532819 L7.89467621,10.532819 L9.89333333,12.0066667 L9.98287423,12.0503935 C10.3032407,12.1876389 10.5344444,12.07 10.62,11.6666667 L10.62,11.6666667 L11.9333333,5.48 Z" id="Combined-Shape"></path>
            </g>
        </g>
    </g>
</svg>