<?xml version="1.0" encoding="UTF-8"?>
<svg width="16px" height="16px" viewBox="0 0 16 16" version="1.1" xmlns="http://www.w3.org/2000/svg" xmlns:xlink="http://www.w3.org/1999/xlink">
    <title>wa</title>
    <g id="01-HOME" stroke="none" stroke-width="1" fill="none" fill-rule="evenodd">
        <g id="AETERNUM" transform="translate(-1095.000000, -7805.000000)" fill="#4E82E7" fill-rule="nonzero">
            <g id="wa" transform="translate(1095.000000, 7805.000000)">
                <path d="M13.6688621,2.32515145 C12.1647918,0.826560695 10.1644991,0.000842305325 8.03340916,0 C3.64234121,0 0.068555183,3.55642906 0.0667979141,7.92786411 C0.0662121578,9.32520545 0.433069166,10.6892217 1.13018426,11.8915154 L0,16 L4.22321622,14.8975087 C5.38678859,15.5291081 6.69688681,15.8619699 8.03022004,15.8625315 L8.03349594,15.8625315 C12.4241083,15.8625315 15.9982197,12.3056488 16,7.9341922 C16.0008448,5.81572951 15.1729759,3.82374221 13.6688621,2.32515145 M8.03349594,14.5234604 L8.0307841,14.5234604 C6.84265336,14.5230068 5.67728033,14.2053497 4.66066771,13.6049372 L4.41885883,13.4621125 L1.91277638,14.1163677 L2.58171009,11.6846538 L2.42425012,11.4353531 C1.76143431,10.386143 1.41134729,9.1734609 1.41186738,7.92836085 C1.4133215,4.29500124 4.38373514,1.33904949 8.03612099,1.33904949 C9.80469285,1.33971902 11.4672211,2.02606827 12.717377,3.27164347 C13.9675328,4.51721866 14.6556229,6.17288857 14.6549508,7.93367386 C14.6534317,11.5672926 11.6830615,14.5234604 8.03349594,14.5234604 M11.6655105,9.5881127 C11.4664401,9.48895824 10.4877932,9.00968651 10.3053192,8.94357634 C10.122867,8.87746617 9.99018235,8.84442189 9.85745431,9.04275239 C9.72476966,9.2410613 9.34329044,9.68728875 9.22713713,9.81948749 C9.11104891,9.95170783 8.99493899,9.96825157 8.79586862,9.86907552 C8.59681995,9.76992106 7.95543848,9.56074857 7.1951051,8.88582443 C6.60338275,8.36057147 6.20385356,7.7117804 6.08774364,7.51347149 C5.97163372,7.31514098 6.07539937,7.20790903 6.17504303,7.10916493 C6.26457696,7.02039891 6.3740917,6.87779014 6.47362688,6.76209194 C6.57314037,6.64641534 6.60631153,6.56378303 6.67265386,6.43158429 C6.73901788,6.29936395 6.70584672,6.18366576 6.65607912,6.0845113 C6.60631153,5.98535685 6.20823588,5.01026965 6.04233668,4.61363023 C5.88077641,4.22733605 5.71665617,4.27960217 5.59447174,4.27355485 C5.47849199,4.2678099 5.34565548,4.26657884 5.21297083,4.26657884 C5.08026448,4.26657884 4.86461938,4.31616686 4.68214544,4.51447577 C4.4996932,4.71280628 3.98548594,5.19207801 3.98548594,6.16714361 C3.98548594,7.14220922 4.69874187,8.08420893 4.79827705,8.21642927 C4.89779054,8.34864961 6.20190104,10.3496431 8.1987226,11.2077363 C8.6736408,11.4118333 9.04442455,11.5337084 9.33350614,11.6250661 C9.81037686,11.7757956 10.2443138,11.754522 10.5873067,11.7035301 C10.9697405,11.6466637 11.7650023,11.22428 11.9309015,10.7615304 C12.096779,10.2987808 12.096779,9.9021414 12.0470114,9.81950909 C11.9972655,9.73687678 11.8645592,9.68728875 11.6655105,9.5881127" id="Shape"></path>
            </g>
        </g>
    </g>
</svg>