<?xml version="1.0" encoding="UTF-8"?>
<svg width="16px" height="16px" viewBox="0 0 16 16" version="1.1" xmlns="http://www.w3.org/2000/svg" xmlns:xlink="http://www.w3.org/1999/xlink">
    <title>youtube</title>
    <g id="01-HOME" stroke="none" stroke-width="1" fill="none" fill-rule="evenodd">
        <g id="AETERNUM" transform="translate(-981.000000, -7805.000000)">
            <g id="youtube" transform="translate(981.000000, 7805.000000)">
                <polygon id="Path" points="0 0 16 0 16 16 0 16"></polygon>
                <path d="M8.35447048,13.5134169 L5.07189069,13.4533824 C4.00906391,13.4324625 2.94359209,13.4742222 1.90160505,13.2574889 C0.316502303,12.9336713 0.204208161,11.3459236 0.0867040841,10.0141038 C-0.0752046713,8.14173326 -0.0125251432,6.23537789 0.293017518,4.37863714 C0.465506449,3.33681041 1.14432093,2.71514491 2.19408279,2.64749591 C5.73780056,2.40198773 9.30508327,2.43108321 12.8409461,2.54562164 C13.2143782,2.55612166 13.5903752,2.6135111 13.9585974,2.67883567 C15.7762235,2.99744325 15.8205481,4.7967144 15.9383728,6.3113628 C16.0558768,7.84164099 16.0062622,9.37977417 15.7816739,10.8996325 C15.6014903,12.1580322 15.2567529,13.2133246 13.8018986,13.3151989 C11.9790625,13.4484129 10.1980662,13.5556575 8.37010028,13.5215123 C8.37018044,13.5134169 8.35968041,13.5134169 8.35447048,13.5134169 Z M6.42463033,10.3275015 C7.79828986,9.53879742 9.1457394,8.76323845 10.511544,7.9798245 C9.13531953,7.19112047 7.79043488,6.4155615 6.42463033,5.63214755 L6.42463033,10.3275015 Z" id="Shape" fill="#4E82E7" fill-rule="nonzero"></path>
            </g>
        </g>
    </g>
</svg>