<?xml version="1.0" encoding="UTF-8"?>
<svg width="143px" height="23px" viewBox="0 0 143 23" version="1.1" xmlns="http://www.w3.org/2000/svg" xmlns:xlink="http://www.w3.org/1999/xlink">
    <title>aeternum</title>
    <g id="01-HOME" stroke="none" stroke-width="1" fill="none" fill-rule="evenodd">
        <g id="Artboard" transform="translate(-107.000000, -1205.000000)" fill="#606060" fill-rule="nonzero">
            <path d="M137.171365,1209.75704 C142.587842,1209.75704 145.8605,1213.74988 145.444098,1219.46881 L131.904532,1219.46881 C132.024898,1222.77446 134.077629,1224.65038 137.379566,1224.65038 C139.760864,1224.65038 141.306105,1223.84595 142.138909,1222.20778 L145.206619,1222.68327 C143.837048,1225.84237 141.159714,1227.45122 137.321009,1227.45122 C132.024898,1227.45122 128.573317,1223.93388 128.573317,1218.6025 C128.573317,1213.36232 132.083455,1209.75704 137.171365,1209.75704 Z M119.793094,1205.55577 L128.810797,1227.12229 L125.144508,1227.12229 L123.452876,1222.89171 L112.684984,1222.89171 L111.016124,1227.12554 L107.356342,1227.12554 L116.341513,1205.55577 L119.793094,1205.55577 Z M118.06893,1209.376 L113.784545,1220.12343 L122.353315,1220.12343 L118.06893,1209.376 Z M137.229921,1212.40807 C134.373665,1212.40807 132.382744,1213.89643 131.99562,1216.84709 L142.317831,1216.84709 C142.080352,1214.13418 140.235822,1212.40807 137.229921,1212.40807 Z M148.033597,1220.33186 L148.033597,1212.67513 L145.561212,1212.67513 L145.561212,1210.06969 L148.033597,1210.06969 L148.033597,1206.95619 L151.394091,1206.24296 L151.394091,1210.08598 L156.423444,1210.08598 L156.423444,1212.69142 L151.394091,1212.69142 L151.394091,1219.94431 C151.394091,1223.45839 152.317982,1224.67969 154.904228,1224.67969 C155.363411,1224.65821 155.820817,1224.60817 156.2738,1224.52988 L156.71948,1227.13532 C155.956122,1227.29148 155.179122,1227.37112 154.399991,1227.37306 C150.024519,1227.36003 148.033597,1225.54274 148.033597,1220.33186 Z M156.98949,1218.6025 C156.98949,1213.36232 160.499628,1209.75704 165.587538,1209.75704 C171.013774,1209.75704 174.266914,1213.74988 173.860271,1219.46881 L160.320705,1219.46881 C160.441071,1222.77446 162.493802,1224.65038 165.795739,1224.65038 C168.177037,1224.65038 169.722278,1223.84595 170.555082,1222.20778 L173.616286,1222.68327 C172.249967,1225.84237 169.572634,1227.45122 165.733929,1227.45122 C160.441071,1227.45122 156.98949,1223.93388 156.98949,1218.6025 Z M170.734004,1216.84709 C170.496525,1214.13418 168.651995,1212.40807 165.646094,1212.40807 C162.789838,1212.40807 160.795663,1213.89643 160.411793,1216.84709 L170.734004,1216.84709 Z M176.329404,1210.08598 L179.660619,1210.08598 L179.660619,1212.94545 C180.311247,1211.12815 182.100474,1209.45742 185.643143,1209.96548 L185.285297,1213.18319 C181.475871,1212.4667 179.660619,1214.52174 179.660619,1218.69369 L179.660619,1227.12229 L176.329404,1227.12229 L176.329404,1210.08598 Z M186.980183,1210.08598 L190.314651,1210.08598 L190.314651,1213.18319 C191.085645,1211.06627 193.021263,1209.78635 195.877519,1209.78635 C200.578306,1209.78635 202.751403,1212.49601 202.751403,1217.88927 L202.751403,1227.12229 L199.416935,1227.12229 L199.416935,1218.15632 C199.416935,1214.4338 197.988807,1212.67513 194.836515,1212.67513 C191.622413,1212.67513 190.314651,1214.79205 190.314651,1218.53737 L190.314651,1227.12229 L186.980183,1227.12229 L186.980183,1210.08598 Z M205.070891,1219.34831 L205.070891,1210.08598 L208.405359,1210.08598 L208.405359,1219.08125 C208.405359,1222.77446 209.742399,1224.52988 212.959754,1224.52988 C216.177109,1224.52988 217.481618,1222.41621 217.481618,1218.66764 L217.481618,1210.08598 L220.816086,1210.08598 L220.816086,1227.12229 L217.478365,1227.12229 L217.478365,1224.02507 C216.736649,1226.13874 214.771753,1227.45122 211.948028,1227.45122 C207.243988,1227.45122 205.070891,1224.70574 205.070891,1219.34831 Z M223.994403,1210.08598 L227.328871,1210.08598 L227.328871,1213.30695 C227.924196,1211.1021 229.856561,1209.79287 232.504616,1209.79287 C235.360873,1209.79287 236.759722,1210.86435 237.683614,1213.84432 C238.48714,1211.23888 240.748071,1209.76355 243.929642,1209.76355 C248.214026,1209.76355 250,1212.3234 250,1218.46246 L250,1227.12229 L246.668785,1227.12229 L246.668785,1218.72301 C246.668785,1214.37518 245.536693,1212.64582 242.709715,1212.64582 C239.781889,1212.64582 238.574974,1214.4338 238.574974,1218.66438 L238.574974,1227.13206 L235.24376,1227.13206 L235.24376,1218.75232 C235.24376,1214.28399 234.232033,1212.67513 231.463611,1212.67513 C228.578077,1212.67513 227.328871,1214.61293 227.328871,1218.99006 L227.328871,1227.13206 L223.994403,1227.13206 L223.994403,1210.08598 Z" id="aeternum"></path>
        </g>
    </g>
</svg>