<?xml version="1.0" encoding="UTF-8"?>
<svg width="44px" height="40px" viewBox="0 0 44 40" version="1.1" xmlns="http://www.w3.org/2000/svg" xmlns:xlink="http://www.w3.org/1999/xlink">
    <title>icon</title>
    <defs>
        <radialGradient cx="-20.5371317%" cy="0.765348022%" fx="-20.5371317%" fy="0.765348022%" r="306.730385%" gradientTransform="translate(-0.205371,0.007653),scale(0.928752,1.000000),translate(0.205371,-0.007653)" id="radialGradient-1">
            <stop stop-color="#4E82E7" offset="1%"></stop>
            <stop stop-color="#6039E4" offset="52%"></stop>
        </radialGradient>
        <radialGradient cx="-1043.50927%" cy="-638.659058%" fx="-1043.50927%" fy="-638.659058%" r="2690.08559%" gradientTransform="translate(-10.435093,-6.386591),scale(1.000000,0.998877),translate(10.435093,6.386591)" id="radialGradient-2">
            <stop stop-color="#4E82E7" offset="1%"></stop>
            <stop stop-color="#6039E4" offset="52%"></stop>
        </radialGradient>
        <radialGradient cx="-687.803138%" cy="2.06847361%" fx="-687.803138%" fy="2.06847361%" r="2690.08559%" gradientTransform="translate(-6.878031,0.020685),scale(1.000000,0.998877),translate(6.878031,-0.020685)" id="radialGradient-3">
            <stop stop-color="#4E82E7" offset="1%"></stop>
            <stop stop-color="#6039E4" offset="52%"></stop>
        </radialGradient>
        <radialGradient cx="-281.954351%" cy="-638.659058%" fx="-281.954351%" fy="-638.659058%" r="2690.08559%" gradientTransform="translate(-2.819544,-6.386591),scale(1.000000,0.998877),translate(2.819544,6.386591)" id="radialGradient-4">
            <stop stop-color="#4E82E7" offset="1%"></stop>
            <stop stop-color="#6039E4" offset="52%"></stop>
        </radialGradient>
    </defs>
    <g id="01-HOME" stroke="none" stroke-width="1" fill="none" fill-rule="evenodd">
        <g id="Artboard" transform="translate(-50.000000, -1198.000000)">
            <g id="icon" transform="translate(50.000000, 1198.000000)">
                <path d="M28.3611102,40 C20.859235,39.9904603 14.5634379,34.3369447 13.7415015,26.8718406 L1.5877726,26.8718406 C1.02006886,26.8696066 0.496393965,26.5652697 0.212929552,26.0728421 C-0.0705348601,25.5804145 -0.071005245,24.9742188 0.211694616,24.4813509 L13.8748803,0.797915685 C14.1577685,0.306039385 14.6807655,0.0020622209 15.2477051,0 L15.2477051,0 C15.8169706,0 16.3429856,0.304026776 16.6270362,0.797915685 L22.8698108,11.6202555 C27.4022815,9.79400027 32.544768,10.3403005 36.5934694,13.078157 C40.6421708,15.8160134 43.0685536,20.387975 43.0685536,25.2792664 C43.0685536,25.7022082 42.9005079,26.1077801 42.6014738,26.4065395 C42.3024397,26.7052989 41.8969811,26.8727055 41.4745152,26.8718406 L31.6402747,26.8718406 L36.6305906,35.6651953 C37.0543676,36.4103355 36.8127811,37.3576131 36.0840632,37.8081684 C33.7631165,39.2428359 31.088827,40.0018169 28.3611102,40 Z M16.949097,26.8718406 C17.4461451,30.4644278 19.6019636,33.6138094 22.7692923,35.3744192 C25.9366211,37.1350289 29.7466239,37.3018434 33.0553904,35.8247784 L27.9739866,26.8718406 L16.949097,26.8718406 Z M29.8250229,23.6834354 L39.7731233,23.6834354 C39.2932569,20.246768 37.2935553,17.2089432 34.3283078,15.4120035 C31.3630604,13.6150638 27.7473379,13.2499421 24.483368,14.417845 L29.8250229,23.6834354 Z M16.949097,23.6834354 L26.1489753,23.6834354 L21.6596429,15.8996881 C19.0908507,17.7388676 17.3881232,20.5524695 16.949097,23.6834354 L16.949097,23.6834354 Z M4.34643484,23.6834354 L13.7415015,23.6834354 C14.2104145,19.4115402 16.5190312,15.557536 20.0623515,13.1314098 L15.2477051,4.78097966 L4.34643484,23.6834354 Z" id="Shape" fill="url(#radialGradient-1)" fill-rule="nonzero"></path>
                <ellipse id="Oval" fill="url(#radialGradient-2)" fill-rule="nonzero" cx="41.0288351" cy="31.7505241" rx="2.28045075" ry="2.28301541"></ellipse>
                <ellipse id="Oval" fill="url(#radialGradient-3)" fill-rule="nonzero" cx="24.8054288" cy="2.49470745" rx="2.28045075" ry="2.28301541"></ellipse>
                <ellipse id="Oval" fill="url(#radialGradient-4)" fill-rule="nonzero" cx="6.29506536" cy="31.7505241" rx="2.28045075" ry="2.28301541"></ellipse>
                <g id="Recurso-11-Copy-2"></g>
            </g>
        </g>
    </g>
</svg>