<?xml version="1.0" encoding="UTF-8"?>
<svg width="22px" height="22px" viewBox="0 0 22 22" version="1.1" xmlns="http://www.w3.org/2000/svg" xmlns:xlink="http://www.w3.org/1999/xlink">
    <title>Group 2 Copy</title>
    <g id="03-FAQ" stroke="none" stroke-width="1" fill="none" fill-rule="evenodd">
        <g id="AETERNUM--PREGUNTAS-FRECUENTES" transform="translate(-621.000000, -706.000000)" fill="#4E82E7" fill-rule="nonzero">
            <g id="Group-2-Copy" transform="translate(622.000000, 707.000000)">
                <path d="M10,-0.5 C10.2454599,-0.5 10.4496084,-0.323124839 10.4919443,-0.0898756324 L10.5,0 L10.5,20 C10.5,20.2761424 10.2761424,20.5 10,20.5 C9.75454011,20.5 9.55039163,20.3231248 9.50805567,20.0898756 L9.5,20 L9.5,0 C9.5,-0.276142375 9.72385763,-0.5 10,-0.5 Z" id="Path-13" transform="translate(10.000000, 10.000000) rotate(-90.000000) translate(-10.000000, -10.000000) "></path>
                <path d="M10,-0.5 C10.2454599,-0.5 10.4496084,-0.323124839 10.4919443,-0.0898756324 L10.5,0 L10.5,20 C10.5,20.2761424 10.2761424,20.5 10,20.5 C9.75454011,20.5 9.55039163,20.3231248 9.50805567,20.0898756 L9.5,20 L9.5,0 C9.5,-0.276142375 9.72385763,-0.5 10,-0.5 Z" id="Path-13"></path>
            </g>
        </g>
    </g>
</svg>